G04*
G04 #@! TF.GenerationSoftware,Altium Limited,Altium Designer,23.3.1 (30)*
G04*
G04 Layer_Color=32896*
%FSLAX25Y25*%
%MOIN*%
G70*
G04*
G04 #@! TF.SameCoordinates,65CDCF12-2861-4885-BE21-4D3676ECD45B*
G04*
G04*
G04 #@! TF.FilePolarity,Positive*
G04*
G01*
G75*
%ADD14C,0.01000*%
D14*
X62464Y353292D02*
Y349356D01*
X60496D01*
X59840Y350012D01*
Y350668D01*
X60496Y351324D01*
X62464D01*
X60496D01*
X59840Y351980D01*
Y352636D01*
X60496Y353292D01*
X62464D01*
X58528Y352636D02*
X57872Y353292D01*
X56560D01*
X55905Y352636D01*
Y351980D01*
X56560Y351324D01*
X55905Y350668D01*
Y350012D01*
X56560Y349356D01*
X57872D01*
X58528Y350012D01*
Y350668D01*
X57872Y351324D01*
X58528Y351980D01*
Y352636D01*
X57872Y351324D02*
X56560D01*
X54593Y352636D02*
X53937Y353292D01*
X52625D01*
X51969Y352636D01*
Y351980D01*
X52625Y351324D01*
X53281D01*
X52625D01*
X51969Y350668D01*
Y350012D01*
X52625Y349356D01*
X53937D01*
X54593Y350012D01*
X165862Y408793D02*
Y404857D01*
X163894D01*
X163238Y405513D01*
Y406169D01*
X163894Y406825D01*
X165862D01*
X163894D01*
X163238Y407481D01*
Y408137D01*
X163894Y408793D01*
X165862D01*
X161926D02*
X159302D01*
Y408137D01*
X161926Y405513D01*
Y404857D01*
X157991Y405513D02*
X157334Y404857D01*
X156023D01*
X155367Y405513D01*
Y408137D01*
X156023Y408793D01*
X157334D01*
X157991Y408137D01*
Y407481D01*
X157334Y406825D01*
X155367D01*
X122764Y285292D02*
Y281356D01*
X120796D01*
X120140Y282012D01*
Y282668D01*
X120796Y283324D01*
X122764D01*
X120796D01*
X120140Y283980D01*
Y284636D01*
X120796Y285292D01*
X122764D01*
X118828D02*
X116205D01*
Y284636D01*
X118828Y282012D01*
Y281356D01*
X114893Y284636D02*
X114237Y285292D01*
X112925D01*
X112269Y284636D01*
Y283980D01*
X112925Y283324D01*
X113581D01*
X112925D01*
X112269Y282668D01*
Y282012D01*
X112925Y281356D01*
X114237D01*
X114893Y282012D01*
X171671Y285218D02*
Y281282D01*
X169703D01*
X169047Y281938D01*
Y282594D01*
X169703Y283250D01*
X171671D01*
X169703D01*
X169047Y283906D01*
Y284562D01*
X169703Y285218D01*
X171671D01*
X167735D02*
X165111D01*
Y284562D01*
X167735Y281938D01*
Y281282D01*
X161176D02*
X163799D01*
X161176Y283906D01*
Y284562D01*
X161831Y285218D01*
X163143D01*
X163799Y284562D01*
X287355Y45889D02*
Y41953D01*
X285387D01*
X284732Y42609D01*
Y43265D01*
X285387Y43921D01*
X287355D01*
X285387D01*
X284732Y44577D01*
Y45233D01*
X285387Y45889D01*
X287355D01*
X281452Y41953D02*
Y45889D01*
X283420Y43921D01*
X280796D01*
X276860Y45889D02*
X279484D01*
Y43921D01*
X278172Y44577D01*
X277516D01*
X276860Y43921D01*
Y42609D01*
X277516Y41953D01*
X278828D01*
X279484Y42609D01*
X453162Y45893D02*
Y41958D01*
X451194D01*
X450538Y42613D01*
Y43269D01*
X451194Y43925D01*
X453162D01*
X451194D01*
X450538Y44581D01*
Y45237D01*
X451194Y45893D01*
X453162D01*
X446602Y41958D02*
X449226D01*
X446602Y44581D01*
Y45237D01*
X447258Y45893D01*
X448570D01*
X449226Y45237D01*
X445290Y42613D02*
X444634Y41958D01*
X443323D01*
X442667Y42613D01*
Y45237D01*
X443323Y45893D01*
X444634D01*
X445290Y45237D01*
Y44581D01*
X444634Y43925D01*
X442667D01*
X746970Y45893D02*
Y41958D01*
X745002D01*
X744346Y42613D01*
Y43269D01*
X745002Y43925D01*
X746970D01*
X745002D01*
X744346Y44581D01*
Y45237D01*
X745002Y45893D01*
X746970D01*
X743034Y45237D02*
X742378Y45893D01*
X741066D01*
X740410Y45237D01*
Y44581D01*
X741066Y43925D01*
X740410Y43269D01*
Y42613D01*
X741066Y41958D01*
X742378D01*
X743034Y42613D01*
Y43269D01*
X742378Y43925D01*
X743034Y44581D01*
Y45237D01*
X742378Y43925D02*
X741066D01*
X737130Y41958D02*
Y45893D01*
X739098Y43925D01*
X736474D01*
X91277Y394393D02*
Y390458D01*
X89309D01*
X88653Y391113D01*
Y391769D01*
X89309Y392425D01*
X91277D01*
X89309D01*
X88653Y393081D01*
Y393737D01*
X89309Y394393D01*
X91277D01*
X87341Y393737D02*
X86686Y394393D01*
X85374D01*
X84718Y393737D01*
Y393081D01*
X85374Y392425D01*
X84718Y391769D01*
Y391113D01*
X85374Y390458D01*
X86686D01*
X87341Y391113D01*
Y391769D01*
X86686Y392425D01*
X87341Y393081D01*
Y393737D01*
X86686Y392425D02*
X85374D01*
X80782Y390458D02*
X83406D01*
X80782Y393081D01*
Y393737D01*
X81438Y394393D01*
X82750D01*
X83406Y393737D01*
X131051Y353293D02*
Y349358D01*
X129083D01*
X128427Y350013D01*
Y350669D01*
X129083Y351325D01*
X131051D01*
X129083D01*
X128427Y351981D01*
Y352637D01*
X129083Y353293D01*
X131051D01*
X127115Y352637D02*
X126460Y353293D01*
X125148D01*
X124492Y352637D01*
Y351981D01*
X125148Y351325D01*
X124492Y350669D01*
Y350013D01*
X125148Y349358D01*
X126460D01*
X127115Y350013D01*
Y350669D01*
X126460Y351325D01*
X127115Y351981D01*
Y352637D01*
X126460Y351325D02*
X125148D01*
X123180Y349358D02*
X121868D01*
X122524D01*
Y353293D01*
X123180Y352637D01*
X91246Y323806D02*
Y319870D01*
X89278D01*
X88622Y320527D01*
Y321182D01*
X89278Y321838D01*
X91246D01*
X89278D01*
X88622Y322494D01*
Y323150D01*
X89278Y323806D01*
X91246D01*
X87310Y323150D02*
X86654Y323806D01*
X85342D01*
X84686Y323150D01*
Y322494D01*
X85342Y321838D01*
X84686Y321182D01*
Y320527D01*
X85342Y319870D01*
X86654D01*
X87310Y320527D01*
Y321182D01*
X86654Y321838D01*
X87310Y322494D01*
Y323150D01*
X86654Y321838D02*
X85342D01*
X83374Y323150D02*
X82718Y323806D01*
X81406D01*
X80751Y323150D01*
Y320527D01*
X81406Y319870D01*
X82718D01*
X83374Y320527D01*
Y323150D01*
X177370Y366910D02*
Y362974D01*
X175402D01*
X174746Y363630D01*
Y364286D01*
X175402Y364942D01*
X177370D01*
X175402D01*
X174746Y365598D01*
Y366254D01*
X175402Y366910D01*
X177370D01*
X173434D02*
X170810D01*
Y366254D01*
X173434Y363630D01*
Y362974D01*
X167530D02*
Y366910D01*
X169498Y364942D01*
X166874D01*
X221562Y408793D02*
Y404857D01*
X219594D01*
X218938Y405513D01*
Y406169D01*
X219594Y406825D01*
X221562D01*
X219594D01*
X218938Y407481D01*
Y408137D01*
X219594Y408793D01*
X221562D01*
X217626D02*
X215002D01*
Y408137D01*
X217626Y405513D01*
Y404857D01*
X213690Y408137D02*
X213035Y408793D01*
X211723D01*
X211067Y408137D01*
Y407481D01*
X211723Y406825D01*
X211067Y406169D01*
Y405513D01*
X211723Y404857D01*
X213035D01*
X213690Y405513D01*
Y406169D01*
X213035Y406825D01*
X213690Y407481D01*
Y408137D01*
X213035Y406825D02*
X211723D01*
X221514Y366910D02*
Y362974D01*
X219546D01*
X218890Y363630D01*
Y364286D01*
X219546Y364942D01*
X221514D01*
X219546D01*
X218890Y365598D01*
Y366254D01*
X219546Y366910D01*
X221514D01*
X217578D02*
X214954D01*
Y366254D01*
X217578Y363630D01*
Y362974D01*
X213642Y366910D02*
X211018D01*
Y366254D01*
X213642Y363630D01*
Y362974D01*
X221564Y324793D02*
Y320858D01*
X219596D01*
X218940Y321513D01*
Y322169D01*
X219596Y322825D01*
X221564D01*
X219596D01*
X218940Y323481D01*
Y324137D01*
X219596Y324793D01*
X221564D01*
X217628D02*
X215005D01*
Y324137D01*
X217628Y321513D01*
Y320858D01*
X211069Y324793D02*
X212381Y324137D01*
X213693Y322825D01*
Y321513D01*
X213037Y320858D01*
X211725D01*
X211069Y321513D01*
Y322169D01*
X211725Y322825D01*
X213693D01*
X221555Y285289D02*
Y281353D01*
X219587D01*
X218932Y282009D01*
Y282665D01*
X219587Y283321D01*
X221555D01*
X219587D01*
X218932Y283977D01*
Y284633D01*
X219587Y285289D01*
X221555D01*
X217620D02*
X214996D01*
Y284633D01*
X217620Y282009D01*
Y281353D01*
X211060Y285289D02*
X213684D01*
Y283321D01*
X212372Y283977D01*
X211716D01*
X211060Y283321D01*
Y282009D01*
X211716Y281353D01*
X213028D01*
X213684Y282009D01*
X73464Y285292D02*
Y281356D01*
X71496D01*
X70840Y282012D01*
Y282668D01*
X71496Y283324D01*
X73464D01*
X71496D01*
X70840Y283980D01*
Y284636D01*
X71496Y285292D01*
X73464D01*
X66904D02*
X68217Y284636D01*
X69528Y283324D01*
Y282012D01*
X68872Y281356D01*
X67560D01*
X66904Y282012D01*
Y282668D01*
X67560Y283324D01*
X69528D01*
X65593Y284636D02*
X64937Y285292D01*
X63625D01*
X62969Y284636D01*
Y283980D01*
X63625Y283324D01*
X64281D01*
X63625D01*
X62969Y282668D01*
Y282012D01*
X63625Y281356D01*
X64937D01*
X65593Y282012D01*
X171671Y324796D02*
Y320860D01*
X169703D01*
X169047Y321516D01*
Y322172D01*
X169703Y322828D01*
X171671D01*
X169703D01*
X169047Y323484D01*
Y324140D01*
X169703Y324796D01*
X171671D01*
X165111D02*
X166423Y324140D01*
X167735Y322828D01*
Y321516D01*
X167079Y320860D01*
X165767D01*
X165111Y321516D01*
Y322172D01*
X165767Y322828D01*
X167735D01*
X161176Y320860D02*
X163799D01*
X161176Y323484D01*
Y324140D01*
X161831Y324796D01*
X163143D01*
X163799Y324140D01*
X73051Y246614D02*
Y242678D01*
X71083D01*
X70427Y243334D01*
Y243990D01*
X71083Y244646D01*
X73051D01*
X71083D01*
X70427Y245302D01*
Y245958D01*
X71083Y246614D01*
X73051D01*
X69116D02*
X66492D01*
Y245958D01*
X69116Y243334D01*
Y242678D01*
X65180D02*
X63868D01*
X64524D01*
Y246614D01*
X65180Y245958D01*
X73469Y206993D02*
Y203057D01*
X71501D01*
X70845Y203713D01*
Y204369D01*
X71501Y205025D01*
X73469D01*
X71501D01*
X70845Y205681D01*
Y206337D01*
X71501Y206993D01*
X73469D01*
X69533D02*
X66909D01*
Y206337D01*
X69533Y203713D01*
Y203057D01*
X65597Y206337D02*
X64941Y206993D01*
X63629D01*
X62973Y206337D01*
Y203713D01*
X63629Y203057D01*
X64941D01*
X65597Y203713D01*
Y206337D01*
X73462Y167793D02*
Y163857D01*
X71494D01*
X70838Y164513D01*
Y165169D01*
X71494Y165825D01*
X73462D01*
X71494D01*
X70838Y166481D01*
Y167137D01*
X71494Y167793D01*
X73462D01*
X66902D02*
X68214Y167137D01*
X69526Y165825D01*
Y164513D01*
X68870Y163857D01*
X67558D01*
X66902Y164513D01*
Y165169D01*
X67558Y165825D01*
X69526D01*
X65590Y164513D02*
X64934Y163857D01*
X63623D01*
X62967Y164513D01*
Y167137D01*
X63623Y167793D01*
X64934D01*
X65590Y167137D01*
Y166481D01*
X64934Y165825D01*
X62967D01*
X73462Y128393D02*
Y124457D01*
X71494D01*
X70838Y125113D01*
Y125769D01*
X71494Y126425D01*
X73462D01*
X71494D01*
X70838Y127081D01*
Y127737D01*
X71494Y128393D01*
X73462D01*
X66902D02*
X68214Y127737D01*
X69526Y126425D01*
Y125113D01*
X68870Y124457D01*
X67558D01*
X66902Y125113D01*
Y125769D01*
X67558Y126425D01*
X69526D01*
X65590Y127737D02*
X64934Y128393D01*
X63623D01*
X62967Y127737D01*
Y127081D01*
X63623Y126425D01*
X62967Y125769D01*
Y125113D01*
X63623Y124457D01*
X64934D01*
X65590Y125113D01*
Y125769D01*
X64934Y126425D01*
X65590Y127081D01*
Y127737D01*
X64934Y126425D02*
X63623D01*
X73464Y88993D02*
Y85057D01*
X71496D01*
X70840Y85713D01*
Y86369D01*
X71496Y87025D01*
X73464D01*
X71496D01*
X70840Y87681D01*
Y88337D01*
X71496Y88993D01*
X73464D01*
X66904D02*
X68217Y88337D01*
X69528Y87025D01*
Y85713D01*
X68872Y85057D01*
X67560D01*
X66904Y85713D01*
Y86369D01*
X67560Y87025D01*
X69528D01*
X65593Y88993D02*
X62969D01*
Y88337D01*
X65593Y85713D01*
Y85057D01*
X73464Y45893D02*
Y41958D01*
X71496D01*
X70840Y42613D01*
Y43269D01*
X71496Y43925D01*
X73464D01*
X71496D01*
X70840Y44581D01*
Y45237D01*
X71496Y45893D01*
X73464D01*
X66904D02*
X68217Y45237D01*
X69528Y43925D01*
Y42613D01*
X68872Y41958D01*
X67560D01*
X66904Y42613D01*
Y43269D01*
X67560Y43925D01*
X69528D01*
X62969Y45893D02*
X64281Y45237D01*
X65593Y43925D01*
Y42613D01*
X64937Y41958D01*
X63625D01*
X62969Y42613D01*
Y43269D01*
X63625Y43925D01*
X65593D01*
X122755Y246693D02*
Y242758D01*
X120788D01*
X120132Y243413D01*
Y244069D01*
X120788Y244725D01*
X122755D01*
X120788D01*
X120132Y245381D01*
Y246037D01*
X120788Y246693D01*
X122755D01*
X116196D02*
X117508Y246037D01*
X118820Y244725D01*
Y243413D01*
X118164Y242758D01*
X116852D01*
X116196Y243413D01*
Y244069D01*
X116852Y244725D01*
X118820D01*
X112260Y246693D02*
X114884D01*
Y244725D01*
X113572Y245381D01*
X112916D01*
X112260Y244725D01*
Y243413D01*
X112916Y242758D01*
X114228D01*
X114884Y243413D01*
X122770Y206993D02*
Y203057D01*
X120802D01*
X120146Y203713D01*
Y204369D01*
X120802Y205025D01*
X122770D01*
X120802D01*
X120146Y205681D01*
Y206337D01*
X120802Y206993D01*
X122770D01*
X116210D02*
X117522Y206337D01*
X118834Y205025D01*
Y203713D01*
X118178Y203057D01*
X116866D01*
X116210Y203713D01*
Y204369D01*
X116866Y205025D01*
X118834D01*
X112930Y203057D02*
Y206993D01*
X114898Y205025D01*
X112274D01*
X122351Y167793D02*
Y163857D01*
X120383D01*
X119727Y164513D01*
Y165169D01*
X120383Y165825D01*
X122351D01*
X120383D01*
X119727Y166481D01*
Y167137D01*
X120383Y167793D01*
X122351D01*
X115792D02*
X117104Y167137D01*
X118415Y165825D01*
Y164513D01*
X117760Y163857D01*
X116448D01*
X115792Y164513D01*
Y165169D01*
X116448Y165825D01*
X118415D01*
X114480Y163857D02*
X113168D01*
X113824D01*
Y167793D01*
X114480Y167137D01*
X122768Y128393D02*
Y124457D01*
X120801D01*
X120145Y125113D01*
Y125769D01*
X120801Y126425D01*
X122768D01*
X120801D01*
X120145Y127081D01*
Y127737D01*
X120801Y128393D01*
X122768D01*
X116209D02*
X117521Y127737D01*
X118833Y126425D01*
Y125113D01*
X118177Y124457D01*
X116865D01*
X116209Y125113D01*
Y125769D01*
X116865Y126425D01*
X118833D01*
X114897Y127737D02*
X114241Y128393D01*
X112929D01*
X112273Y127737D01*
Y125113D01*
X112929Y124457D01*
X114241D01*
X114897Y125113D01*
Y127737D01*
X122762Y88993D02*
Y85057D01*
X120794D01*
X120138Y85713D01*
Y86369D01*
X120794Y87025D01*
X122762D01*
X120794D01*
X120138Y87681D01*
Y88337D01*
X120794Y88993D01*
X122762D01*
X116202D02*
X118826D01*
Y87025D01*
X117514Y87681D01*
X116858D01*
X116202Y87025D01*
Y85713D01*
X116858Y85057D01*
X118170D01*
X118826Y85713D01*
X114891D02*
X114234Y85057D01*
X112923D01*
X112267Y85713D01*
Y88337D01*
X112923Y88993D01*
X114234D01*
X114891Y88337D01*
Y87681D01*
X114234Y87025D01*
X112267D01*
X122762Y45893D02*
Y41958D01*
X120794D01*
X120138Y42613D01*
Y43269D01*
X120794Y43925D01*
X122762D01*
X120794D01*
X120138Y44581D01*
Y45237D01*
X120794Y45893D01*
X122762D01*
X116202D02*
X118826D01*
Y43925D01*
X117514Y44581D01*
X116858D01*
X116202Y43925D01*
Y42613D01*
X116858Y41958D01*
X118170D01*
X118826Y42613D01*
X114891Y45237D02*
X114234Y45893D01*
X112923D01*
X112267Y45237D01*
Y44581D01*
X112923Y43925D01*
X112267Y43269D01*
Y42613D01*
X112923Y41958D01*
X114234D01*
X114891Y42613D01*
Y43269D01*
X114234Y43925D01*
X114891Y44581D01*
Y45237D01*
X114234Y43925D02*
X112923D01*
X171664Y246689D02*
Y242753D01*
X169696D01*
X169040Y243409D01*
Y244065D01*
X169696Y244721D01*
X171664D01*
X169696D01*
X169040Y245377D01*
Y246033D01*
X169696Y246689D01*
X171664D01*
X165104D02*
X167728D01*
Y244721D01*
X166417Y245377D01*
X165761D01*
X165104Y244721D01*
Y243409D01*
X165761Y242753D01*
X167072D01*
X167728Y243409D01*
X163793Y246689D02*
X161169D01*
Y246033D01*
X163793Y243409D01*
Y242753D01*
X171664Y206993D02*
Y203057D01*
X169696D01*
X169040Y203713D01*
Y204369D01*
X169696Y205025D01*
X171664D01*
X169696D01*
X169040Y205681D01*
Y206337D01*
X169696Y206993D01*
X171664D01*
X165104D02*
X167728D01*
Y205025D01*
X166417Y205681D01*
X165761D01*
X165104Y205025D01*
Y203713D01*
X165761Y203057D01*
X167072D01*
X167728Y203713D01*
X161169Y206993D02*
X162481Y206337D01*
X163793Y205025D01*
Y203713D01*
X163137Y203057D01*
X161825D01*
X161169Y203713D01*
Y204369D01*
X161825Y205025D01*
X163793D01*
X171655Y167789D02*
Y163853D01*
X169687D01*
X169032Y164509D01*
Y165165D01*
X169687Y165821D01*
X171655D01*
X169687D01*
X169032Y166477D01*
Y167133D01*
X169687Y167789D01*
X171655D01*
X165096D02*
X167720D01*
Y165821D01*
X166408Y166477D01*
X165752D01*
X165096Y165821D01*
Y164509D01*
X165752Y163853D01*
X167064D01*
X167720Y164509D01*
X161160Y167789D02*
X163784D01*
Y165821D01*
X162472Y166477D01*
X161816D01*
X161160Y165821D01*
Y164509D01*
X161816Y163853D01*
X163128D01*
X163784Y164509D01*
X171670Y128389D02*
Y124453D01*
X169702D01*
X169046Y125109D01*
Y125765D01*
X169702Y126421D01*
X171670D01*
X169702D01*
X169046Y127077D01*
Y127733D01*
X169702Y128389D01*
X171670D01*
X165110D02*
X167734D01*
Y126421D01*
X166422Y127077D01*
X165766D01*
X165110Y126421D01*
Y125109D01*
X165766Y124453D01*
X167078D01*
X167734Y125109D01*
X161830Y124453D02*
Y128389D01*
X163798Y126421D01*
X161174D01*
X171664Y88992D02*
Y85056D01*
X169696D01*
X169040Y85712D01*
Y86368D01*
X169696Y87024D01*
X171664D01*
X169696D01*
X169040Y87680D01*
Y88336D01*
X169696Y88992D01*
X171664D01*
X165104D02*
X167728D01*
Y87024D01*
X166417Y87680D01*
X165761D01*
X165104Y87024D01*
Y85712D01*
X165761Y85056D01*
X167072D01*
X167728Y85712D01*
X163793Y88336D02*
X163137Y88992D01*
X161825D01*
X161169Y88336D01*
Y87680D01*
X161825Y87024D01*
X162481D01*
X161825D01*
X161169Y86368D01*
Y85712D01*
X161825Y85056D01*
X163137D01*
X163793Y85712D01*
X170477Y45893D02*
Y41958D01*
X168509D01*
X167853Y42613D01*
Y43269D01*
X168509Y43925D01*
X170477D01*
X168509D01*
X167853Y44581D01*
Y45237D01*
X168509Y45893D01*
X170477D01*
X163918D02*
X166542D01*
Y43925D01*
X165229Y44581D01*
X164574D01*
X163918Y43925D01*
Y42613D01*
X164574Y41958D01*
X165885D01*
X166542Y42613D01*
X159982Y41958D02*
X162606D01*
X159982Y44581D01*
Y45237D01*
X160638Y45893D01*
X161950D01*
X162606Y45237D01*
X221151Y245893D02*
Y241957D01*
X219183D01*
X218527Y242613D01*
Y243269D01*
X219183Y243925D01*
X221151D01*
X219183D01*
X218527Y244581D01*
Y245237D01*
X219183Y245893D01*
X221151D01*
X214592D02*
X217215D01*
Y243925D01*
X215904Y244581D01*
X215248D01*
X214592Y243925D01*
Y242613D01*
X215248Y241957D01*
X216560D01*
X217215Y242613D01*
X213280Y241957D02*
X211968D01*
X212624D01*
Y245893D01*
X213280Y245237D01*
X221568Y206993D02*
Y203057D01*
X219601D01*
X218945Y203713D01*
Y204369D01*
X219601Y205025D01*
X221568D01*
X219601D01*
X218945Y205681D01*
Y206337D01*
X219601Y206993D01*
X221568D01*
X215009D02*
X217633D01*
Y205025D01*
X216321Y205681D01*
X215665D01*
X215009Y205025D01*
Y203713D01*
X215665Y203057D01*
X216977D01*
X217633Y203713D01*
X213697Y206337D02*
X213041Y206993D01*
X211729D01*
X211073Y206337D01*
Y203713D01*
X211729Y203057D01*
X213041D01*
X213697Y203713D01*
Y206337D01*
X221562Y167793D02*
Y163857D01*
X219594D01*
X218938Y164513D01*
Y165169D01*
X219594Y165825D01*
X221562D01*
X219594D01*
X218938Y166481D01*
Y167137D01*
X219594Y167793D01*
X221562D01*
X215658Y163857D02*
Y167793D01*
X217626Y165825D01*
X215002D01*
X213690Y164513D02*
X213035Y163857D01*
X211723D01*
X211067Y164513D01*
Y167137D01*
X211723Y167793D01*
X213035D01*
X213690Y167137D01*
Y166481D01*
X213035Y165825D01*
X211067D01*
X221562Y128393D02*
Y124457D01*
X219594D01*
X218938Y125113D01*
Y125769D01*
X219594Y126425D01*
X221562D01*
X219594D01*
X218938Y127081D01*
Y127737D01*
X219594Y128393D01*
X221562D01*
X215658Y124457D02*
Y128393D01*
X217626Y126425D01*
X215002D01*
X213690Y127737D02*
X213035Y128393D01*
X211723D01*
X211067Y127737D01*
Y127081D01*
X211723Y126425D01*
X211067Y125769D01*
Y125113D01*
X211723Y124457D01*
X213035D01*
X213690Y125113D01*
Y125769D01*
X213035Y126425D01*
X213690Y127081D01*
Y127737D01*
X213035Y126425D02*
X211723D01*
X221564Y88910D02*
Y84974D01*
X219596D01*
X218940Y85630D01*
Y86286D01*
X219596Y86942D01*
X221564D01*
X219596D01*
X218940Y87598D01*
Y88254D01*
X219596Y88910D01*
X221564D01*
X215661Y84974D02*
Y88910D01*
X217628Y86942D01*
X215005D01*
X213693Y88910D02*
X211069D01*
Y88254D01*
X213693Y85630D01*
Y84974D01*
X221564Y45893D02*
Y41958D01*
X219596D01*
X218940Y42613D01*
Y43269D01*
X219596Y43925D01*
X221564D01*
X219596D01*
X218940Y44581D01*
Y45237D01*
X219596Y45893D01*
X221564D01*
X215661Y41958D02*
Y45893D01*
X217628Y43925D01*
X215005D01*
X211069Y45893D02*
X212381Y45237D01*
X213693Y43925D01*
Y42613D01*
X213037Y41958D01*
X211725D01*
X211069Y42613D01*
Y43269D01*
X211725Y43925D01*
X213693D01*
X287377Y88914D02*
Y84978D01*
X285409D01*
X284753Y85634D01*
Y86290D01*
X285409Y86946D01*
X287377D01*
X285409D01*
X284753Y87602D01*
Y88258D01*
X285409Y88914D01*
X287377D01*
X281474Y84978D02*
Y88914D01*
X283441Y86946D01*
X280818D01*
X276882Y84978D02*
X279506D01*
X276882Y87602D01*
Y88258D01*
X277538Y88914D01*
X278850D01*
X279506Y88258D01*
X287370Y167710D02*
Y163774D01*
X285402D01*
X284746Y164430D01*
Y165086D01*
X285402Y165742D01*
X287370D01*
X285402D01*
X284746Y166398D01*
Y167054D01*
X285402Y167710D01*
X287370D01*
X281466Y163774D02*
Y167710D01*
X283434Y165742D01*
X280810D01*
X277530Y163774D02*
Y167710D01*
X279498Y165742D01*
X276874D01*
X337582Y45830D02*
Y41895D01*
X335614D01*
X334958Y42551D01*
Y43206D01*
X335614Y43862D01*
X337582D01*
X335614D01*
X334958Y44518D01*
Y45174D01*
X335614Y45830D01*
X337582D01*
X333646Y45174D02*
X332990Y45830D01*
X331678D01*
X331022Y45174D01*
Y44518D01*
X332334Y43206D01*
Y42551D02*
Y41895D01*
X338564Y88992D02*
Y85056D01*
X336596D01*
X335940Y85712D01*
Y86368D01*
X336596Y87024D01*
X338564D01*
X336596D01*
X335940Y87680D01*
Y88336D01*
X336596Y88992D01*
X338564D01*
X332661Y85056D02*
Y88992D01*
X334628Y87024D01*
X332005D01*
X330693Y88336D02*
X330037Y88992D01*
X328725D01*
X328069Y88336D01*
Y87680D01*
X328725Y87024D01*
X329381D01*
X328725D01*
X328069Y86368D01*
Y85712D01*
X328725Y85056D01*
X330037D01*
X330693Y85712D01*
X312251Y128314D02*
Y124378D01*
X310283D01*
X309627Y125034D01*
Y125690D01*
X310283Y126346D01*
X312251D01*
X310283D01*
X309627Y127002D01*
Y127658D01*
X310283Y128314D01*
X312251D01*
X306348Y124378D02*
Y128314D01*
X308315Y126346D01*
X305692D01*
X304380Y124378D02*
X303068D01*
X303724D01*
Y128314D01*
X304380Y127658D01*
X338568Y167793D02*
Y163857D01*
X336601D01*
X335945Y164513D01*
Y165169D01*
X336601Y165825D01*
X338568D01*
X336601D01*
X335945Y166481D01*
Y167137D01*
X336601Y167793D01*
X338568D01*
X332665Y163857D02*
Y167793D01*
X334633Y165825D01*
X332009D01*
X330697Y167137D02*
X330041Y167793D01*
X328729D01*
X328073Y167137D01*
Y164513D01*
X328729Y163857D01*
X330041D01*
X330697Y164513D01*
Y167137D01*
X389662Y45892D02*
Y41956D01*
X387694D01*
X387038Y42612D01*
Y43268D01*
X387694Y43924D01*
X389662D01*
X387694D01*
X387038Y44580D01*
Y45236D01*
X387694Y45892D01*
X389662D01*
X385726Y45236D02*
X385070Y45892D01*
X383758D01*
X383102Y45236D01*
Y44580D01*
X383758Y43924D01*
X384414D01*
X383758D01*
X383102Y43268D01*
Y42612D01*
X383758Y41956D01*
X385070D01*
X385726Y42612D01*
X381790D02*
X381135Y41956D01*
X379823D01*
X379167Y42612D01*
Y45236D01*
X379823Y45892D01*
X381135D01*
X381790Y45236D01*
Y44580D01*
X381135Y43924D01*
X379167D01*
X389662Y88992D02*
Y85056D01*
X387694D01*
X387038Y85712D01*
Y86368D01*
X387694Y87024D01*
X389662D01*
X387694D01*
X387038Y87680D01*
Y88336D01*
X387694Y88992D01*
X389662D01*
X385726Y88336D02*
X385070Y88992D01*
X383758D01*
X383102Y88336D01*
Y87680D01*
X383758Y87024D01*
X384414D01*
X383758D01*
X383102Y86368D01*
Y85712D01*
X383758Y85056D01*
X385070D01*
X385726Y85712D01*
X381790Y88336D02*
X381135Y88992D01*
X379823D01*
X379167Y88336D01*
Y87680D01*
X379823Y87024D01*
X379167Y86368D01*
Y85712D01*
X379823Y85056D01*
X381135D01*
X381790Y85712D01*
Y86368D01*
X381135Y87024D01*
X381790Y87680D01*
Y88336D01*
X381135Y87024D02*
X379823D01*
X364964Y128392D02*
Y124456D01*
X362996D01*
X362340Y125112D01*
Y125768D01*
X362996Y126424D01*
X364964D01*
X362996D01*
X362340Y127080D01*
Y127736D01*
X362996Y128392D01*
X364964D01*
X361028Y127736D02*
X360372Y128392D01*
X359061D01*
X358405Y127736D01*
Y127080D01*
X359061Y126424D01*
X359717D01*
X359061D01*
X358405Y125768D01*
Y125112D01*
X359061Y124456D01*
X360372D01*
X361028Y125112D01*
X357093Y128392D02*
X354469D01*
Y127736D01*
X357093Y125112D01*
Y124456D01*
X389664Y167792D02*
Y163856D01*
X387696D01*
X387040Y164512D01*
Y165168D01*
X387696Y165824D01*
X389664D01*
X387696D01*
X387040Y166480D01*
Y167136D01*
X387696Y167792D01*
X389664D01*
X385728Y167136D02*
X385072Y167792D01*
X383760D01*
X383105Y167136D01*
Y166480D01*
X383760Y165824D01*
X384417D01*
X383760D01*
X383105Y165168D01*
Y164512D01*
X383760Y163856D01*
X385072D01*
X385728Y164512D01*
X379169Y167792D02*
X380481Y167136D01*
X381793Y165824D01*
Y164512D01*
X381137Y163856D01*
X379825D01*
X379169Y164512D01*
Y165168D01*
X379825Y165824D01*
X381793D01*
X441255Y88992D02*
Y85056D01*
X439288D01*
X438632Y85712D01*
Y86368D01*
X439288Y87024D01*
X441255D01*
X439288D01*
X438632Y87680D01*
Y88336D01*
X439288Y88992D01*
X441255D01*
X437320Y88336D02*
X436664Y88992D01*
X435352D01*
X434696Y88336D01*
Y87680D01*
X435352Y87024D01*
X436008D01*
X435352D01*
X434696Y86368D01*
Y85712D01*
X435352Y85056D01*
X436664D01*
X437320Y85712D01*
X430760Y88992D02*
X433384D01*
Y87024D01*
X432072Y87680D01*
X431416D01*
X430760Y87024D01*
Y85712D01*
X431416Y85056D01*
X432728D01*
X433384Y85712D01*
X416070Y128392D02*
Y124456D01*
X414102D01*
X413446Y125112D01*
Y125768D01*
X414102Y126424D01*
X416070D01*
X414102D01*
X413446Y127080D01*
Y127736D01*
X414102Y128392D01*
X416070D01*
X412134Y127736D02*
X411478Y128392D01*
X410166D01*
X409510Y127736D01*
Y127080D01*
X410166Y126424D01*
X410822D01*
X410166D01*
X409510Y125768D01*
Y125112D01*
X410166Y124456D01*
X411478D01*
X412134Y125112D01*
X406230Y124456D02*
Y128392D01*
X408198Y126424D01*
X405574D01*
X441264Y167792D02*
Y163856D01*
X439296D01*
X438640Y164512D01*
Y165168D01*
X439296Y165824D01*
X441264D01*
X439296D01*
X438640Y166480D01*
Y167136D01*
X439296Y167792D01*
X441264D01*
X437328Y167136D02*
X436672Y167792D01*
X435360D01*
X434705Y167136D01*
Y166480D01*
X435360Y165824D01*
X436017D01*
X435360D01*
X434705Y165168D01*
Y164512D01*
X435360Y163856D01*
X436672D01*
X437328Y164512D01*
X433393Y167136D02*
X432737Y167792D01*
X431425D01*
X430769Y167136D01*
Y166480D01*
X431425Y165824D01*
X432081D01*
X431425D01*
X430769Y165168D01*
Y164512D01*
X431425Y163856D01*
X432737D01*
X433393Y164512D01*
X492277Y88992D02*
Y85056D01*
X490309D01*
X489653Y85712D01*
Y86368D01*
X490309Y87024D01*
X492277D01*
X490309D01*
X489653Y87680D01*
Y88336D01*
X490309Y88992D01*
X492277D01*
X488341Y88336D02*
X487685Y88992D01*
X486374D01*
X485718Y88336D01*
Y87680D01*
X486374Y87024D01*
X487030D01*
X486374D01*
X485718Y86368D01*
Y85712D01*
X486374Y85056D01*
X487685D01*
X488341Y85712D01*
X481782Y85056D02*
X484406D01*
X481782Y87680D01*
Y88336D01*
X482438Y88992D01*
X483750D01*
X484406Y88336D01*
X465851Y128392D02*
Y124456D01*
X463883D01*
X463227Y125112D01*
Y125768D01*
X463883Y126424D01*
X465851D01*
X463883D01*
X463227Y127080D01*
Y127736D01*
X463883Y128392D01*
X465851D01*
X461915Y127736D02*
X461260Y128392D01*
X459948D01*
X459292Y127736D01*
Y127080D01*
X459948Y126424D01*
X460604D01*
X459948D01*
X459292Y125768D01*
Y125112D01*
X459948Y124456D01*
X461260D01*
X461915Y125112D01*
X457980Y124456D02*
X456668D01*
X457324D01*
Y128392D01*
X457980Y127736D01*
X492269Y167792D02*
Y163856D01*
X490301D01*
X489645Y164512D01*
Y165168D01*
X490301Y165824D01*
X492269D01*
X490301D01*
X489645Y166480D01*
Y167136D01*
X490301Y167792D01*
X492269D01*
X488333Y167136D02*
X487677Y167792D01*
X486365D01*
X485709Y167136D01*
Y166480D01*
X486365Y165824D01*
X487021D01*
X486365D01*
X485709Y165168D01*
Y164512D01*
X486365Y163856D01*
X487677D01*
X488333Y164512D01*
X484397Y167136D02*
X483741Y167792D01*
X482429D01*
X481773Y167136D01*
Y164512D01*
X482429Y163856D01*
X483741D01*
X484397Y164512D01*
Y167136D01*
X530951Y45814D02*
Y41878D01*
X528983D01*
X528327Y42534D01*
Y43190D01*
X528983Y43846D01*
X530951D01*
X528983D01*
X528327Y44502D01*
Y45158D01*
X528983Y45814D01*
X530951D01*
X524392Y41878D02*
X527015D01*
X524392Y44502D01*
Y45158D01*
X525048Y45814D01*
X526360D01*
X527015Y45158D01*
X523080Y41878D02*
X521768D01*
X522424D01*
Y45814D01*
X523080Y45158D01*
X543362Y88993D02*
Y85057D01*
X541394D01*
X540738Y85713D01*
Y86369D01*
X541394Y87025D01*
X543362D01*
X541394D01*
X540738Y87681D01*
Y88337D01*
X541394Y88993D01*
X543362D01*
X536802Y85057D02*
X539426D01*
X536802Y87681D01*
Y88337D01*
X537458Y88993D01*
X538770D01*
X539426Y88337D01*
X535490D02*
X534834Y88993D01*
X533523D01*
X532867Y88337D01*
Y87681D01*
X533523Y87025D01*
X532867Y86369D01*
Y85713D01*
X533523Y85057D01*
X534834D01*
X535490Y85713D01*
Y86369D01*
X534834Y87025D01*
X535490Y87681D01*
Y88337D01*
X534834Y87025D02*
X533523D01*
X518564Y128314D02*
Y124378D01*
X516596D01*
X515940Y125034D01*
Y125690D01*
X516596Y126346D01*
X518564D01*
X516596D01*
X515940Y127002D01*
Y127658D01*
X516596Y128314D01*
X518564D01*
X512005Y124378D02*
X514628D01*
X512005Y127002D01*
Y127658D01*
X512661Y128314D01*
X513972D01*
X514628Y127658D01*
X510693Y128314D02*
X508069D01*
Y127658D01*
X510693Y125034D01*
Y124378D01*
X543364Y167793D02*
Y163857D01*
X541396D01*
X540740Y164513D01*
Y165169D01*
X541396Y165825D01*
X543364D01*
X541396D01*
X540740Y166481D01*
Y167137D01*
X541396Y167793D01*
X543364D01*
X536805Y163857D02*
X539428D01*
X536805Y166481D01*
Y167137D01*
X537461Y167793D01*
X538772D01*
X539428Y167137D01*
X532869Y167793D02*
X534181Y167137D01*
X535493Y165825D01*
Y164513D01*
X534837Y163857D01*
X533525D01*
X532869Y164513D01*
Y165169D01*
X533525Y165825D01*
X535493D01*
X595855Y45893D02*
Y41958D01*
X593888D01*
X593232Y42613D01*
Y43269D01*
X593888Y43925D01*
X595855D01*
X593888D01*
X593232Y44581D01*
Y45237D01*
X593888Y45893D01*
X595855D01*
X589296Y41958D02*
X591920D01*
X589296Y44581D01*
Y45237D01*
X589952Y45893D01*
X591264D01*
X591920Y45237D01*
X585360Y45893D02*
X587984D01*
Y43925D01*
X586672Y44581D01*
X586016D01*
X585360Y43925D01*
Y42613D01*
X586016Y41958D01*
X587328D01*
X587984Y42613D01*
X595870Y88914D02*
Y84978D01*
X593902D01*
X593246Y85634D01*
Y86290D01*
X593902Y86946D01*
X595870D01*
X593902D01*
X593246Y87602D01*
Y88258D01*
X593902Y88914D01*
X595870D01*
X589310Y84978D02*
X591934D01*
X589310Y87602D01*
Y88258D01*
X589966Y88914D01*
X591278D01*
X591934Y88258D01*
X586030Y84978D02*
Y88914D01*
X587998Y86946D01*
X585374D01*
X569964Y128392D02*
Y124456D01*
X567996D01*
X567340Y125112D01*
Y125768D01*
X567996Y126424D01*
X569964D01*
X567996D01*
X567340Y127080D01*
Y127736D01*
X567996Y128392D01*
X569964D01*
X563405Y124456D02*
X566028D01*
X563405Y127080D01*
Y127736D01*
X564060Y128392D01*
X565372D01*
X566028Y127736D01*
X562093D02*
X561437Y128392D01*
X560125D01*
X559469Y127736D01*
Y127080D01*
X560125Y126424D01*
X560781D01*
X560125D01*
X559469Y125768D01*
Y125112D01*
X560125Y124456D01*
X561437D01*
X562093Y125112D01*
X595877Y167714D02*
Y163778D01*
X593909D01*
X593253Y164434D01*
Y165090D01*
X593909Y165746D01*
X595877D01*
X593909D01*
X593253Y166402D01*
Y167058D01*
X593909Y167714D01*
X595877D01*
X589318Y163778D02*
X591941D01*
X589318Y166402D01*
Y167058D01*
X589974Y167714D01*
X591286D01*
X591941Y167058D01*
X585382Y163778D02*
X588006D01*
X585382Y166402D01*
Y167058D01*
X586038Y167714D01*
X587350D01*
X588006Y167058D01*
X644169Y45893D02*
Y41958D01*
X642201D01*
X641545Y42613D01*
Y43269D01*
X642201Y43925D01*
X644169D01*
X642201D01*
X641545Y44581D01*
Y45237D01*
X642201Y45893D01*
X644169D01*
X637609Y41958D02*
X640233D01*
X637609Y44581D01*
Y45237D01*
X638265Y45893D01*
X639577D01*
X640233Y45237D01*
X636297D02*
X635641Y45893D01*
X634329D01*
X633673Y45237D01*
Y42613D01*
X634329Y41958D01*
X635641D01*
X636297Y42613D01*
Y45237D01*
X643834Y88993D02*
Y85057D01*
X641866D01*
X641210Y85713D01*
Y86369D01*
X641866Y87025D01*
X643834D01*
X641866D01*
X641210Y87681D01*
Y88337D01*
X641866Y88993D01*
X643834D01*
X639898Y85057D02*
X638586D01*
X639242D01*
Y88993D01*
X639898Y88337D01*
X636618Y85713D02*
X635962Y85057D01*
X634651D01*
X633995Y85713D01*
Y88337D01*
X634651Y88993D01*
X635962D01*
X636618Y88337D01*
Y87681D01*
X635962Y87025D01*
X633995D01*
X620434Y128393D02*
Y124457D01*
X618466D01*
X617810Y125113D01*
Y125769D01*
X618466Y126425D01*
X620434D01*
X618466D01*
X617810Y127081D01*
Y127737D01*
X618466Y128393D01*
X620434D01*
X616498Y124457D02*
X615186D01*
X615842D01*
Y128393D01*
X616498Y127737D01*
X613218D02*
X612563Y128393D01*
X611251D01*
X610595Y127737D01*
Y127081D01*
X611251Y126425D01*
X610595Y125769D01*
Y125113D01*
X611251Y124457D01*
X612563D01*
X613218Y125113D01*
Y125769D01*
X612563Y126425D01*
X613218Y127081D01*
Y127737D01*
X612563Y126425D02*
X611251D01*
X643836Y167714D02*
Y163778D01*
X641868D01*
X641212Y164434D01*
Y165090D01*
X641868Y165746D01*
X643836D01*
X641868D01*
X641212Y166402D01*
Y167058D01*
X641868Y167714D01*
X643836D01*
X639900Y163778D02*
X638588D01*
X639244D01*
Y167714D01*
X639900Y167058D01*
X636621Y167714D02*
X633997D01*
Y167058D01*
X636621Y164434D01*
Y163778D01*
X695136Y45893D02*
Y41958D01*
X693168D01*
X692512Y42613D01*
Y43269D01*
X693168Y43925D01*
X695136D01*
X693168D01*
X692512Y44581D01*
Y45237D01*
X693168Y45893D01*
X695136D01*
X691200Y41958D02*
X689888D01*
X690544D01*
Y45893D01*
X691200Y45237D01*
X685297Y45893D02*
X686609Y45237D01*
X687921Y43925D01*
Y42613D01*
X687265Y41958D01*
X685953D01*
X685297Y42613D01*
Y43269D01*
X685953Y43925D01*
X687921D01*
X696027Y88993D02*
Y85057D01*
X694060D01*
X693404Y85713D01*
Y86369D01*
X694060Y87025D01*
X696027D01*
X694060D01*
X693404Y87681D01*
Y88337D01*
X694060Y88993D01*
X696027D01*
X692092Y85057D02*
X690780D01*
X691436D01*
Y88993D01*
X692092Y88337D01*
X686188Y88993D02*
X688812D01*
Y87025D01*
X687500Y87681D01*
X686844D01*
X686188Y87025D01*
Y85713D01*
X686844Y85057D01*
X688156D01*
X688812Y85713D01*
X670042Y128308D02*
Y124372D01*
X668074D01*
X667418Y125028D01*
Y125684D01*
X668074Y126340D01*
X670042D01*
X668074D01*
X667418Y126996D01*
Y127652D01*
X668074Y128308D01*
X670042D01*
X666106Y124372D02*
X664794D01*
X665450D01*
Y128308D01*
X666106Y127652D01*
X660858Y124372D02*
Y128308D01*
X662826Y126340D01*
X660202D01*
X694836Y168092D02*
Y164156D01*
X692868D01*
X692212Y164812D01*
Y165468D01*
X692868Y166124D01*
X694836D01*
X692868D01*
X692212Y166780D01*
Y167436D01*
X692868Y168092D01*
X694836D01*
X690900Y164156D02*
X689588D01*
X690244D01*
Y168092D01*
X690900Y167436D01*
X687621D02*
X686965Y168092D01*
X685653D01*
X684997Y167436D01*
Y166780D01*
X685653Y166124D01*
X686309D01*
X685653D01*
X684997Y165468D01*
Y164812D01*
X685653Y164156D01*
X686965D01*
X687621Y164812D01*
X746649Y88914D02*
Y84978D01*
X744681D01*
X744025Y85634D01*
Y86290D01*
X744681Y86946D01*
X746649D01*
X744681D01*
X744025Y87602D01*
Y88258D01*
X744681Y88914D01*
X746649D01*
X742713Y84978D02*
X741402D01*
X742058D01*
Y88914D01*
X742713Y88258D01*
X736810Y84978D02*
X739434D01*
X736810Y87602D01*
Y88258D01*
X737466Y88914D01*
X738778D01*
X739434Y88258D01*
X720423Y128314D02*
Y124378D01*
X718455D01*
X717799Y125034D01*
Y125690D01*
X718455Y126346D01*
X720423D01*
X718455D01*
X717799Y127002D01*
Y127658D01*
X718455Y128314D01*
X720423D01*
X716488Y124378D02*
X715176D01*
X715832D01*
Y128314D01*
X716488Y127658D01*
X713208Y124378D02*
X711896D01*
X712552D01*
Y128314D01*
X713208Y127658D01*
X746640Y167793D02*
Y163857D01*
X744673D01*
X744017Y164513D01*
Y165169D01*
X744673Y165825D01*
X746640D01*
X744673D01*
X744017Y166481D01*
Y167137D01*
X744673Y167793D01*
X746640D01*
X742705Y163857D02*
X741393D01*
X742049D01*
Y167793D01*
X742705Y167137D01*
X739425D02*
X738769Y167793D01*
X737457D01*
X736801Y167137D01*
Y164513D01*
X737457Y163857D01*
X738769D01*
X739425Y164513D01*
Y167137D01*
X694471Y231093D02*
Y227157D01*
X692503D01*
X691847Y227813D01*
Y228469D01*
X692503Y229125D01*
X694471D01*
X692503D01*
X691847Y229781D01*
Y230437D01*
X692503Y231093D01*
X694471D01*
X690535Y227813D02*
X689879Y227157D01*
X688567D01*
X687911Y227813D01*
Y230437D01*
X688567Y231093D01*
X689879D01*
X690535Y230437D01*
Y229781D01*
X689879Y229125D01*
X687911D01*
X694471Y272593D02*
Y268657D01*
X692503D01*
X691847Y269313D01*
Y269969D01*
X692503Y270625D01*
X694471D01*
X692503D01*
X691847Y271281D01*
Y271937D01*
X692503Y272593D01*
X694471D01*
X690535Y271937D02*
X689879Y272593D01*
X688567D01*
X687911Y271937D01*
Y271281D01*
X688567Y270625D01*
X687911Y269969D01*
Y269313D01*
X688567Y268657D01*
X689879D01*
X690535Y269313D01*
Y269969D01*
X689879Y270625D01*
X690535Y271281D01*
Y271937D01*
X689879Y270625D02*
X688567D01*
X694473Y312509D02*
Y308574D01*
X692505D01*
X691849Y309230D01*
Y309886D01*
X692505Y310542D01*
X694473D01*
X692505D01*
X691849Y311198D01*
Y311854D01*
X692505Y312509D01*
X694473D01*
X690537D02*
X687913D01*
Y311854D01*
X690537Y309230D01*
Y308574D01*
X694473Y354393D02*
Y350458D01*
X692505D01*
X691849Y351113D01*
Y351769D01*
X692505Y352425D01*
X694473D01*
X692505D01*
X691849Y353081D01*
Y353737D01*
X692505Y354393D01*
X694473D01*
X687913D02*
X689225Y353737D01*
X690537Y352425D01*
Y351113D01*
X689881Y350458D01*
X688569D01*
X687913Y351113D01*
Y351769D01*
X688569Y352425D01*
X690537D01*
X694464Y403189D02*
Y399253D01*
X692496D01*
X691840Y399909D01*
Y400565D01*
X692496Y401221D01*
X694464D01*
X692496D01*
X691840Y401877D01*
Y402533D01*
X692496Y403189D01*
X694464D01*
X687905D02*
X690528D01*
Y401221D01*
X689217Y401877D01*
X688560D01*
X687905Y401221D01*
Y399909D01*
X688560Y399253D01*
X689873D01*
X690528Y399909D01*
X745978Y231010D02*
Y227074D01*
X744010D01*
X743355Y227730D01*
Y228386D01*
X744010Y229042D01*
X745978D01*
X744010D01*
X743355Y229698D01*
Y230354D01*
X744010Y231010D01*
X745978D01*
X740075Y227074D02*
Y231010D01*
X742043Y229042D01*
X739419D01*
X745973Y272592D02*
Y268656D01*
X744005D01*
X743349Y269312D01*
Y269968D01*
X744005Y270624D01*
X745973D01*
X744005D01*
X743349Y271280D01*
Y271936D01*
X744005Y272592D01*
X745973D01*
X742037Y271936D02*
X741381Y272592D01*
X740069D01*
X739413Y271936D01*
Y271280D01*
X740069Y270624D01*
X740725D01*
X740069D01*
X739413Y269968D01*
Y269312D01*
X740069Y268656D01*
X741381D01*
X742037Y269312D01*
X745986Y312514D02*
Y308578D01*
X744018D01*
X743362Y309234D01*
Y309890D01*
X744018Y310546D01*
X745986D01*
X744018D01*
X743362Y311202D01*
Y311858D01*
X744018Y312514D01*
X745986D01*
X739426Y308578D02*
X742050D01*
X739426Y311202D01*
Y311858D01*
X740082Y312514D01*
X741394D01*
X742050Y311858D01*
X745560Y354314D02*
Y350378D01*
X743592D01*
X742936Y351034D01*
Y351690D01*
X743592Y352346D01*
X745560D01*
X743592D01*
X742936Y353002D01*
Y353658D01*
X743592Y354314D01*
X745560D01*
X741624Y350378D02*
X740312D01*
X740968D01*
Y354314D01*
X741624Y353658D01*
M02*
