G04*
G04 #@! TF.GenerationSoftware,Altium Limited,Altium Designer,23.3.1 (30)*
G04*
G04 Layer_Color=65535*
%FSLAX25Y25*%
%MOIN*%
G70*
G04*
G04 #@! TF.SameCoordinates,65CDCF12-2861-4885-BE21-4D3676ECD45B*
G04*
G04*
G04 #@! TF.FilePolarity,Positive*
G04*
G01*
G75*
%ADD10C,0.00984*%
%ADD11C,0.00787*%
%ADD12C,0.01968*%
%ADD13C,0.00500*%
%ADD14C,0.01000*%
%ADD15C,0.00800*%
G36*
X396064Y150395D02*
X396698D01*
Y147227D01*
X397331D01*
Y144058D01*
X397965D01*
Y140890D01*
X398599D01*
Y138988D01*
X400500D01*
Y138355D01*
X401767D01*
Y137721D01*
X403669D01*
Y137087D01*
X404936D01*
Y136453D01*
X407471D01*
Y137087D01*
X408738D01*
Y137721D01*
X409372D01*
Y138355D01*
X410006D01*
Y138988D01*
X411273D01*
Y139622D01*
X411907D01*
Y140256D01*
X413174D01*
Y140890D01*
X413808D01*
Y141523D01*
X415076D01*
Y142157D01*
X415709D01*
Y142791D01*
X416343D01*
Y142157D01*
X416977D01*
Y141523D01*
X417611D01*
Y140890D01*
X418244D01*
Y140256D01*
X418878D01*
Y139622D01*
X419512D01*
Y138988D01*
X420145D01*
Y138355D01*
X420779D01*
Y137721D01*
X421413D01*
Y137087D01*
X422047D01*
Y136453D01*
X422680D01*
Y135820D01*
X423314D01*
Y135186D01*
X423948D01*
Y134552D01*
X424581D01*
Y133919D01*
X423948D01*
Y133285D01*
X423314D01*
Y132017D01*
X422680D01*
Y131384D01*
X422047D01*
Y130116D01*
X421413D01*
Y129483D01*
X420779D01*
Y128215D01*
X420145D01*
Y127581D01*
X419512D01*
Y126314D01*
X418878D01*
Y125680D01*
X418244D01*
Y123779D01*
X418878D01*
Y121878D01*
X419512D01*
Y121244D01*
Y120610D01*
X420145D01*
Y119343D01*
X420779D01*
Y117442D01*
X421413D01*
Y116808D01*
X422047D01*
Y116174D01*
X425849D01*
Y115541D01*
X429017D01*
Y114907D01*
X432186D01*
Y114273D01*
X432820D01*
Y102866D01*
X432186D01*
Y102233D01*
X429017D01*
Y101599D01*
X425849D01*
Y100965D01*
X422680D01*
Y100331D01*
X421413D01*
Y98430D01*
X420779D01*
Y97163D01*
X420145D01*
Y95262D01*
X419512D01*
Y93994D01*
X418878D01*
Y90826D01*
X419512D01*
Y89558D01*
X420145D01*
Y88924D01*
X420779D01*
Y87657D01*
X421413D01*
Y87023D01*
X422047D01*
Y85756D01*
X422680D01*
Y85122D01*
X423314D01*
Y83855D01*
X423948D01*
Y83221D01*
X424581D01*
Y82587D01*
X423948D01*
Y81954D01*
X423314D01*
Y81320D01*
X422680D01*
Y80686D01*
X422047D01*
Y80052D01*
X421413D01*
Y79419D01*
X420779D01*
Y78785D01*
X420145D01*
Y78151D01*
X419512D01*
Y77517D01*
X418878D01*
Y76884D01*
X418244D01*
Y76250D01*
X417611D01*
Y75616D01*
X416977D01*
Y74983D01*
X416343D01*
Y74349D01*
X415709D01*
Y74983D01*
X415076D01*
Y75616D01*
X413808D01*
Y76250D01*
X413174D01*
Y76884D01*
X411907D01*
Y77517D01*
X411273D01*
Y78151D01*
X410006D01*
Y78785D01*
X409372D01*
Y79419D01*
X408105D01*
Y80052D01*
X406204D01*
Y79419D01*
X404936D01*
Y78785D01*
X403669D01*
Y78151D01*
X402401D01*
Y79419D01*
X401767D01*
Y81320D01*
X401134D01*
Y82587D01*
X400500D01*
Y84488D01*
X399866D01*
Y85756D01*
X399233D01*
Y87023D01*
X398599D01*
Y88924D01*
X397965D01*
Y90192D01*
X397331D01*
Y92093D01*
X396698D01*
Y93361D01*
X396064D01*
Y94628D01*
X395430D01*
Y96529D01*
X394796D01*
Y97163D01*
X395430D01*
Y97796D01*
X396064D01*
Y98430D01*
X396698D01*
Y99064D01*
X397965D01*
Y99698D01*
X398599D01*
Y100331D01*
X399233D01*
Y100965D01*
X399866D01*
Y102233D01*
X400500D01*
Y103500D01*
X401134D01*
Y104767D01*
X401767D01*
Y107936D01*
X402401D01*
Y108570D01*
X401767D01*
Y112372D01*
X401134D01*
Y113639D01*
X400500D01*
Y114907D01*
X399866D01*
Y115541D01*
X399233D01*
Y116808D01*
X398599D01*
Y117442D01*
X397331D01*
Y118076D01*
X396698D01*
Y118709D01*
X395430D01*
Y119343D01*
X393529D01*
Y119977D01*
X387192D01*
Y119343D01*
X385291D01*
Y118709D01*
X384023D01*
Y118076D01*
X383389D01*
Y117442D01*
X382756D01*
Y116808D01*
X382122D01*
Y116174D01*
X381488D01*
Y115541D01*
X380855D01*
Y114907D01*
X380221D01*
Y113639D01*
X379587D01*
Y111738D01*
X378954D01*
Y104767D01*
X379587D01*
Y103500D01*
X380221D01*
Y102233D01*
X380855D01*
Y101599D01*
X381488D01*
Y100331D01*
X382122D01*
Y99698D01*
X383389D01*
Y99064D01*
X384023D01*
Y98430D01*
X384657D01*
Y97796D01*
X385924D01*
Y95895D01*
X385291D01*
Y94628D01*
X384657D01*
Y93361D01*
X384023D01*
Y91459D01*
X383389D01*
Y90192D01*
X382756D01*
Y88291D01*
X382122D01*
Y87023D01*
X381488D01*
Y85122D01*
X380855D01*
Y83855D01*
X380221D01*
Y82587D01*
X379587D01*
Y80686D01*
X378954D01*
Y79419D01*
X378320D01*
Y78151D01*
X377052D01*
Y78785D01*
X376419D01*
Y79419D01*
X375151D01*
Y80052D01*
X372616D01*
Y79419D01*
X371349D01*
Y78785D01*
X370715D01*
Y78151D01*
X369448D01*
Y77517D01*
X368814D01*
Y76884D01*
X367547D01*
Y76250D01*
X366913D01*
Y75616D01*
X366279D01*
Y74983D01*
X365012D01*
Y74349D01*
X364378D01*
Y74983D01*
X363744D01*
Y75616D01*
X363110D01*
Y76250D01*
X362477D01*
Y76884D01*
X361843D01*
Y77517D01*
X361209D01*
Y78151D01*
X360576D01*
Y78785D01*
X359942D01*
Y79419D01*
X359308D01*
Y80052D01*
X358674D01*
Y80686D01*
X358041D01*
Y81320D01*
X357407D01*
Y81954D01*
X356773D01*
Y83855D01*
X357407D01*
Y85122D01*
X358041D01*
Y85756D01*
X358674D01*
Y87023D01*
X359308D01*
Y87657D01*
X359942D01*
Y88291D01*
X360576D01*
Y89558D01*
X361209D01*
Y90192D01*
X361843D01*
Y91459D01*
X362477D01*
Y92727D01*
X361843D01*
Y93994D01*
X361209D01*
Y95895D01*
X360576D01*
Y97163D01*
X359942D01*
Y99064D01*
X359308D01*
Y100331D01*
X358674D01*
Y100965D01*
X354872D01*
Y101599D01*
X351704D01*
Y102233D01*
X348535D01*
Y102866D01*
X347901D01*
Y114273D01*
X348535D01*
Y114907D01*
X351704D01*
Y115541D01*
X355506D01*
Y116174D01*
X358674D01*
Y116808D01*
X359308D01*
Y117442D01*
X359942D01*
Y118709D01*
X360576D01*
Y120610D01*
X361209D01*
Y121878D01*
X361843D01*
Y123145D01*
X362477D01*
Y125680D01*
X361843D01*
Y126948D01*
X361209D01*
Y127581D01*
X360576D01*
Y128849D01*
X359942D01*
Y129483D01*
X359308D01*
Y130116D01*
X358674D01*
Y131384D01*
X358041D01*
Y132017D01*
X357407D01*
Y133285D01*
X356773D01*
Y135186D01*
X357407D01*
Y135820D01*
X358041D01*
Y136453D01*
X358674D01*
Y137087D01*
X359308D01*
Y137721D01*
X359942D01*
Y138355D01*
X360576D01*
Y138988D01*
X361209D01*
Y139622D01*
X361843D01*
Y140256D01*
X362477D01*
Y140890D01*
X363110D01*
Y141523D01*
X363744D01*
Y142157D01*
X364378D01*
Y142791D01*
X365012D01*
Y142157D01*
X365645D01*
Y141523D01*
X366913D01*
Y140890D01*
X367547D01*
Y140256D01*
X368814D01*
Y139622D01*
X369448D01*
Y138988D01*
X370715D01*
Y138355D01*
X371349D01*
Y137721D01*
X372616D01*
Y137087D01*
X373250D01*
Y136453D01*
X375785D01*
Y137087D01*
X377686D01*
Y137721D01*
X378954D01*
Y138355D01*
X380855D01*
Y138988D01*
X382122D01*
Y140256D01*
X382756D01*
Y143424D01*
X383389D01*
Y146593D01*
X384023D01*
Y150395D01*
X384657D01*
Y151029D01*
X396064D01*
Y150395D01*
D02*
G37*
G36*
X424581Y65477D02*
X425849D01*
Y64209D01*
X425215D01*
Y63576D01*
X424581D01*
Y62942D01*
X423948D01*
Y63576D01*
X422047D01*
Y62942D01*
X421413D01*
Y62308D01*
X420779D01*
Y54070D01*
X418244D01*
Y66110D01*
X420779D01*
Y64843D01*
X421413D01*
Y65477D01*
X422680D01*
Y66110D01*
X424581D01*
Y65477D01*
D02*
G37*
G36*
X375785D02*
X377052D01*
Y64843D01*
X377686D01*
Y63576D01*
X378320D01*
Y58506D01*
Y57872D01*
Y54070D01*
X375785D01*
Y62308D01*
X375151D01*
Y62942D01*
X374517D01*
Y63576D01*
X372616D01*
Y62942D01*
X371983D01*
Y61674D01*
X371349D01*
Y54070D01*
X369448D01*
Y54703D01*
X368814D01*
Y65477D01*
X369448D01*
Y66110D01*
X371349D01*
Y64843D01*
X371983D01*
Y65477D01*
X373250D01*
Y66110D01*
X375785D01*
Y65477D01*
D02*
G37*
G36*
X353605D02*
X354872D01*
Y64843D01*
X355506D01*
Y64209D01*
X356139D01*
Y55971D01*
X355506D01*
Y55337D01*
X354872D01*
Y54703D01*
X353605D01*
Y54070D01*
X351070D01*
Y54703D01*
X349802D01*
Y47099D01*
X350436D01*
Y47733D01*
X354238D01*
Y47099D01*
X355506D01*
Y45831D01*
X356139D01*
Y36326D01*
X353605D01*
Y45198D01*
X350436D01*
Y44564D01*
X349802D01*
Y36326D01*
X347268D01*
Y66110D01*
X349169D01*
Y65477D01*
X349802D01*
Y64843D01*
X350436D01*
Y65477D01*
X351704D01*
Y66110D01*
X353605D01*
Y65477D01*
D02*
G37*
G36*
X390360D02*
X392895D01*
Y64843D01*
X393529D01*
Y63576D01*
X392895D01*
Y62942D01*
X390994D01*
Y63576D01*
X387826D01*
Y61674D01*
X389727D01*
Y61041D01*
X392895D01*
Y60407D01*
X393529D01*
Y59140D01*
X394163D01*
Y55971D01*
X393529D01*
Y55337D01*
X392895D01*
Y54703D01*
X391628D01*
Y54070D01*
X387826D01*
Y54703D01*
X385924D01*
Y55337D01*
X385291D01*
Y55971D01*
X384657D01*
Y57238D01*
X385291D01*
Y57872D01*
X386558D01*
Y57238D01*
X387826D01*
Y56605D01*
X390994D01*
Y57238D01*
X391628D01*
Y58506D01*
X390360D01*
Y59140D01*
X387192D01*
Y59773D01*
X385924D01*
Y60407D01*
X385291D01*
Y64209D01*
X385924D01*
Y64843D01*
X386558D01*
Y65477D01*
X387826D01*
Y66110D01*
X390360D01*
Y65477D01*
D02*
G37*
G36*
X432186D02*
X433454D01*
Y64843D01*
X434087D01*
Y64209D01*
X434721D01*
Y63576D01*
X434087D01*
Y62942D01*
X433454D01*
Y62308D01*
X432820D01*
Y62942D01*
X431552D01*
Y63576D01*
X429651D01*
Y62942D01*
X429017D01*
Y62308D01*
X428384D01*
Y57872D01*
X429017D01*
Y57238D01*
X429651D01*
Y56605D01*
X432186D01*
Y57238D01*
X432820D01*
Y57872D01*
X433454D01*
Y57238D01*
X434087D01*
Y56605D01*
X434721D01*
Y55337D01*
X433454D01*
Y54703D01*
X432186D01*
Y54070D01*
X429017D01*
Y54703D01*
X427750D01*
Y55337D01*
X427116D01*
Y55971D01*
X426483D01*
Y57238D01*
X425849D01*
Y62942D01*
X426483D01*
Y64209D01*
X427116D01*
Y64843D01*
X428384D01*
Y65477D01*
X429651D01*
Y66110D01*
X432186D01*
Y65477D01*
D02*
G37*
G36*
X415709Y59140D02*
Y58506D01*
Y54070D01*
X413808D01*
Y54703D01*
X411907D01*
Y54070D01*
X409372D01*
Y54703D01*
X408105D01*
Y55337D01*
X407471D01*
Y55971D01*
X406837D01*
Y66110D01*
X408738D01*
Y65477D01*
X409372D01*
Y57238D01*
X410006D01*
Y56605D01*
X412541D01*
Y57238D01*
X413174D01*
Y65477D01*
X413808D01*
Y66110D01*
X415709D01*
Y59140D01*
D02*
G37*
G36*
X441058Y65477D02*
X442959D01*
Y64843D01*
X443593D01*
Y64209D01*
X444227D01*
Y62942D01*
X444861D01*
Y59140D01*
X437889D01*
Y57872D01*
X438523D01*
Y57238D01*
X439157D01*
Y56605D01*
X441692D01*
Y57238D01*
X443593D01*
Y56605D01*
X444861D01*
Y55971D01*
X444227D01*
Y55337D01*
X443593D01*
Y54703D01*
X442326D01*
Y54070D01*
X438523D01*
Y54703D01*
X437889D01*
Y55337D01*
X436622D01*
Y56605D01*
X435988D01*
Y57872D01*
X435355D01*
Y62308D01*
X435988D01*
Y63576D01*
X436622D01*
Y64843D01*
X437889D01*
Y65477D01*
X439157D01*
Y66110D01*
X441058D01*
Y65477D01*
D02*
G37*
G36*
X401767D02*
X403035D01*
Y64843D01*
X403669D01*
Y64209D01*
X404302D01*
Y62942D01*
X404936D01*
Y57238D01*
X404302D01*
Y55971D01*
X403669D01*
Y55337D01*
X403035D01*
Y54703D01*
X401767D01*
Y54070D01*
X398599D01*
Y54703D01*
X397331D01*
Y55337D01*
X396698D01*
Y55971D01*
X396064D01*
Y57238D01*
X395430D01*
Y62942D01*
X396064D01*
Y64209D01*
X396698D01*
Y64843D01*
X397331D01*
Y65477D01*
X398599D01*
Y66110D01*
X401767D01*
Y65477D01*
D02*
G37*
G36*
X363744D02*
X365012D01*
Y64843D01*
X365645D01*
Y64209D01*
X366279D01*
Y63576D01*
X366913D01*
Y61674D01*
X367547D01*
Y59140D01*
X360576D01*
Y57238D01*
X361209D01*
Y56605D01*
X364378D01*
Y57238D01*
X366279D01*
Y56605D01*
X366913D01*
Y55337D01*
X365645D01*
Y54703D01*
X364378D01*
Y54070D01*
X361209D01*
Y54703D01*
X359942D01*
Y55337D01*
X359308D01*
Y55971D01*
X358674D01*
Y56605D01*
X358041D01*
Y63576D01*
X358674D01*
Y64209D01*
X359308D01*
Y64843D01*
X359942D01*
Y65477D01*
X361209D01*
Y66110D01*
X363744D01*
Y65477D01*
D02*
G37*
G36*
X342198D02*
X343465D01*
Y64843D01*
X344099D01*
Y64209D01*
X344733D01*
Y62942D01*
X345366D01*
Y57238D01*
X344733D01*
Y55971D01*
X344099D01*
Y55337D01*
X343465D01*
Y54703D01*
X342198D01*
Y54070D01*
X339029D01*
Y54703D01*
X337762D01*
Y55337D01*
X337128D01*
Y55971D01*
X336494D01*
Y57238D01*
X335860D01*
Y62942D01*
X336494D01*
Y64209D01*
X337128D01*
Y64843D01*
X337762D01*
Y65477D01*
X339029D01*
Y66110D01*
X342198D01*
Y65477D01*
D02*
G37*
G36*
X422680Y47099D02*
X423314D01*
Y46465D01*
X422680D01*
Y45831D01*
X422047D01*
Y45198D01*
X418244D01*
Y43297D01*
X417611D01*
Y36326D01*
X415076D01*
Y47733D01*
X417611D01*
Y47099D01*
X418878D01*
Y47733D01*
X422680D01*
Y47099D01*
D02*
G37*
G36*
X385924Y52169D02*
X386558D01*
Y36326D01*
X384023D01*
Y36959D01*
X382756D01*
Y36326D01*
X379587D01*
Y36959D01*
X378320D01*
Y37593D01*
X377686D01*
Y38860D01*
X377052D01*
Y45198D01*
X377686D01*
Y46465D01*
X378320D01*
Y47099D01*
X378954D01*
Y47733D01*
X382756D01*
Y47099D01*
X384023D01*
Y52802D01*
X385924D01*
Y52169D01*
D02*
G37*
G36*
X377052Y46465D02*
X376419D01*
Y45831D01*
X375785D01*
Y45198D01*
X372616D01*
Y44564D01*
X371983D01*
Y36326D01*
X369448D01*
Y44564D01*
Y45198D01*
Y47733D01*
X371983D01*
Y47099D01*
X372616D01*
Y47733D01*
X377052D01*
Y46465D01*
D02*
G37*
G36*
X403669D02*
X403035D01*
Y45831D01*
Y44564D01*
X402401D01*
Y42663D01*
X401767D01*
Y40128D01*
X401134D01*
Y38227D01*
X400500D01*
Y36326D01*
X397965D01*
Y37593D01*
X397331D01*
Y39494D01*
X396698D01*
Y41395D01*
X396064D01*
Y43930D01*
X395430D01*
Y42663D01*
X394796D01*
Y40128D01*
X394163D01*
Y38227D01*
X393529D01*
Y36326D01*
X390994D01*
Y37593D01*
X390360D01*
Y39494D01*
X389727D01*
Y41395D01*
X389093D01*
Y43930D01*
X388459D01*
Y45831D01*
X387826D01*
Y47733D01*
X390360D01*
Y45831D01*
X390994D01*
Y43297D01*
X391628D01*
Y41395D01*
X392895D01*
Y43297D01*
X393529D01*
Y45198D01*
X394163D01*
Y47099D01*
X394796D01*
Y47733D01*
X396698D01*
Y46465D01*
X397331D01*
Y44564D01*
X397965D01*
Y42663D01*
X398599D01*
Y40762D01*
X399233D01*
Y42029D01*
X399866D01*
Y44564D01*
X400500D01*
Y46465D01*
X401134D01*
Y47733D01*
X403669D01*
Y46465D01*
D02*
G37*
G36*
X430285Y47099D02*
X430919D01*
Y46465D01*
X431552D01*
Y45831D01*
X432186D01*
Y43930D01*
X432820D01*
Y41395D01*
X425849D01*
Y40128D01*
Y39494D01*
X426483D01*
Y38860D01*
X430285D01*
Y39494D01*
X431552D01*
Y38860D01*
X432186D01*
Y37593D01*
X431552D01*
Y36959D01*
X430285D01*
Y36326D01*
X425849D01*
Y36959D01*
X425215D01*
Y37593D01*
X424581D01*
Y38227D01*
X423948D01*
Y38860D01*
X423314D01*
Y45198D01*
X423948D01*
Y46465D01*
X424581D01*
Y47099D01*
X425849D01*
Y47733D01*
X430285D01*
Y47099D01*
D02*
G37*
G36*
X411273D02*
X411907D01*
Y46465D01*
X412541D01*
Y45831D01*
X413174D01*
Y36326D01*
X410639D01*
Y36959D01*
X410006D01*
Y36326D01*
X405570D01*
Y36959D01*
X404936D01*
Y37593D01*
X404302D01*
Y38860D01*
X403669D01*
Y40762D01*
X404302D01*
Y42029D01*
X404936D01*
Y42663D01*
X406204D01*
Y43297D01*
X410639D01*
Y45198D01*
X409372D01*
Y45831D01*
X407471D01*
Y45198D01*
X404936D01*
Y45831D01*
X404302D01*
Y46465D01*
X404936D01*
Y47099D01*
X405570D01*
Y47733D01*
X411273D01*
Y47099D01*
D02*
G37*
G36*
X365012D02*
X366279D01*
Y46465D01*
X366913D01*
Y43297D01*
Y42663D01*
Y36326D01*
X364378D01*
Y36959D01*
X363744D01*
Y36326D01*
X359942D01*
Y36959D01*
X358674D01*
Y38227D01*
X358041D01*
Y41395D01*
X358674D01*
Y42029D01*
X359308D01*
Y42663D01*
X359942D01*
Y43297D01*
X364378D01*
Y45198D01*
X363744D01*
Y45831D01*
X361843D01*
Y45198D01*
X359308D01*
Y45831D01*
X358674D01*
Y47099D01*
X359942D01*
Y47733D01*
X365012D01*
Y47099D01*
D02*
G37*
%LPC*%
G36*
X394163Y148494D02*
X386558D01*
Y146593D01*
X385924D01*
Y142791D01*
X385291D01*
Y139622D01*
X384657D01*
Y137721D01*
X384023D01*
Y137087D01*
X383389D01*
Y136453D01*
X381488D01*
Y135820D01*
X380221D01*
Y135186D01*
X378320D01*
Y134552D01*
X377052D01*
Y133919D01*
X375151D01*
Y133285D01*
X373250D01*
Y133919D01*
X371983D01*
Y134552D01*
X371349D01*
Y135186D01*
X370715D01*
Y135820D01*
X369448D01*
Y136453D01*
X368814D01*
Y137087D01*
X367547D01*
Y137721D01*
X366913D01*
Y138355D01*
X365645D01*
Y138988D01*
X364378D01*
Y138355D01*
X363744D01*
Y137721D01*
X363110D01*
Y137087D01*
X362477D01*
Y136453D01*
X361843D01*
Y135820D01*
X361209D01*
Y135186D01*
X360576D01*
Y134552D01*
X359942D01*
Y133919D01*
X359308D01*
Y133285D01*
X359942D01*
Y132651D01*
X360576D01*
Y132017D01*
X361209D01*
Y130750D01*
X361843D01*
Y130116D01*
X362477D01*
Y128849D01*
X363110D01*
Y128215D01*
X363744D01*
Y126948D01*
X364378D01*
Y126314D01*
X365012D01*
Y122512D01*
X364378D01*
Y121244D01*
X363744D01*
Y119343D01*
X363110D01*
Y118076D01*
X362477D01*
Y116808D01*
X361843D01*
Y115541D01*
X361209D01*
Y114907D01*
X360576D01*
Y114273D01*
X359942D01*
Y113639D01*
X356773D01*
Y113006D01*
X353605D01*
Y112372D01*
X350436D01*
Y104134D01*
X354238D01*
Y103500D01*
X357407D01*
Y102866D01*
X359942D01*
Y102233D01*
X360576D01*
Y101599D01*
X361209D01*
Y100965D01*
X361843D01*
Y99064D01*
X362477D01*
Y97796D01*
X363110D01*
Y95895D01*
X363744D01*
Y94628D01*
X364378D01*
Y92727D01*
X365012D01*
Y90826D01*
X364378D01*
Y89558D01*
X363744D01*
Y88291D01*
X363110D01*
Y87657D01*
X362477D01*
Y86389D01*
X361843D01*
Y85756D01*
X361209D01*
Y85122D01*
X360576D01*
Y83855D01*
X359942D01*
Y83221D01*
X359308D01*
Y82587D01*
X359942D01*
Y81954D01*
X360576D01*
Y81320D01*
X361209D01*
Y80686D01*
X361843D01*
Y80052D01*
X362477D01*
Y79419D01*
X363110D01*
Y78785D01*
X363744D01*
Y78151D01*
X364378D01*
Y77517D01*
X365645D01*
Y78151D01*
X366913D01*
Y78785D01*
X367547D01*
Y79419D01*
X368180D01*
Y80052D01*
X369448D01*
Y80686D01*
X370081D01*
Y81320D01*
X371349D01*
Y81954D01*
X371983D01*
Y82587D01*
X375151D01*
Y81954D01*
X376419D01*
Y81320D01*
X377052D01*
Y82587D01*
X377686D01*
Y83855D01*
X378320D01*
Y85756D01*
X378954D01*
Y87023D01*
X379587D01*
Y88924D01*
X380221D01*
Y90192D01*
X380855D01*
Y91459D01*
X381488D01*
Y93361D01*
X382122D01*
Y94628D01*
X382756D01*
Y96529D01*
X382122D01*
Y97163D01*
X381488D01*
Y97796D01*
X380221D01*
Y98430D01*
X379587D01*
Y99698D01*
X378954D01*
Y100331D01*
X378320D01*
Y101599D01*
X377686D01*
Y102866D01*
X377052D01*
Y104134D01*
X376419D01*
Y111738D01*
X377052D01*
Y113639D01*
X377686D01*
Y114907D01*
X378320D01*
Y116174D01*
X378954D01*
Y116808D01*
X379587D01*
Y117442D01*
X380221D01*
Y118709D01*
X381488D01*
Y119343D01*
X382122D01*
Y119977D01*
X382756D01*
Y120610D01*
X384023D01*
Y121244D01*
X385291D01*
Y121878D01*
X387826D01*
Y122512D01*
X393529D01*
Y121878D01*
X395430D01*
Y121244D01*
X396698D01*
Y120610D01*
X397965D01*
Y119977D01*
X398599D01*
Y119343D01*
X399866D01*
Y118709D01*
X400500D01*
Y118076D01*
X401134D01*
Y116808D01*
X401767D01*
Y116174D01*
X402401D01*
Y115541D01*
X403035D01*
Y114273D01*
X403669D01*
Y112372D01*
X404302D01*
Y108570D01*
X404936D01*
Y107936D01*
X404302D01*
Y104134D01*
X403669D01*
Y102233D01*
X403035D01*
Y100965D01*
X402401D01*
Y100331D01*
X401767D01*
Y99064D01*
X401134D01*
Y98430D01*
X400500D01*
Y97796D01*
X399866D01*
Y97163D01*
X398599D01*
Y96529D01*
X397965D01*
Y95262D01*
X398599D01*
Y93361D01*
X399233D01*
Y92093D01*
X399866D01*
Y90826D01*
X400500D01*
Y88924D01*
X401134D01*
Y87657D01*
X401767D01*
Y85756D01*
X402401D01*
Y84488D01*
X403035D01*
Y82587D01*
X403669D01*
Y81320D01*
X404302D01*
Y81954D01*
X405570D01*
Y82587D01*
X408738D01*
Y81954D01*
X409372D01*
Y81320D01*
X410639D01*
Y80686D01*
X411273D01*
Y80052D01*
X412541D01*
Y79419D01*
X413174D01*
Y78785D01*
X414442D01*
Y78151D01*
X415076D01*
Y77517D01*
X416343D01*
Y78151D01*
X416977D01*
Y78785D01*
X417611D01*
Y79419D01*
X418244D01*
Y80052D01*
X418878D01*
Y80686D01*
X419512D01*
Y81320D01*
X420145D01*
Y81954D01*
X420779D01*
Y82587D01*
X421413D01*
Y83221D01*
X420779D01*
Y83855D01*
X420145D01*
Y85122D01*
X419512D01*
Y85756D01*
X418878D01*
Y87023D01*
X418244D01*
Y87657D01*
X417611D01*
Y88924D01*
X416977D01*
Y89558D01*
X416343D01*
Y90826D01*
X415709D01*
Y92093D01*
X416343D01*
Y93994D01*
X416977D01*
Y95895D01*
X417611D01*
Y97163D01*
X418244D01*
Y99064D01*
X418878D01*
Y100331D01*
X419512D01*
Y101599D01*
X420145D01*
Y102233D01*
X420779D01*
Y102866D01*
X423314D01*
Y103500D01*
X427116D01*
Y104134D01*
X430285D01*
Y112372D01*
X427116D01*
Y113006D01*
X423948D01*
Y113639D01*
X420779D01*
Y114273D01*
X420145D01*
Y114907D01*
X419512D01*
Y115541D01*
X418878D01*
Y116808D01*
X418244D01*
Y118709D01*
X417611D01*
Y119977D01*
X416977D01*
Y121244D01*
X416343D01*
Y123145D01*
X415709D01*
Y125680D01*
X416343D01*
Y126948D01*
X416977D01*
Y127581D01*
X417611D01*
Y128849D01*
X418244D01*
Y129483D01*
X418878D01*
Y130750D01*
X419512D01*
Y131384D01*
X420145D01*
Y132651D01*
X420779D01*
Y133285D01*
X421413D01*
Y133919D01*
X420779D01*
Y134552D01*
X420145D01*
Y135186D01*
X419512D01*
Y135820D01*
X418878D01*
Y136453D01*
X418244D01*
Y137087D01*
X417611D01*
Y137721D01*
X416977D01*
Y138355D01*
X416343D01*
Y138988D01*
X415076D01*
Y138355D01*
X413808D01*
Y137721D01*
X413174D01*
Y137087D01*
X412541D01*
Y136453D01*
X411273D01*
Y135820D01*
X410639D01*
Y135186D01*
X409372D01*
Y134552D01*
X408738D01*
Y133919D01*
X407471D01*
Y133285D01*
X405570D01*
Y133919D01*
X403669D01*
Y134552D01*
X402401D01*
Y135186D01*
X400500D01*
Y135820D01*
X399233D01*
Y136453D01*
X397965D01*
Y137087D01*
X396698D01*
Y138355D01*
X396064D01*
Y140256D01*
X395430D01*
Y143424D01*
X394796D01*
Y147227D01*
X394163D01*
Y148494D01*
D02*
G37*
G36*
X352971Y63576D02*
X351070D01*
Y62942D01*
X349802D01*
Y57238D01*
X350436D01*
Y56605D01*
X352971D01*
Y57238D01*
X353605D01*
Y62942D01*
X352971D01*
Y63576D01*
D02*
G37*
G36*
X441692D02*
X439157D01*
Y62942D01*
X438523D01*
Y62308D01*
X437889D01*
Y61674D01*
Y61041D01*
X442326D01*
Y62942D01*
X441692D01*
Y63576D01*
D02*
G37*
G36*
X401134D02*
X399233D01*
Y62942D01*
X398599D01*
Y62308D01*
X397965D01*
Y61674D01*
Y61041D01*
Y57872D01*
X398599D01*
Y57238D01*
X399233D01*
Y56605D01*
X401134D01*
Y57238D01*
X401767D01*
Y57872D01*
X402401D01*
Y62308D01*
X401767D01*
Y62942D01*
X401134D01*
Y63576D01*
D02*
G37*
G36*
X363744D02*
X361209D01*
Y62942D01*
X360576D01*
Y61041D01*
X364378D01*
Y62942D01*
X363744D01*
Y63576D01*
D02*
G37*
G36*
X341564D02*
X339663D01*
Y62942D01*
X339029D01*
Y62308D01*
X338395D01*
Y57872D01*
X339029D01*
Y57238D01*
X339663D01*
Y56605D01*
X341564D01*
Y57238D01*
X342198D01*
Y57872D01*
X342831D01*
Y62308D01*
X342198D01*
Y62942D01*
X341564D01*
Y63576D01*
D02*
G37*
G36*
X383389Y45198D02*
X380221D01*
Y43930D01*
X379587D01*
Y40128D01*
X380221D01*
Y38860D01*
X383389D01*
Y40128D01*
X384023D01*
Y42663D01*
Y43297D01*
Y43930D01*
X383389D01*
Y45198D01*
D02*
G37*
G36*
X428384Y45831D02*
X427116D01*
Y45198D01*
X426483D01*
Y44564D01*
X425849D01*
Y43297D01*
X430285D01*
Y43930D01*
X429651D01*
Y45198D01*
X428384D01*
Y45831D01*
D02*
G37*
G36*
X410639Y41395D02*
X407471D01*
Y40762D01*
X406204D01*
Y38860D01*
X410639D01*
Y41395D01*
D02*
G37*
G36*
X364378D02*
X361843D01*
Y40762D01*
X360576D01*
Y40128D01*
X359942D01*
Y39494D01*
X360576D01*
Y38860D01*
X364378D01*
Y41395D01*
D02*
G37*
%LPD*%
D10*
X185512Y353563D02*
G03*
X185512Y353563I-492J0D01*
G01*
X144910Y223327D02*
G03*
X144910Y223327I-492J0D01*
G01*
X696019Y413268D02*
G03*
X696019Y413268I-492J0D01*
G01*
X122579Y324941D02*
G03*
X122579Y324941I-492J0D01*
G01*
X640256Y385500D02*
G03*
X640256Y385500I-492J0D01*
G01*
X647539Y355165D02*
G03*
X647539Y355165I-492J0D01*
G01*
X671681Y328689D02*
G03*
X671681Y328689I-492J0D01*
G01*
X685091Y293315D02*
G03*
X685091Y293315I-492J0D01*
G01*
X170473Y373937D02*
G03*
X170473Y373937I-492J0D01*
G01*
X190472D02*
G03*
X190472Y373937I-492J0D01*
G01*
X210472D02*
G03*
X210472Y373937I-492J0D01*
G01*
X110473D02*
G03*
X110473Y373937I-492J0D01*
G01*
X150472D02*
G03*
X150472Y373937I-492J0D01*
G01*
X85512Y353563D02*
G03*
X85512Y353563I-492J0D01*
G01*
X130473Y373937D02*
G03*
X130473Y373937I-492J0D01*
G01*
X105512Y353563D02*
G03*
X105512Y353563I-492J0D01*
G01*
X300202Y330943D02*
G03*
X300202Y330943I-492J0D01*
G01*
X125512Y353563D02*
G03*
X125512Y353563I-492J0D01*
G01*
X278394Y339185D02*
G03*
X278394Y339185I-492J0D01*
G01*
X165512Y353563D02*
G03*
X165512Y353563I-492J0D01*
G01*
X145512D02*
G03*
X145512Y353563I-492J0D01*
G01*
X308394Y332579D02*
G03*
X308394Y332579I-492J0D01*
G01*
X150992Y183976D02*
G03*
X150992Y183976I-492J0D01*
G01*
X684394Y332185D02*
G03*
X684394Y332185I-492J0D01*
G01*
X197079Y300130D02*
G03*
X197079Y300130I-492J0D01*
G01*
X124894Y330685D02*
G03*
X124894Y330685I-492J0D01*
G01*
D11*
X586890Y385925D02*
G03*
X586890Y385925I-394J0D01*
G01*
X186752Y356850D02*
Y360059D01*
X189350D01*
X198248Y356850D02*
Y360059D01*
X195650D02*
X198248D01*
X120796Y218661D02*
Y220768D01*
X122902D01*
X120796Y196555D02*
Y198661D01*
Y196555D02*
X122902D01*
X142902D02*
X145008D01*
Y198661D01*
Y218661D02*
Y220768D01*
X142902D02*
X145008D01*
X702790Y423012D02*
Y428327D01*
X666609Y423012D02*
Y428327D01*
X126024Y326909D02*
Y328976D01*
Y301024D02*
Y303091D01*
X151909Y301024D02*
X153976D01*
X126024D02*
X128091D01*
X153976Y326909D02*
Y328976D01*
Y301024D02*
Y303091D01*
X151909Y328976D02*
X153976D01*
X126024D02*
X128091D01*
X627138Y356492D02*
Y369508D01*
X617862Y356492D02*
Y369508D01*
X684646Y362114D02*
Y363886D01*
X690354Y362114D02*
Y363886D01*
X655202Y347601D02*
Y353399D01*
X649798Y347601D02*
Y353399D01*
X641535Y377035D02*
Y393965D01*
Y377035D02*
X658465D01*
Y393965D01*
X641535D02*
X658465D01*
X643504Y357626D02*
X645079D01*
X654921D02*
X656496D01*
Y368354D02*
Y368650D01*
Y357626D02*
Y358315D01*
X643504Y368650D02*
X645866D01*
X654134D02*
X656496D01*
X643504Y368354D02*
Y368650D01*
Y357626D02*
Y358315D01*
X676701Y302311D02*
Y328689D01*
X689299Y302311D02*
Y328689D01*
X676701D02*
X689299D01*
X676701Y302311D02*
X689299D01*
X658748Y306957D02*
Y314043D01*
X652252Y306957D02*
Y314043D01*
X182744Y210886D02*
Y215216D01*
X188256Y210886D02*
Y215216D01*
X166217Y197295D02*
X166905D01*
X180095D02*
X180783D01*
Y221705D01*
X166217D02*
X166905D01*
X180095D02*
X180783D01*
X166217Y197295D02*
Y221705D01*
X130902Y176024D02*
Y181299D01*
X135902Y176024D02*
Y181299D01*
X682014Y285877D02*
Y290207D01*
X687059Y285835D02*
Y290165D01*
X131437Y270000D02*
X136713D01*
X131437Y265000D02*
X136713D01*
X156752Y367441D02*
X159350D01*
X156752D02*
Y370650D01*
X165650Y367441D02*
X168248D01*
Y370650D01*
X176752Y367441D02*
X179350D01*
X176752D02*
Y370650D01*
X185650Y367441D02*
X188248D01*
Y370650D01*
X196752Y367441D02*
X199350D01*
X196752D02*
Y370650D01*
X205650Y367441D02*
X208248D01*
Y370650D01*
X96752Y367441D02*
X99350D01*
X96752D02*
Y370650D01*
X105650Y367441D02*
X108248D01*
Y370650D01*
X136752Y367441D02*
X139350D01*
X136752D02*
Y370650D01*
X145650Y367441D02*
X148248D01*
Y370650D01*
X147500Y333862D02*
Y339138D01*
X152500Y333862D02*
Y339138D01*
X95650Y360059D02*
X98248D01*
Y356850D02*
Y360059D01*
X86752D02*
X89350D01*
X86752Y356850D02*
Y360059D01*
X116752Y367441D02*
X119350D01*
X116752D02*
Y370650D01*
X125650Y367441D02*
X128248D01*
Y370650D01*
X115650Y360059D02*
X118248D01*
Y356850D02*
Y360059D01*
X106752D02*
X109350D01*
X106752Y356850D02*
Y360059D01*
X282742Y288247D02*
Y293522D01*
X277742Y288247D02*
Y293522D01*
X139669Y264744D02*
X144000D01*
X139669Y270256D02*
X144000D01*
X165000Y301862D02*
Y307138D01*
X160000Y301862D02*
Y307138D01*
X303746Y324939D02*
Y327006D01*
Y299054D02*
Y301121D01*
X275793Y299054D02*
X277860D01*
X301679D02*
X303746D01*
X275793Y324939D02*
Y327006D01*
Y299054D02*
Y301121D01*
Y327006D02*
X277860D01*
X301679D02*
X303746D01*
X262000Y314862D02*
Y320138D01*
X267000Y314862D02*
Y320138D01*
X135650Y360059D02*
X138248D01*
Y356850D02*
Y360059D01*
X126752D02*
X129350D01*
X126752Y356850D02*
Y360059D01*
X275441Y342335D02*
Y346665D01*
X280486Y342293D02*
Y346623D01*
X259784Y301795D02*
Y326205D01*
X245216Y301795D02*
X245905D01*
X259095D02*
X259784D01*
X245216D02*
Y326205D01*
X245905D01*
X259095D02*
X259784D01*
X285500Y341862D02*
Y347138D01*
X290500Y341862D02*
Y347138D01*
X175650Y360059D02*
X178248D01*
Y356850D02*
Y360059D01*
X166752D02*
X169350D01*
X166752Y356850D02*
Y360059D01*
X267000Y307862D02*
Y313138D01*
X262000Y307862D02*
Y313138D01*
X155650Y360059D02*
X158248D01*
Y356850D02*
Y360059D01*
X146752D02*
X149350D01*
X146752Y356850D02*
Y360059D01*
X305441Y335728D02*
Y340059D01*
X310486Y335686D02*
Y340017D01*
X152961Y176496D02*
Y180827D01*
X147916Y176538D02*
Y180869D01*
X111764Y222161D02*
X117040D01*
X111764Y227161D02*
X117040D01*
X681441Y335335D02*
Y339665D01*
X686486Y335293D02*
Y339623D01*
X183000Y203413D02*
Y208689D01*
X188000Y203413D02*
Y208689D01*
X657252Y365213D02*
Y372299D01*
X663748Y365213D02*
Y372299D01*
X636252Y364701D02*
Y371787D01*
X642748Y364701D02*
Y371787D01*
X658748Y316957D02*
Y324043D01*
X652252Y316957D02*
Y324043D01*
X189106Y297669D02*
X193437D01*
X189148Y302714D02*
X193479D01*
X126795Y284784D02*
X151205D01*
Y270216D02*
Y270905D01*
Y284095D02*
Y284784D01*
X126795Y270216D02*
X151205D01*
X126795D02*
Y270905D01*
Y284095D02*
Y284784D01*
X675354Y362114D02*
Y363886D01*
X669646Y362114D02*
Y363886D01*
X607862Y356492D02*
Y369508D01*
X617138Y356492D02*
Y369508D01*
X682854Y362114D02*
Y363886D01*
X677146Y362114D02*
Y363886D01*
X121941Y333835D02*
Y338165D01*
X126986Y333793D02*
Y338123D01*
D12*
X92500Y432520D02*
X202500D01*
D13*
X578287Y391240D02*
Y424169D01*
X631713Y391240D02*
Y424169D01*
X583740Y436398D02*
X626260D01*
X592992Y436417D02*
Y454980D01*
X617008D01*
Y436417D02*
Y454980D01*
D14*
X797083Y22033D02*
Y16035D01*
Y19034D01*
X801082D01*
Y22033D01*
Y16035D01*
X803081Y21033D02*
X804081Y22033D01*
X806080D01*
X807080Y21033D01*
Y20034D01*
X806080Y19034D01*
X805081D01*
X806080D01*
X807080Y18034D01*
Y17035D01*
X806080Y16035D01*
X804081D01*
X803081Y17035D01*
X187752Y349968D02*
Y346032D01*
X189720D01*
X190376Y346688D01*
Y349312D01*
X189720Y349968D01*
X187752D01*
X191688Y346688D02*
X192344Y346032D01*
X193656D01*
X194312Y346688D01*
Y349312D01*
X193656Y349968D01*
X192344D01*
X191688Y349312D01*
Y348656D01*
X192344Y348000D01*
X194312D01*
X195624Y349312D02*
X196280Y349968D01*
X197592D01*
X198248Y349312D01*
Y348656D01*
X197592Y348000D01*
X196936D01*
X197592D01*
X198248Y347344D01*
Y346688D01*
X197592Y346032D01*
X196280D01*
X195624Y346688D01*
X211376Y401032D02*
Y404968D01*
X213344D01*
X214000Y404312D01*
Y403000D01*
X213344Y402344D01*
X211376D01*
X215312Y401032D02*
X216624D01*
X215968D01*
Y404968D01*
X215312Y404312D01*
X129720Y227968D02*
Y224688D01*
X130376Y224032D01*
X131688D01*
X132344Y224688D01*
Y227968D01*
X133656Y227312D02*
X134312Y227968D01*
X135624D01*
X136280Y227312D01*
Y226656D01*
X135624Y226000D01*
X134968D01*
X135624D01*
X136280Y225344D01*
Y224688D01*
X135624Y224032D01*
X134312D01*
X133656Y224688D01*
X707500Y428468D02*
X706188D01*
X706844D01*
Y425188D01*
X706188Y424532D01*
X705532D01*
X704876Y425188D01*
X708812Y424532D02*
X710124D01*
X709468D01*
Y428468D01*
X708812Y427812D01*
X151720Y298968D02*
Y295688D01*
X152376Y295032D01*
X153688D01*
X154344Y295688D01*
Y298968D01*
X158280Y295032D02*
X155656D01*
X158280Y297656D01*
Y298312D01*
X157624Y298968D01*
X156312D01*
X155656Y298312D01*
X732252Y394468D02*
Y390532D01*
X734220D01*
X734876Y391188D01*
Y391844D01*
X734220Y392500D01*
X732252D01*
X734220D01*
X734876Y393156D01*
Y393812D01*
X734220Y394468D01*
X732252D01*
X736188Y393812D02*
X736844Y394468D01*
X738156D01*
X738812Y393812D01*
Y393156D01*
X738156Y392500D01*
X738812Y391844D01*
Y391188D01*
X738156Y390532D01*
X736844D01*
X736188Y391188D01*
Y391844D01*
X736844Y392500D01*
X736188Y393156D01*
Y393812D01*
X736844Y392500D02*
X738156D01*
X740124Y394468D02*
X742748D01*
Y393812D01*
X740124Y391188D01*
Y390532D01*
X717605Y37393D02*
Y33457D01*
X719572D01*
X720228Y34113D01*
Y34769D01*
X719572Y35425D01*
X717605D01*
X719572D01*
X720228Y36081D01*
Y36737D01*
X719572Y37393D01*
X717605D01*
X721540Y36737D02*
X722196Y37393D01*
X723508D01*
X724164Y36737D01*
Y36081D01*
X723508Y35425D01*
X724164Y34769D01*
Y34113D01*
X723508Y33457D01*
X722196D01*
X721540Y34113D01*
Y34769D01*
X722196Y35425D01*
X721540Y36081D01*
Y36737D01*
X722196Y35425D02*
X723508D01*
X725476Y36737D02*
X726132Y37393D01*
X727444D01*
X728100Y36737D01*
Y36081D01*
X727444Y35425D01*
X728100Y34769D01*
Y34113D01*
X727444Y33457D01*
X726132D01*
X725476Y34113D01*
Y34769D01*
X726132Y35425D01*
X725476Y36081D01*
Y36737D01*
X726132Y35425D02*
X727444D01*
X196376Y310968D02*
X195064D01*
X195720D01*
Y307688D01*
X195064Y307032D01*
X194408D01*
X193752Y307688D01*
X197688Y307032D02*
Y310968D01*
X199656D01*
X200312Y310312D01*
Y309000D01*
X199656Y308344D01*
X197688D01*
X204248Y307032D02*
X201624D01*
X204248Y309656D01*
Y310312D01*
X203592Y310968D01*
X202280D01*
X201624Y310312D01*
X162968Y312080D02*
X159032D01*
Y314048D01*
X159688Y314704D01*
X161000D01*
X161656Y314048D01*
Y312080D01*
Y313392D02*
X162968Y314704D01*
Y316016D02*
Y317328D01*
Y316672D01*
X159032D01*
X159688Y316016D01*
Y319296D02*
X159032Y319952D01*
Y321264D01*
X159688Y321920D01*
X162312D01*
X162968Y321264D01*
Y319952D01*
X162312Y319296D01*
X159688D01*
X621188Y345704D02*
X620532Y345048D01*
Y343736D01*
X621188Y343080D01*
X623812D01*
X624468Y343736D01*
Y345048D01*
X623812Y345704D01*
X624468Y347016D02*
Y348328D01*
Y347672D01*
X620532D01*
X621188Y347016D01*
Y350296D02*
X620532Y350952D01*
Y352264D01*
X621188Y352920D01*
X621844D01*
X622500Y352264D01*
X623156Y352920D01*
X623812D01*
X624468Y352264D01*
Y350952D01*
X623812Y350296D01*
X623156D01*
X622500Y350952D01*
X621844Y350296D01*
X621188D01*
X622500Y350952D02*
Y352264D01*
X686188Y347376D02*
X685532Y346720D01*
Y345408D01*
X686188Y344752D01*
X688812D01*
X689468Y345408D01*
Y346720D01*
X688812Y347376D01*
X689468Y351312D02*
Y348688D01*
X686844Y351312D01*
X686188D01*
X685532Y350656D01*
Y349344D01*
X686188Y348688D01*
Y352624D02*
X685532Y353280D01*
Y354592D01*
X686188Y355248D01*
X686844D01*
X687500Y354592D01*
Y353936D01*
Y354592D01*
X688156Y355248D01*
X688812D01*
X689468Y354592D01*
Y353280D01*
X688812Y352624D01*
X652188Y337876D02*
X651532Y337220D01*
Y335908D01*
X652188Y335252D01*
X654812D01*
X655468Y335908D01*
Y337220D01*
X654812Y337876D01*
X655468Y341812D02*
Y339188D01*
X652844Y341812D01*
X652188D01*
X651532Y341156D01*
Y339844D01*
X652188Y339188D01*
X655468Y345092D02*
X651532D01*
X653500Y343124D01*
Y345748D01*
X647376Y399968D02*
Y396032D01*
X650000D01*
X651312D02*
X652624D01*
X651968D01*
Y399968D01*
X651312Y399312D01*
X630532Y335252D02*
Y337876D01*
Y336564D01*
X634468D01*
Y339188D02*
X630532D01*
Y341156D01*
X631188Y341812D01*
X632500D01*
X633156Y341156D01*
Y339188D01*
X633812Y343124D02*
X634468Y343780D01*
Y345092D01*
X633812Y345748D01*
X631188D01*
X630532Y345092D01*
Y343780D01*
X631188Y343124D01*
X631844D01*
X632500Y343780D01*
Y345748D01*
X646720Y374968D02*
Y371688D01*
X647376Y371032D01*
X648688D01*
X649344Y371688D01*
Y374968D01*
X653280D02*
X650656D01*
Y373000D01*
X651968Y373656D01*
X652624D01*
X653280Y373000D01*
Y371688D01*
X652624Y371032D01*
X651312D01*
X650656Y371688D01*
X570000Y411312D02*
X569344Y411968D01*
X568032D01*
X567376Y411312D01*
Y410656D01*
X568032Y410000D01*
X569344D01*
X570000Y409344D01*
Y408688D01*
X569344Y408032D01*
X568032D01*
X567376Y408688D01*
X571312Y408032D02*
X572624D01*
X571968D01*
Y411968D01*
X571312Y411312D01*
X680720Y299968D02*
Y296688D01*
X681376Y296032D01*
X682688D01*
X683344Y296688D01*
Y299968D01*
X686624Y296032D02*
Y299968D01*
X684656Y298000D01*
X687280D01*
X92123Y255946D02*
Y258570D01*
Y257258D01*
X96059D01*
Y259882D02*
X92123D01*
Y261849D01*
X92779Y262506D01*
X94091D01*
X94747Y261849D01*
Y259882D01*
X92779Y263817D02*
X92123Y264473D01*
Y265785D01*
X92779Y266441D01*
X93435D01*
X94091Y265785D01*
Y265129D01*
Y265785D01*
X94747Y266441D01*
X95403D01*
X96059Y265785D01*
Y264473D01*
X95403Y263817D01*
X96059Y270377D02*
Y267753D01*
X93435Y270377D01*
X92779D01*
X92123Y269721D01*
Y268409D01*
X92779Y267753D01*
X646688Y304376D02*
X646032Y303720D01*
Y302408D01*
X646688Y301752D01*
X649312D01*
X649968Y302408D01*
Y303720D01*
X649312Y304376D01*
X649968Y308312D02*
Y305688D01*
X647344Y308312D01*
X646688D01*
X646032Y307656D01*
Y306344D01*
X646688Y305688D01*
Y309624D02*
X646032Y310280D01*
Y311592D01*
X646688Y312248D01*
X647344D01*
X648000Y311592D01*
X648656Y312248D01*
X649312D01*
X649968Y311592D01*
Y310280D01*
X649312Y309624D01*
X648656D01*
X648000Y310280D01*
X647344Y309624D01*
X646688D01*
X648000Y310280D02*
Y311592D01*
X184286Y221266D02*
X183630Y220610D01*
Y219298D01*
X184286Y218642D01*
X186910D01*
X187566Y219298D01*
Y220610D01*
X186910Y221266D01*
X187566Y225202D02*
Y222578D01*
X184942Y225202D01*
X184286D01*
X183630Y224546D01*
Y223234D01*
X184286Y222578D01*
X186910Y226514D02*
X187566Y227170D01*
Y228482D01*
X186910Y229137D01*
X184286D01*
X183630Y228482D01*
Y227170D01*
X184286Y226514D01*
X184942D01*
X185598Y227170D01*
Y229137D01*
X169818Y228306D02*
Y227650D01*
X171130Y226339D01*
X172442Y227650D01*
Y228306D01*
X171130Y226339D02*
Y224371D01*
X173754Y227650D02*
X174410Y228306D01*
X175722D01*
X176378Y227650D01*
Y226994D01*
X175722Y226339D01*
X175066D01*
X175722D01*
X176378Y225683D01*
Y225027D01*
X175722Y224371D01*
X174410D01*
X173754Y225027D01*
X115032Y156784D02*
Y159408D01*
Y158096D01*
X118968D01*
Y160720D02*
X115032D01*
Y162688D01*
X115688Y163344D01*
X117000D01*
X117656Y162688D01*
Y160720D01*
X118968Y166624D02*
X115032D01*
X117000Y164656D01*
Y167280D01*
X115688Y168592D02*
X115032Y169248D01*
Y170560D01*
X115688Y171215D01*
X118312D01*
X118968Y170560D01*
Y169248D01*
X118312Y168592D01*
X115688D01*
X131688Y158032D02*
X131032Y157376D01*
Y156064D01*
X131688Y155408D01*
X134312D01*
X134968Y156064D01*
Y157376D01*
X134312Y158032D01*
X131688Y159344D02*
X131032Y160000D01*
Y161312D01*
X131688Y161968D01*
X132344D01*
X133000Y161312D01*
Y160656D01*
Y161312D01*
X133656Y161968D01*
X134312D01*
X134968Y161312D01*
Y160000D01*
X134312Y159344D01*
X134968Y165248D02*
X131032D01*
X133000Y163280D01*
Y165904D01*
X152376Y232312D02*
X151720Y232968D01*
X150408D01*
X149752Y232312D01*
Y229688D01*
X150408Y229032D01*
X151720D01*
X152376Y229688D01*
X153688Y232312D02*
X154344Y232968D01*
X155656D01*
X156312Y232312D01*
Y231656D01*
X155656Y231000D01*
X155000D01*
X155656D01*
X156312Y230344D01*
Y229688D01*
X155656Y229032D01*
X154344D01*
X153688Y229688D01*
X157624Y232968D02*
X160248D01*
Y232312D01*
X157624Y229688D01*
Y229032D01*
X679752Y282968D02*
Y279032D01*
X681720D01*
X682376Y279688D01*
Y282312D01*
X681720Y282968D01*
X679752D01*
X683688Y279688D02*
X684344Y279032D01*
X685656D01*
X686312Y279688D01*
Y282312D01*
X685656Y282968D01*
X684344D01*
X683688Y282312D01*
Y281656D01*
X684344Y281000D01*
X686312D01*
X687624Y282312D02*
X688280Y282968D01*
X689592D01*
X690248Y282312D01*
Y281656D01*
X689592Y281000D01*
X690248Y280344D01*
Y279688D01*
X689592Y279032D01*
X688280D01*
X687624Y279688D01*
Y280344D01*
X688280Y281000D01*
X687624Y281656D01*
Y282312D01*
X688280Y281000D02*
X689592D01*
X674968Y282752D02*
X671032D01*
Y284720D01*
X671688Y285376D01*
X673000D01*
X673656Y284720D01*
Y282752D01*
Y284064D02*
X674968Y285376D01*
X671688Y286688D02*
X671032Y287344D01*
Y288656D01*
X671688Y289312D01*
X672344D01*
X673000Y288656D01*
Y288000D01*
Y288656D01*
X673656Y289312D01*
X674312D01*
X674968Y288656D01*
Y287344D01*
X674312Y286688D01*
X671688Y290624D02*
X671032Y291280D01*
Y292592D01*
X671688Y293248D01*
X672344D01*
X673000Y292592D01*
X673656Y293248D01*
X674312D01*
X674968Y292592D01*
Y291280D01*
X674312Y290624D01*
X673656D01*
X673000Y291280D01*
X672344Y290624D01*
X671688D01*
X673000Y291280D02*
Y292592D01*
X152376Y203312D02*
X151720Y203968D01*
X150408D01*
X149752Y203312D01*
Y200688D01*
X150408Y200032D01*
X151720D01*
X152376Y200688D01*
X153688Y203312D02*
X154344Y203968D01*
X155656D01*
X156312Y203312D01*
Y202656D01*
X155656Y202000D01*
X155000D01*
X155656D01*
X156312Y201344D01*
Y200688D01*
X155656Y200032D01*
X154344D01*
X153688Y200688D01*
X160248Y203968D02*
X158936Y203312D01*
X157624Y202000D01*
Y200688D01*
X158280Y200032D01*
X159592D01*
X160248Y200688D01*
Y201344D01*
X159592Y202000D01*
X157624D01*
X98376Y206312D02*
X97720Y206968D01*
X96408D01*
X95752Y206312D01*
Y203688D01*
X96408Y203032D01*
X97720D01*
X98376Y203688D01*
X99688Y206312D02*
X100344Y206968D01*
X101656D01*
X102312Y206312D01*
Y205656D01*
X101656Y205000D01*
X101000D01*
X101656D01*
X102312Y204344D01*
Y203688D01*
X101656Y203032D01*
X100344D01*
X99688Y203688D01*
X106248Y206968D02*
X103624D01*
Y205000D01*
X104936Y205656D01*
X105592D01*
X106248Y205000D01*
Y203688D01*
X105592Y203032D01*
X104280D01*
X103624Y203688D01*
X111876Y232312D02*
X111220Y232968D01*
X109908D01*
X109252Y232312D01*
Y229688D01*
X109908Y229032D01*
X111220D01*
X111876Y229688D01*
X113188Y232312D02*
X113844Y232968D01*
X115156D01*
X115812Y232312D01*
Y231656D01*
X115156Y231000D01*
X114500D01*
X115156D01*
X115812Y230344D01*
Y229688D01*
X115156Y229032D01*
X113844D01*
X113188Y229688D01*
X117124Y232312D02*
X117780Y232968D01*
X119092D01*
X119748Y232312D01*
Y231656D01*
X119092Y231000D01*
X118436D01*
X119092D01*
X119748Y230344D01*
Y229688D01*
X119092Y229032D01*
X117780D01*
X117124Y229688D01*
X107032Y156784D02*
Y159408D01*
Y158096D01*
X110968D01*
Y160720D02*
X107032D01*
Y162688D01*
X107688Y163344D01*
X109000D01*
X109656Y162688D01*
Y160720D01*
X107688Y164656D02*
X107032Y165312D01*
Y166624D01*
X107688Y167280D01*
X108344D01*
X109000Y166624D01*
Y165968D01*
Y166624D01*
X109656Y167280D01*
X110312D01*
X110968Y166624D01*
Y165312D01*
X110312Y164656D01*
Y168592D02*
X110968Y169248D01*
Y170560D01*
X110312Y171215D01*
X107688D01*
X107032Y170560D01*
Y169248D01*
X107688Y168592D01*
X108344D01*
X109000Y169248D01*
Y171215D01*
X81784Y178968D02*
X84408D01*
X83096D01*
Y175032D01*
X85720D02*
Y178968D01*
X87688D01*
X88344Y178312D01*
Y177000D01*
X87688Y176344D01*
X85720D01*
X89656Y178312D02*
X90312Y178968D01*
X91624D01*
X92280Y178312D01*
Y177656D01*
X91624Y177000D01*
X90968D01*
X91624D01*
X92280Y176344D01*
Y175688D01*
X91624Y175032D01*
X90312D01*
X89656Y175688D01*
X93592Y178312D02*
X94248Y178968D01*
X95560D01*
X96215Y178312D01*
Y177656D01*
X95560Y177000D01*
X96215Y176344D01*
Y175688D01*
X95560Y175032D01*
X94248D01*
X93592Y175688D01*
Y176344D01*
X94248Y177000D01*
X93592Y177656D01*
Y178312D01*
X94248Y177000D02*
X95560D01*
X81784Y186301D02*
X84408D01*
X83096D01*
Y182366D01*
X85720D02*
Y186301D01*
X87688D01*
X88344Y185645D01*
Y184333D01*
X87688Y183677D01*
X85720D01*
X89656Y185645D02*
X90312Y186301D01*
X91624D01*
X92280Y185645D01*
Y184989D01*
X91624Y184333D01*
X90968D01*
X91624D01*
X92280Y183677D01*
Y183021D01*
X91624Y182366D01*
X90312D01*
X89656Y183021D01*
X93592Y186301D02*
X96215D01*
Y185645D01*
X93592Y183021D01*
Y182366D01*
X81784Y193634D02*
X84408D01*
X83096D01*
Y189699D01*
X85720D02*
Y193634D01*
X87688D01*
X88344Y192979D01*
Y191667D01*
X87688Y191011D01*
X85720D01*
X89656Y192979D02*
X90312Y193634D01*
X91624D01*
X92280Y192979D01*
Y192323D01*
X91624Y191667D01*
X90968D01*
X91624D01*
X92280Y191011D01*
Y190355D01*
X91624Y189699D01*
X90312D01*
X89656Y190355D01*
X96215Y193634D02*
X94904Y192979D01*
X93592Y191667D01*
Y190355D01*
X94248Y189699D01*
X95560D01*
X96215Y190355D01*
Y191011D01*
X95560Y191667D01*
X93592D01*
X81784Y200968D02*
X84408D01*
X83096D01*
Y197032D01*
X85720D02*
Y200968D01*
X87688D01*
X88344Y200312D01*
Y199000D01*
X87688Y198344D01*
X85720D01*
X89656Y200312D02*
X90312Y200968D01*
X91624D01*
X92280Y200312D01*
Y199656D01*
X91624Y199000D01*
X90968D01*
X91624D01*
X92280Y198344D01*
Y197688D01*
X91624Y197032D01*
X90312D01*
X89656Y197688D01*
X96215Y200968D02*
X93592D01*
Y199000D01*
X94904Y199656D01*
X95560D01*
X96215Y199000D01*
Y197688D01*
X95560Y197032D01*
X94248D01*
X93592Y197688D01*
X81784Y218968D02*
X84408D01*
X83096D01*
Y215032D01*
X85720D02*
Y218968D01*
X87688D01*
X88344Y218312D01*
Y217000D01*
X87688Y216344D01*
X85720D01*
X89656Y218312D02*
X90312Y218968D01*
X91624D01*
X92280Y218312D01*
Y217656D01*
X91624Y217000D01*
X90968D01*
X91624D01*
X92280Y216344D01*
Y215688D01*
X91624Y215032D01*
X90312D01*
X89656Y215688D01*
X95560Y215032D02*
Y218968D01*
X93592Y217000D01*
X96215D01*
X81784Y225968D02*
X84408D01*
X83096D01*
Y222032D01*
X85720D02*
Y225968D01*
X87688D01*
X88344Y225312D01*
Y224000D01*
X87688Y223344D01*
X85720D01*
X89656Y225312D02*
X90312Y225968D01*
X91624D01*
X92280Y225312D01*
Y224656D01*
X91624Y224000D01*
X90968D01*
X91624D01*
X92280Y223344D01*
Y222688D01*
X91624Y222032D01*
X90312D01*
X89656Y222688D01*
X93592Y225312D02*
X94248Y225968D01*
X95560D01*
X96215Y225312D01*
Y224656D01*
X95560Y224000D01*
X94904D01*
X95560D01*
X96215Y223344D01*
Y222688D01*
X95560Y222032D01*
X94248D01*
X93592Y222688D01*
X150968Y214752D02*
X147032D01*
Y216720D01*
X147688Y217376D01*
X149000D01*
X149656Y216720D01*
Y214752D01*
Y216064D02*
X150968Y217376D01*
X147688Y218688D02*
X147032Y219344D01*
Y220656D01*
X147688Y221312D01*
X148344D01*
X149000Y220656D01*
Y220000D01*
Y220656D01*
X149656Y221312D01*
X150312D01*
X150968Y220656D01*
Y219344D01*
X150312Y218688D01*
X147032Y222624D02*
Y225248D01*
X147688D01*
X150312Y222624D01*
X150968D01*
X146968Y155408D02*
X143032D01*
Y157376D01*
X143688Y158032D01*
X145000D01*
X145656Y157376D01*
Y155408D01*
Y156720D02*
X146968Y158032D01*
X143688Y159344D02*
X143032Y160000D01*
Y161312D01*
X143688Y161968D01*
X144344D01*
X145000Y161312D01*
Y160656D01*
Y161312D01*
X145656Y161968D01*
X146312D01*
X146968Y161312D01*
Y160000D01*
X146312Y159344D01*
X143032Y165904D02*
X143688Y164592D01*
X145000Y163280D01*
X146312D01*
X146968Y163936D01*
Y165248D01*
X146312Y165904D01*
X145656D01*
X145000Y165248D01*
Y163280D01*
X140968Y155408D02*
X137032D01*
Y157376D01*
X137688Y158032D01*
X139000D01*
X139656Y157376D01*
Y155408D01*
Y156720D02*
X140968Y158032D01*
X137688Y159344D02*
X137032Y160000D01*
Y161312D01*
X137688Y161968D01*
X138344D01*
X139000Y161312D01*
Y160656D01*
Y161312D01*
X139656Y161968D01*
X140312D01*
X140968Y161312D01*
Y160000D01*
X140312Y159344D01*
X137032Y165904D02*
Y163280D01*
X139000D01*
X138344Y164592D01*
Y165248D01*
X139000Y165904D01*
X140312D01*
X140968Y165248D01*
Y163936D01*
X140312Y163280D01*
X158968Y155408D02*
X155032D01*
Y157376D01*
X155688Y158032D01*
X157000D01*
X157656Y157376D01*
Y155408D01*
Y156720D02*
X158968Y158032D01*
X155688Y159344D02*
X155032Y160000D01*
Y161312D01*
X155688Y161968D01*
X156344D01*
X157000Y161312D01*
Y160656D01*
Y161312D01*
X157656Y161968D01*
X158312D01*
X158968Y161312D01*
Y160000D01*
X158312Y159344D01*
X158968Y165248D02*
X155032D01*
X157000Y163280D01*
Y165904D01*
X161968Y170752D02*
X158032D01*
Y172720D01*
X158688Y173376D01*
X160000D01*
X160656Y172720D01*
Y170752D01*
Y172064D02*
X161968Y173376D01*
X158688Y174688D02*
X158032Y175344D01*
Y176656D01*
X158688Y177312D01*
X159344D01*
X160000Y176656D01*
Y176000D01*
Y176656D01*
X160656Y177312D01*
X161312D01*
X161968Y176656D01*
Y175344D01*
X161312Y174688D01*
X158688Y178624D02*
X158032Y179280D01*
Y180592D01*
X158688Y181248D01*
X159344D01*
X160000Y180592D01*
Y179936D01*
Y180592D01*
X160656Y181248D01*
X161312D01*
X161968Y180592D01*
Y179280D01*
X161312Y178624D01*
X128968Y155408D02*
X125032D01*
Y157376D01*
X125688Y158032D01*
X127000D01*
X127656Y157376D01*
Y155408D01*
Y156720D02*
X128968Y158032D01*
X125688Y159344D02*
X125032Y160000D01*
Y161312D01*
X125688Y161968D01*
X126344D01*
X127000Y161312D01*
Y160656D01*
Y161312D01*
X127656Y161968D01*
X128312D01*
X128968Y161312D01*
Y160000D01*
X128312Y159344D01*
X128968Y165904D02*
Y163280D01*
X126344Y165904D01*
X125688D01*
X125032Y165248D01*
Y163936D01*
X125688Y163280D01*
X152968Y155408D02*
X149032D01*
Y157376D01*
X149688Y158032D01*
X151000D01*
X151656Y157376D01*
Y155408D01*
Y156720D02*
X152968Y158032D01*
X149688Y159344D02*
X149032Y160000D01*
Y161312D01*
X149688Y161968D01*
X150344D01*
X151000Y161312D01*
Y160656D01*
Y161312D01*
X151656Y161968D01*
X152312D01*
X152968Y161312D01*
Y160000D01*
X152312Y159344D01*
X152968Y163280D02*
Y164592D01*
Y163936D01*
X149032D01*
X149688Y163280D01*
X695968Y331752D02*
X692032D01*
Y333720D01*
X692688Y334376D01*
X694000D01*
X694656Y333720D01*
Y331752D01*
Y333064D02*
X695968Y334376D01*
X692688Y335688D02*
X692032Y336344D01*
Y337656D01*
X692688Y338312D01*
X693344D01*
X694000Y337656D01*
Y337000D01*
Y337656D01*
X694656Y338312D01*
X695312D01*
X695968Y337656D01*
Y336344D01*
X695312Y335688D01*
X692688Y339624D02*
X692032Y340280D01*
Y341592D01*
X692688Y342248D01*
X695312D01*
X695968Y341592D01*
Y340280D01*
X695312Y339624D01*
X692688D01*
X145752Y189968D02*
Y186032D01*
X147720D01*
X148376Y186688D01*
Y189312D01*
X147720Y189968D01*
X145752D01*
X149688Y186688D02*
X150344Y186032D01*
X151656D01*
X152312Y186688D01*
Y189312D01*
X151656Y189968D01*
X150344D01*
X149688Y189312D01*
Y188656D01*
X150344Y188000D01*
X152312D01*
X153624Y189968D02*
X156248D01*
Y189312D01*
X153624Y186688D01*
Y186032D01*
X698032Y331752D02*
X701968D01*
Y333720D01*
X701312Y334376D01*
X698688D01*
X698032Y333720D01*
Y331752D01*
X701312Y335688D02*
X701968Y336344D01*
Y337656D01*
X701312Y338312D01*
X698688D01*
X698032Y337656D01*
Y336344D01*
X698688Y335688D01*
X699344D01*
X700000Y336344D01*
Y338312D01*
X698032Y342248D02*
X698688Y340936D01*
X700000Y339624D01*
X701312D01*
X701968Y340280D01*
Y341592D01*
X701312Y342248D01*
X700656D01*
X700000Y341592D01*
Y339624D01*
X153376Y211312D02*
X152720Y211968D01*
X151408D01*
X150752Y211312D01*
Y208688D01*
X151408Y208032D01*
X152720D01*
X153376Y208688D01*
X154688Y211312D02*
X155344Y211968D01*
X156656D01*
X157312Y211312D01*
Y210656D01*
X156656Y210000D01*
X156000D01*
X156656D01*
X157312Y209344D01*
Y208688D01*
X156656Y208032D01*
X155344D01*
X154688Y208688D01*
X161248Y208032D02*
X158624D01*
X161248Y210656D01*
Y211312D01*
X160592Y211968D01*
X159280D01*
X158624Y211312D01*
X100032Y212312D02*
X99376Y212968D01*
X98064D01*
X97408Y212312D01*
Y209688D01*
X98064Y209032D01*
X99376D01*
X100032Y209688D01*
X101344Y212312D02*
X102000Y212968D01*
X103312D01*
X103968Y212312D01*
Y211656D01*
X103312Y211000D01*
X102656D01*
X103312D01*
X103968Y210344D01*
Y209688D01*
X103312Y209032D01*
X102000D01*
X101344Y209688D01*
X105280Y209032D02*
X106592D01*
X105936D01*
Y212968D01*
X105280Y212312D01*
X191286Y201341D02*
X190630Y200685D01*
Y199373D01*
X191286Y198717D01*
X193910D01*
X194566Y199373D01*
Y200685D01*
X193910Y201341D01*
X191286Y202653D02*
X190630Y203309D01*
Y204621D01*
X191286Y205276D01*
X191942D01*
X192598Y204621D01*
Y203965D01*
Y204621D01*
X193254Y205276D01*
X193910D01*
X194566Y204621D01*
Y203309D01*
X193910Y202653D01*
X191286Y206588D02*
X190630Y207244D01*
Y208556D01*
X191286Y209212D01*
X193910D01*
X194566Y208556D01*
Y207244D01*
X193910Y206588D01*
X191286D01*
X661688Y298376D02*
X661032Y297720D01*
Y296408D01*
X661688Y295752D01*
X664312D01*
X664968Y296408D01*
Y297720D01*
X664312Y298376D01*
X664968Y302312D02*
Y299688D01*
X662344Y302312D01*
X661688D01*
X661032Y301656D01*
Y300344D01*
X661688Y299688D01*
X661032Y303624D02*
Y306248D01*
X661688D01*
X664312Y303624D01*
X664968D01*
X661688Y327376D02*
X661032Y326720D01*
Y325408D01*
X661688Y324752D01*
X664312D01*
X664968Y325408D01*
Y326720D01*
X664312Y327376D01*
X664968Y331312D02*
Y328688D01*
X662344Y331312D01*
X661688D01*
X661032Y330656D01*
Y329344D01*
X661688Y328688D01*
X661032Y335248D02*
X661688Y333936D01*
X663000Y332624D01*
X664312D01*
X664968Y333280D01*
Y334592D01*
X664312Y335248D01*
X663656D01*
X663000Y334592D01*
Y332624D01*
X646688Y318376D02*
X646032Y317720D01*
Y316408D01*
X646688Y315752D01*
X649312D01*
X649968Y316408D01*
Y317720D01*
X649312Y318376D01*
X649968Y322312D02*
Y319688D01*
X647344Y322312D01*
X646688D01*
X646032Y321656D01*
Y320344D01*
X646688Y319688D01*
X646032Y326248D02*
Y323624D01*
X648000D01*
X647344Y324936D01*
Y325592D01*
X648000Y326248D01*
X649312D01*
X649968Y325592D01*
Y324280D01*
X649312Y323624D01*
X117123Y256602D02*
Y259226D01*
Y257914D01*
X121059D01*
Y260538D02*
X117123D01*
Y262506D01*
X117779Y263161D01*
X119091D01*
X119747Y262506D01*
Y260538D01*
X117779Y264473D02*
X117123Y265129D01*
Y266441D01*
X117779Y267097D01*
X118435D01*
X119091Y266441D01*
Y265785D01*
Y266441D01*
X119747Y267097D01*
X120403D01*
X121059Y266441D01*
Y265129D01*
X120403Y264473D01*
X121059Y268409D02*
Y269721D01*
Y269065D01*
X117123D01*
X117779Y268409D01*
X79623Y255946D02*
Y258570D01*
Y257258D01*
X83559D01*
Y259882D02*
X79623D01*
Y261849D01*
X80279Y262506D01*
X81591D01*
X82247Y261849D01*
Y259882D01*
X80279Y263817D02*
X79623Y264473D01*
Y265785D01*
X80279Y266441D01*
X80935D01*
X81591Y265785D01*
Y265129D01*
Y265785D01*
X82247Y266441D01*
X82903D01*
X83559Y265785D01*
Y264473D01*
X82903Y263817D01*
X80279Y267753D02*
X79623Y268409D01*
Y269721D01*
X80279Y270377D01*
X82903D01*
X83559Y269721D01*
Y268409D01*
X82903Y267753D01*
X80279D01*
X104623Y255946D02*
Y258570D01*
Y257258D01*
X108559D01*
Y259882D02*
X104623D01*
Y261849D01*
X105279Y262506D01*
X106591D01*
X107247Y261849D01*
Y259882D01*
X108559Y266441D02*
Y263817D01*
X105935Y266441D01*
X105279D01*
X104623Y265785D01*
Y264473D01*
X105279Y263817D01*
X107903Y267753D02*
X108559Y268409D01*
Y269721D01*
X107903Y270377D01*
X105279D01*
X104623Y269721D01*
Y268409D01*
X105279Y267753D01*
X105935D01*
X106591Y268409D01*
Y270377D01*
X176785Y175968D02*
X179408D01*
X178096D01*
Y172032D01*
X180720D02*
Y175968D01*
X182688D01*
X183344Y175312D01*
Y174000D01*
X182688Y173344D01*
X180720D01*
X187280Y172032D02*
X184656D01*
X187280Y174656D01*
Y175312D01*
X186624Y175968D01*
X185312D01*
X184656Y175312D01*
X188592D02*
X189248Y175968D01*
X190560D01*
X191216Y175312D01*
Y174656D01*
X190560Y174000D01*
X191216Y173344D01*
Y172688D01*
X190560Y172032D01*
X189248D01*
X188592Y172688D01*
Y173344D01*
X189248Y174000D01*
X188592Y174656D01*
Y175312D01*
X189248Y174000D02*
X190560D01*
X176785Y190968D02*
X179408D01*
X178096D01*
Y187032D01*
X180720D02*
Y190968D01*
X182688D01*
X183344Y190312D01*
Y189000D01*
X182688Y188344D01*
X180720D01*
X187280Y187032D02*
X184656D01*
X187280Y189656D01*
Y190312D01*
X186624Y190968D01*
X185312D01*
X184656Y190312D01*
X188592Y190968D02*
X191216D01*
Y190312D01*
X188592Y187688D01*
Y187032D01*
X685784Y392968D02*
X688408D01*
X687096D01*
Y389032D01*
X689720D02*
Y392968D01*
X691688D01*
X692344Y392312D01*
Y391000D01*
X691688Y390344D01*
X689720D01*
X696280Y389032D02*
X693656D01*
X696280Y391656D01*
Y392312D01*
X695624Y392968D01*
X694312D01*
X693656Y392312D01*
X700215Y392968D02*
X698904Y392312D01*
X697592Y391000D01*
Y389688D01*
X698248Y389032D01*
X699560D01*
X700215Y389688D01*
Y390344D01*
X699560Y391000D01*
X697592D01*
X685784Y377968D02*
X688408D01*
X687096D01*
Y374032D01*
X689720D02*
Y377968D01*
X691688D01*
X692344Y377312D01*
Y376000D01*
X691688Y375344D01*
X689720D01*
X696280Y374032D02*
X693656D01*
X696280Y376656D01*
Y377312D01*
X695624Y377968D01*
X694312D01*
X693656Y377312D01*
X700215Y377968D02*
X697592D01*
Y376000D01*
X698904Y376656D01*
X699560D01*
X700215Y376000D01*
Y374688D01*
X699560Y374032D01*
X698248D01*
X697592Y374688D01*
X649468Y335252D02*
X645532D01*
Y337220D01*
X646188Y337876D01*
X647500D01*
X648156Y337220D01*
Y335252D01*
Y336564D02*
X649468Y337876D01*
Y341812D02*
Y339188D01*
X646844Y341812D01*
X646188D01*
X645532Y341156D01*
Y339844D01*
X646188Y339188D01*
X648812Y343124D02*
X649468Y343780D01*
Y345092D01*
X648812Y345748D01*
X646188D01*
X645532Y345092D01*
Y343780D01*
X646188Y343124D01*
X646844D01*
X647500Y343780D01*
Y345748D01*
X670968Y369752D02*
X667032D01*
Y371720D01*
X667688Y372376D01*
X669000D01*
X669656Y371720D01*
Y369752D01*
Y371064D02*
X670968Y372376D01*
Y376312D02*
Y373688D01*
X668344Y376312D01*
X667688D01*
X667032Y375656D01*
Y374344D01*
X667688Y373688D01*
Y377624D02*
X667032Y378280D01*
Y379592D01*
X667688Y380248D01*
X668344D01*
X669000Y379592D01*
X669656Y380248D01*
X670312D01*
X670968Y379592D01*
Y378280D01*
X670312Y377624D01*
X669656D01*
X669000Y378280D01*
X668344Y377624D01*
X667688D01*
X669000Y378280D02*
Y379592D01*
X662968Y343752D02*
X659032D01*
Y345720D01*
X659688Y346376D01*
X661000D01*
X661656Y345720D01*
Y343752D01*
Y345064D02*
X662968Y346376D01*
Y350312D02*
Y347688D01*
X660344Y350312D01*
X659688D01*
X659032Y349656D01*
Y348344D01*
X659688Y347688D01*
X659032Y351624D02*
Y354248D01*
X659688D01*
X662312Y351624D01*
X662968D01*
X624968Y374752D02*
X621032D01*
Y376720D01*
X621688Y377376D01*
X623000D01*
X623656Y376720D01*
Y374752D01*
Y376064D02*
X624968Y377376D01*
Y381312D02*
Y378688D01*
X622344Y381312D01*
X621688D01*
X621032Y380656D01*
Y379344D01*
X621688Y378688D01*
X621032Y385248D02*
X621688Y383936D01*
X623000Y382624D01*
X624312D01*
X624968Y383280D01*
Y384592D01*
X624312Y385248D01*
X623656D01*
X623000Y384592D01*
Y382624D01*
X630968Y374752D02*
X627032D01*
Y376720D01*
X627688Y377376D01*
X629000D01*
X629656Y376720D01*
Y374752D01*
Y376064D02*
X630968Y377376D01*
Y381312D02*
Y378688D01*
X628344Y381312D01*
X627688D01*
X627032Y380656D01*
Y379344D01*
X627688Y378688D01*
X627032Y385248D02*
Y382624D01*
X629000D01*
X628344Y383936D01*
Y384592D01*
X629000Y385248D01*
X630312D01*
X630968Y384592D01*
Y383280D01*
X630312Y382624D01*
X678688Y347376D02*
X678032Y346720D01*
Y345408D01*
X678688Y344752D01*
X681312D01*
X681968Y345408D01*
Y346720D01*
X681312Y347376D01*
X681968Y351312D02*
Y348688D01*
X679344Y351312D01*
X678688D01*
X678032Y350656D01*
Y349344D01*
X678688Y348688D01*
X681968Y355248D02*
Y352624D01*
X679344Y355248D01*
X678688D01*
X678032Y354592D01*
Y353280D01*
X678688Y352624D01*
X671188Y348688D02*
X670532Y348032D01*
Y346720D01*
X671188Y346064D01*
X673812D01*
X674468Y346720D01*
Y348032D01*
X673812Y348688D01*
X674468Y352624D02*
Y350000D01*
X671844Y352624D01*
X671188D01*
X670532Y351968D01*
Y350656D01*
X671188Y350000D01*
X674468Y353936D02*
Y355248D01*
Y354592D01*
X670532D01*
X671188Y353936D01*
X660688Y377376D02*
X660032Y376720D01*
Y375408D01*
X660688Y374752D01*
X663312D01*
X663968Y375408D01*
Y376720D01*
X663312Y377376D01*
X663968Y381312D02*
Y378688D01*
X661344Y381312D01*
X660688D01*
X660032Y380656D01*
Y379344D01*
X660688Y378688D01*
Y382624D02*
X660032Y383280D01*
Y384592D01*
X660688Y385248D01*
X663312D01*
X663968Y384592D01*
Y383280D01*
X663312Y382624D01*
X660688D01*
X634688Y377376D02*
X634032Y376720D01*
Y375408D01*
X634688Y374752D01*
X637312D01*
X637968Y375408D01*
Y376720D01*
X637312Y377376D01*
X637968Y378688D02*
Y380000D01*
Y379344D01*
X634032D01*
X634688Y378688D01*
X637312Y381968D02*
X637968Y382624D01*
Y383936D01*
X637312Y384592D01*
X634688D01*
X634032Y383936D01*
Y382624D01*
X634688Y381968D01*
X635344D01*
X636000Y382624D01*
Y384592D01*
X611188Y345704D02*
X610532Y345048D01*
Y343736D01*
X611188Y343080D01*
X613812D01*
X614468Y343736D01*
Y345048D01*
X613812Y345704D01*
X614468Y347016D02*
Y348328D01*
Y347672D01*
X610532D01*
X611188Y347016D01*
X610532Y350296D02*
Y352920D01*
X611188D01*
X613812Y350296D01*
X614468D01*
X115720Y281968D02*
Y281312D01*
X117032Y280000D01*
X118344Y281312D01*
Y281968D01*
X117032Y280000D02*
Y278032D01*
X122280D02*
X119656D01*
X122280Y280656D01*
Y281312D01*
X121624Y281968D01*
X120312D01*
X119656Y281312D01*
X146113Y290968D02*
X148736D01*
X147424D01*
Y287032D01*
X150048D02*
Y290968D01*
X152016D01*
X152672Y290312D01*
Y289000D01*
X152016Y288344D01*
X150048D01*
X153984Y287032D02*
X155296D01*
X154640D01*
Y290968D01*
X153984Y290312D01*
X159232Y287032D02*
Y290968D01*
X157264Y289000D01*
X159888D01*
X172113Y326968D02*
X174736D01*
X173424D01*
Y323032D01*
X176048D02*
Y326968D01*
X178016D01*
X178672Y326312D01*
Y325000D01*
X178016Y324344D01*
X176048D01*
X179984Y323032D02*
X181296D01*
X180640D01*
Y326968D01*
X179984Y326312D01*
X183264D02*
X183920Y326968D01*
X185232D01*
X185888Y326312D01*
Y323688D01*
X185232Y323032D01*
X183920D01*
X183264Y323688D01*
Y326312D01*
X173032Y258112D02*
Y260736D01*
Y259424D01*
X176968D01*
Y262048D02*
X173032D01*
Y264016D01*
X173688Y264672D01*
X175000D01*
X175656Y264016D01*
Y262048D01*
X176968Y265984D02*
Y267296D01*
Y266640D01*
X173032D01*
X173688Y265984D01*
X173032Y271887D02*
Y269264D01*
X175000D01*
X174344Y270576D01*
Y271232D01*
X175000Y271887D01*
X176312D01*
X176968Y271232D01*
Y269920D01*
X176312Y269264D01*
X172768Y333968D02*
X175392D01*
X174080D01*
Y330032D01*
X176704D02*
Y333968D01*
X178672D01*
X179328Y333312D01*
Y332000D01*
X178672Y331344D01*
X176704D01*
X180640Y330032D02*
X181952D01*
X181296D01*
Y333968D01*
X180640Y333312D01*
X183920Y330032D02*
X185232D01*
X184576D01*
Y333968D01*
X183920Y333312D01*
X72785Y339968D02*
X75408D01*
X74096D01*
Y336032D01*
X76720D02*
Y339968D01*
X78688D01*
X79344Y339312D01*
Y338000D01*
X78688Y337344D01*
X76720D01*
X83280Y336032D02*
X80656D01*
X83280Y338656D01*
Y339312D01*
X82624Y339968D01*
X81312D01*
X80656Y339312D01*
X84592Y336032D02*
X85904D01*
X85248D01*
Y339968D01*
X84592Y339312D01*
X163032Y258112D02*
Y260736D01*
Y259424D01*
X166968D01*
Y262048D02*
X163032D01*
Y264016D01*
X163688Y264672D01*
X165000D01*
X165656Y264016D01*
Y262048D01*
X166968Y265984D02*
Y267296D01*
Y266640D01*
X163032D01*
X163688Y265984D01*
Y269264D02*
X163032Y269920D01*
Y271232D01*
X163688Y271887D01*
X164344D01*
X165000Y271232D01*
Y270576D01*
Y271232D01*
X165656Y271887D01*
X166312D01*
X166968Y271232D01*
Y269920D01*
X166312Y269264D01*
X72785Y314168D02*
X75408D01*
X74096D01*
Y310232D01*
X76720D02*
Y314168D01*
X78688D01*
X79344Y313512D01*
Y312200D01*
X78688Y311544D01*
X76720D01*
X83280Y310232D02*
X80656D01*
X83280Y312856D01*
Y313512D01*
X82624Y314168D01*
X81312D01*
X80656Y313512D01*
X84592D02*
X85248Y314168D01*
X86560D01*
X87216Y313512D01*
Y310888D01*
X86560Y310232D01*
X85248D01*
X84592Y310888D01*
Y313512D01*
X156032Y258112D02*
Y260736D01*
Y259424D01*
X159968D01*
Y262048D02*
X156032D01*
Y264016D01*
X156688Y264672D01*
X158000D01*
X158656Y264016D01*
Y262048D01*
X159968Y265984D02*
Y267296D01*
Y266640D01*
X156032D01*
X156688Y265984D01*
X159968Y271887D02*
Y269264D01*
X157344Y271887D01*
X156688D01*
X156032Y271232D01*
Y269920D01*
X156688Y269264D01*
X72785Y331368D02*
X75408D01*
X74096D01*
Y327432D01*
X76720D02*
Y331368D01*
X78688D01*
X79344Y330712D01*
Y329400D01*
X78688Y328744D01*
X76720D01*
X80656Y327432D02*
X81968D01*
X81312D01*
Y331368D01*
X80656Y330712D01*
X83936D02*
X84592Y331368D01*
X85904D01*
X86560Y330712D01*
Y330056D01*
X85904Y329400D01*
X86560Y328744D01*
Y328088D01*
X85904Y327432D01*
X84592D01*
X83936Y328088D01*
Y328744D01*
X84592Y329400D01*
X83936Y330056D01*
Y330712D01*
X84592Y329400D02*
X85904D01*
X72785Y322768D02*
X75408D01*
X74096D01*
Y318832D01*
X76720D02*
Y322768D01*
X78688D01*
X79344Y322112D01*
Y320800D01*
X78688Y320144D01*
X76720D01*
X80656Y318832D02*
X81968D01*
X81312D01*
Y322768D01*
X80656Y322112D01*
X83936Y319488D02*
X84592Y318832D01*
X85904D01*
X86560Y319488D01*
Y322112D01*
X85904Y322768D01*
X84592D01*
X83936Y322112D01*
Y321456D01*
X84592Y320800D01*
X86560D01*
X180113Y289968D02*
X182736D01*
X181424D01*
Y286032D01*
X184048D02*
Y289968D01*
X186016D01*
X186672Y289312D01*
Y288000D01*
X186016Y287344D01*
X184048D01*
X187984Y286032D02*
X189296D01*
X188640D01*
Y289968D01*
X187984Y289312D01*
X193887Y289968D02*
X192576Y289312D01*
X191264Y288000D01*
Y286688D01*
X191920Y286032D01*
X193232D01*
X193887Y286688D01*
Y287344D01*
X193232Y288000D01*
X191264D01*
X72785Y296968D02*
X75408D01*
X74096D01*
Y293032D01*
X76720D02*
Y296968D01*
X78688D01*
X79344Y296312D01*
Y295000D01*
X78688Y294344D01*
X76720D01*
X80656Y293032D02*
X81968D01*
X81312D01*
Y296968D01*
X80656Y296312D01*
X83936Y296968D02*
X86560D01*
Y296312D01*
X83936Y293688D01*
Y293032D01*
X180968Y295080D02*
X177032D01*
Y297048D01*
X177688Y297704D01*
X179000D01*
X179656Y297048D01*
Y295080D01*
Y296392D02*
X180968Y297704D01*
Y299016D02*
Y300328D01*
Y299672D01*
X177032D01*
X177688Y299016D01*
X177032Y304920D02*
X177688Y303608D01*
X179000Y302296D01*
X180312D01*
X180968Y302952D01*
Y304264D01*
X180312Y304920D01*
X179656D01*
X179000Y304264D01*
Y302296D01*
X119968Y321080D02*
X116032D01*
Y323048D01*
X116688Y323704D01*
X118000D01*
X118656Y323048D01*
Y321080D01*
Y322392D02*
X119968Y323704D01*
Y325016D02*
Y326328D01*
Y325672D01*
X116032D01*
X116688Y325016D01*
X116032Y330920D02*
Y328296D01*
X118000D01*
X117344Y329608D01*
Y330264D01*
X118000Y330920D01*
X119312D01*
X119968Y330264D01*
Y328952D01*
X119312Y328296D01*
X112968Y326736D02*
X109032D01*
Y328704D01*
X109688Y329360D01*
X111000D01*
X111656Y328704D01*
Y326736D01*
Y328048D02*
X112968Y329360D01*
Y330672D02*
Y331984D01*
Y331328D01*
X109032D01*
X109688Y330672D01*
X112968Y333952D02*
Y335264D01*
Y334608D01*
X109032D01*
X109688Y333952D01*
X101080Y338032D02*
Y341968D01*
X103048D01*
X103704Y341312D01*
Y340000D01*
X103048Y339344D01*
X101080D01*
X102392D02*
X103704Y338032D01*
X105016D02*
X106328D01*
X105672D01*
Y341968D01*
X105016Y341312D01*
X110920Y338032D02*
X108296D01*
X110920Y340656D01*
Y341312D01*
X110264Y341968D01*
X108952D01*
X108296Y341312D01*
X198981Y301778D02*
Y297842D01*
X200949D01*
X201605Y298498D01*
Y301122D01*
X200949Y301778D01*
X198981D01*
X202917Y301122D02*
X203573Y301778D01*
X204885D01*
X205540Y301122D01*
Y300466D01*
X204885Y299810D01*
X205540Y299154D01*
Y298498D01*
X204885Y297842D01*
X203573D01*
X202917Y298498D01*
Y299154D01*
X203573Y299810D01*
X202917Y300466D01*
Y301122D01*
X203573Y299810D02*
X204885D01*
X206852Y301778D02*
X209476D01*
Y301122D01*
X206852Y298498D01*
Y297842D01*
X121032Y340752D02*
X124968D01*
Y342720D01*
X124312Y343376D01*
X121688D01*
X121032Y342720D01*
Y340752D01*
X121688Y344688D02*
X121032Y345344D01*
Y346656D01*
X121688Y347312D01*
X122344D01*
X123000Y346656D01*
X123656Y347312D01*
X124312D01*
X124968Y346656D01*
Y345344D01*
X124312Y344688D01*
X123656D01*
X123000Y345344D01*
X122344Y344688D01*
X121688D01*
X123000Y345344D02*
Y346656D01*
X121032Y351248D02*
X121688Y349936D01*
X123000Y348624D01*
X124312D01*
X124968Y349280D01*
Y350592D01*
X124312Y351248D01*
X123656D01*
X123000Y350592D01*
Y348624D01*
X139588Y335204D02*
X138932Y334548D01*
Y333236D01*
X139588Y332580D01*
X142212D01*
X142868Y333236D01*
Y334548D01*
X142212Y335204D01*
X142868Y336516D02*
Y337828D01*
Y337172D01*
X138932D01*
X139588Y336516D01*
X142868Y341764D02*
X138932D01*
X140900Y339796D01*
Y342420D01*
X167688Y303344D02*
X167032Y302688D01*
Y301376D01*
X167688Y300720D01*
X170312D01*
X170968Y301376D01*
Y302688D01*
X170312Y303344D01*
Y304656D02*
X170968Y305312D01*
Y306624D01*
X170312Y307280D01*
X167688D01*
X167032Y306624D01*
Y305312D01*
X167688Y304656D01*
X168344D01*
X169000Y305312D01*
Y307280D01*
X132204Y262312D02*
X131548Y262968D01*
X130236D01*
X129580Y262312D01*
Y259688D01*
X130236Y259032D01*
X131548D01*
X132204Y259688D01*
X133516Y259032D02*
X134828D01*
X134172D01*
Y262968D01*
X133516Y262312D01*
X139420Y262968D02*
X138108Y262312D01*
X136796Y261000D01*
Y259688D01*
X137452Y259032D01*
X138764D01*
X139420Y259688D01*
Y260344D01*
X138764Y261000D01*
X136796D01*
X140860Y296312D02*
X140204Y296968D01*
X138892D01*
X138236Y296312D01*
Y293688D01*
X138892Y293032D01*
X140204D01*
X140860Y293688D01*
X142172Y293032D02*
X143484D01*
X142828D01*
Y296968D01*
X142172Y296312D01*
X145452Y293032D02*
X146764D01*
X146108D01*
Y296968D01*
X145452Y296312D01*
X106204Y316887D02*
X105548Y317543D01*
X104236D01*
X103580Y316887D01*
Y314263D01*
X104236Y313607D01*
X105548D01*
X106204Y314263D01*
X107516Y313607D02*
X108828D01*
X108172D01*
Y317543D01*
X107516Y316887D01*
X110796D02*
X111452Y317543D01*
X112764D01*
X113420Y316887D01*
Y316231D01*
X112764Y315575D01*
X112108D01*
X112764D01*
X113420Y314919D01*
Y314263D01*
X112764Y313607D01*
X111452D01*
X110796Y314263D01*
X129704Y343812D02*
X129048Y344468D01*
X127736D01*
X127080Y343812D01*
Y341188D01*
X127736Y340532D01*
X129048D01*
X129704Y341188D01*
X131016Y340532D02*
X132328D01*
X131672D01*
Y344468D01*
X131016Y343812D01*
X136920Y340532D02*
X134296D01*
X136920Y343156D01*
Y343812D01*
X136264Y344468D01*
X134952D01*
X134296Y343812D01*
X156704Y338312D02*
X156048Y338968D01*
X154736D01*
X154080Y338312D01*
Y335688D01*
X154736Y335032D01*
X156048D01*
X156704Y335688D01*
X158016Y335032D02*
X159328D01*
X158672D01*
Y338968D01*
X158016Y338312D01*
X161296D02*
X161952Y338968D01*
X163264D01*
X163920Y338312D01*
Y335688D01*
X163264Y335032D01*
X161952D01*
X161296Y335688D01*
Y338312D01*
X144204Y262312D02*
X143548Y262968D01*
X142236D01*
X141580Y262312D01*
Y259688D01*
X142236Y259032D01*
X143548D01*
X144204Y259688D01*
X145516Y259032D02*
X146828D01*
X146172D01*
Y262968D01*
X145516Y262312D01*
X151420Y262968D02*
X148796D01*
Y261000D01*
X150108Y261656D01*
X150764D01*
X151420Y261000D01*
Y259688D01*
X150764Y259032D01*
X149452D01*
X148796Y259688D01*
X249607Y299438D02*
Y298782D01*
X250919Y297470D01*
X252231Y298782D01*
Y299438D01*
X250919Y297470D02*
Y295502D01*
X253543D02*
X254855D01*
X254199D01*
Y299438D01*
X253543Y298782D01*
X252016Y342062D02*
X254640D01*
X253328D01*
Y338126D01*
X255952D02*
Y342062D01*
X257920D01*
X258576Y341406D01*
Y340094D01*
X257920Y339438D01*
X255952D01*
X259888Y341406D02*
X260544Y342062D01*
X261856D01*
X262512Y341406D01*
Y340750D01*
X261856Y340094D01*
X261200D01*
X261856D01*
X262512Y339438D01*
Y338782D01*
X261856Y338126D01*
X260544D01*
X259888Y338782D01*
X282468Y349547D02*
X278532D01*
Y351515D01*
X279188Y352171D01*
X280500D01*
X281156Y351515D01*
Y349547D01*
Y350859D02*
X282468Y352171D01*
X278532Y356107D02*
Y353483D01*
X280500D01*
X279844Y354795D01*
Y355451D01*
X280500Y356107D01*
X281812D01*
X282468Y355451D01*
Y354139D01*
X281812Y353483D01*
X308968Y344720D02*
X305032D01*
Y346688D01*
X305688Y347344D01*
X307000D01*
X307656Y346688D01*
Y344720D01*
Y346032D02*
X308968Y347344D01*
Y350624D02*
X305032D01*
X307000Y348656D01*
Y351280D01*
X302968Y344720D02*
X299032D01*
Y346688D01*
X299688Y347344D01*
X301000D01*
X301656Y346688D01*
Y344720D01*
Y346032D02*
X302968Y347344D01*
X299688Y348656D02*
X299032Y349312D01*
Y350624D01*
X299688Y351280D01*
X300344D01*
X301000Y350624D01*
Y349968D01*
Y350624D01*
X301656Y351280D01*
X302312D01*
X302968Y350624D01*
Y349312D01*
X302312Y348656D01*
X296968Y344720D02*
X293032D01*
Y346688D01*
X293688Y347344D01*
X295000D01*
X295656Y346688D01*
Y344720D01*
Y346032D02*
X296968Y347344D01*
Y351280D02*
Y348656D01*
X294344Y351280D01*
X293688D01*
X293032Y350624D01*
Y349312D01*
X293688Y348656D01*
X296968Y287376D02*
X293032D01*
Y289344D01*
X293688Y290000D01*
X295000D01*
X295656Y289344D01*
Y287376D01*
Y288688D02*
X296968Y290000D01*
Y291312D02*
Y292624D01*
Y291968D01*
X293032D01*
X293688Y291312D01*
X267126Y364993D02*
X265814D01*
X266470D01*
Y361713D01*
X265814Y361057D01*
X265158D01*
X264502Y361713D01*
X268438Y361057D02*
Y364993D01*
X270406D01*
X271062Y364337D01*
Y363025D01*
X270406Y362369D01*
X268438D01*
X272374Y361057D02*
X273686D01*
X273030D01*
Y364993D01*
X272374Y364337D01*
X270032Y339408D02*
X273968D01*
Y341376D01*
X273312Y342032D01*
X270688D01*
X270032Y341376D01*
Y339408D01*
X270688Y343344D02*
X270032Y344000D01*
Y345312D01*
X270688Y345968D01*
X271344D01*
X272000Y345312D01*
X272656Y345968D01*
X273312D01*
X273968Y345312D01*
Y344000D01*
X273312Y343344D01*
X272656D01*
X272000Y344000D01*
X271344Y343344D01*
X270688D01*
X272000Y344000D02*
Y345312D01*
X273968Y347280D02*
Y348592D01*
Y347936D01*
X270032D01*
X270688Y347280D01*
X313032Y332752D02*
X316968D01*
Y334720D01*
X316312Y335376D01*
X313688D01*
X313032Y334720D01*
Y332752D01*
X313688Y336688D02*
X313032Y337344D01*
Y338656D01*
X313688Y339312D01*
X314344D01*
X315000Y338656D01*
X315656Y339312D01*
X316312D01*
X316968Y338656D01*
Y337344D01*
X316312Y336688D01*
X315656D01*
X315000Y337344D01*
X314344Y336688D01*
X313688D01*
X315000Y337344D02*
Y338656D01*
X313688Y340624D02*
X313032Y341280D01*
Y342592D01*
X313688Y343248D01*
X316312D01*
X316968Y342592D01*
Y341280D01*
X316312Y340624D01*
X313688D01*
X263419Y325314D02*
X262763Y324658D01*
Y323346D01*
X263419Y322690D01*
X266043D01*
X266699Y323346D01*
Y324658D01*
X266043Y325314D01*
X263419Y326626D02*
X262763Y327282D01*
Y328594D01*
X263419Y329250D01*
X264075D01*
X264731Y328594D01*
X265387Y329250D01*
X266043D01*
X266699Y328594D01*
Y327282D01*
X266043Y326626D01*
X265387D01*
X264731Y327282D01*
X264075Y326626D01*
X263419D01*
X264731Y327282D02*
Y328594D01*
X318344Y322312D02*
X317688Y322968D01*
X316376D01*
X315720Y322312D01*
Y319688D01*
X316376Y319032D01*
X317688D01*
X318344Y319688D01*
X322280Y322968D02*
X320968Y322312D01*
X319656Y321000D01*
Y319688D01*
X320312Y319032D01*
X321624D01*
X322280Y319688D01*
Y320344D01*
X321624Y321000D01*
X319656D01*
X308688Y290344D02*
X308032Y289688D01*
Y288376D01*
X308688Y287720D01*
X311312D01*
X311968Y288376D01*
Y289688D01*
X311312Y290344D01*
X308032Y294280D02*
Y291656D01*
X310000D01*
X309344Y292968D01*
Y293624D01*
X310000Y294280D01*
X311312D01*
X311968Y293624D01*
Y292312D01*
X311312Y291656D01*
X268919Y328314D02*
X268263Y327658D01*
Y326346D01*
X268919Y325690D01*
X271543D01*
X272199Y326346D01*
Y327658D01*
X271543Y328314D01*
X272199Y331594D02*
X268263D01*
X270231Y329626D01*
Y332250D01*
X318344Y328312D02*
X317688Y328968D01*
X316376D01*
X315720Y328312D01*
Y325688D01*
X316376Y325032D01*
X317688D01*
X318344Y325688D01*
X319656Y328312D02*
X320312Y328968D01*
X321624D01*
X322280Y328312D01*
Y327656D01*
X321624Y327000D01*
X320968D01*
X321624D01*
X322280Y326344D01*
Y325688D01*
X321624Y325032D01*
X320312D01*
X319656Y325688D01*
X278457Y282374D02*
X277801Y281718D01*
Y280406D01*
X278457Y279750D01*
X281081D01*
X281737Y280406D01*
Y281718D01*
X281081Y282374D01*
X281737Y286310D02*
Y283686D01*
X279113Y286310D01*
X278457D01*
X277801Y285654D01*
Y284342D01*
X278457Y283686D01*
X286688Y353000D02*
X286032Y352344D01*
Y351032D01*
X286688Y350376D01*
X289312D01*
X289968Y351032D01*
Y352344D01*
X289312Y353000D01*
X289968Y354312D02*
Y355624D01*
Y354968D01*
X286032D01*
X286688Y354312D01*
X30103Y37393D02*
Y33457D01*
X32070D01*
X32726Y34113D01*
Y34769D01*
X32070Y35425D01*
X30103D01*
X32070D01*
X32726Y36081D01*
Y36737D01*
X32070Y37393D01*
X30103D01*
X34038Y36737D02*
X34694Y37393D01*
X36006D01*
X36662Y36737D01*
Y36081D01*
X36006Y35425D01*
X36662Y34769D01*
Y34113D01*
X36006Y33457D01*
X34694D01*
X34038Y34113D01*
Y34769D01*
X34694Y35425D01*
X34038Y36081D01*
Y36737D01*
X34694Y35425D02*
X36006D01*
X40598Y37393D02*
X39286Y36737D01*
X37974Y35425D01*
Y34113D01*
X38630Y33457D01*
X39942D01*
X40598Y34113D01*
Y34769D01*
X39942Y35425D01*
X37974D01*
X34752Y396968D02*
Y393032D01*
X36720D01*
X37376Y393688D01*
Y394344D01*
X36720Y395000D01*
X34752D01*
X36720D01*
X37376Y395656D01*
Y396312D01*
X36720Y396968D01*
X34752D01*
X38688Y396312D02*
X39344Y396968D01*
X40656D01*
X41312Y396312D01*
Y395656D01*
X40656Y395000D01*
X41312Y394344D01*
Y393688D01*
X40656Y393032D01*
X39344D01*
X38688Y393688D01*
Y394344D01*
X39344Y395000D01*
X38688Y395656D01*
Y396312D01*
X39344Y395000D02*
X40656D01*
X45248Y396968D02*
X42624D01*
Y395000D01*
X43936Y395656D01*
X44592D01*
X45248Y395000D01*
Y393688D01*
X44592Y393032D01*
X43280D01*
X42624Y393688D01*
X678968Y403720D02*
X675032D01*
Y405688D01*
X675688Y406344D01*
X677000D01*
X677656Y405688D01*
Y403720D01*
Y405032D02*
X678968Y406344D01*
X675032Y407656D02*
Y410280D01*
X675688D01*
X678312Y407656D01*
X678968D01*
X694968Y403720D02*
X691032D01*
Y405688D01*
X691688Y406344D01*
X693000D01*
X693656Y405688D01*
Y403720D01*
Y405032D02*
X694968Y406344D01*
X691032Y410280D02*
X691688Y408968D01*
X693000Y407656D01*
X694312D01*
X694968Y408312D01*
Y409624D01*
X694312Y410280D01*
X693656D01*
X693000Y409624D01*
Y407656D01*
X268376Y297968D02*
Y294688D01*
X269032Y294032D01*
X270344D01*
X271000Y294688D01*
Y297968D01*
X272312Y294032D02*
X273624D01*
X272968D01*
Y297968D01*
X272312Y297312D01*
X262688Y302344D02*
X262032Y301688D01*
Y300376D01*
X262688Y299720D01*
X265312D01*
X265968Y300376D01*
Y301688D01*
X265312Y302344D01*
X262032Y303656D02*
Y306280D01*
X262688D01*
X265312Y303656D01*
X265968D01*
X297801Y367782D02*
Y370406D01*
Y369094D01*
X301737D01*
Y371718D02*
X297801D01*
Y373686D01*
X298457Y374342D01*
X299769D01*
X300425Y373686D01*
Y371718D01*
X298457Y375654D02*
X297801Y376310D01*
Y377622D01*
X298457Y378278D01*
X299113D01*
X299769Y377622D01*
X300425Y378278D01*
X301081D01*
X301737Y377622D01*
Y376310D01*
X301081Y375654D01*
X300425D01*
X299769Y376310D01*
X299113Y375654D01*
X298457D01*
X299769Y376310D02*
Y377622D01*
X287801Y367782D02*
Y370406D01*
Y369094D01*
X291737D01*
Y371718D02*
X287801D01*
Y373686D01*
X288457Y374342D01*
X289769D01*
X290425Y373686D01*
Y371718D01*
X287801Y378278D02*
Y375654D01*
X289769D01*
X289113Y376966D01*
Y377622D01*
X289769Y378278D01*
X291081D01*
X291737Y377622D01*
Y376310D01*
X291081Y375654D01*
X109784Y298968D02*
X112408D01*
X111096D01*
Y295032D01*
X113720D02*
Y298968D01*
X115688D01*
X116344Y298312D01*
Y297000D01*
X115688Y296344D01*
X113720D01*
X120280Y295032D02*
X117656D01*
X120280Y297656D01*
Y298312D01*
X119624Y298968D01*
X118312D01*
X117656Y298312D01*
X123560Y295032D02*
Y298968D01*
X121592Y297000D01*
X124215D01*
X72785Y305568D02*
X75408D01*
X74096D01*
Y301632D01*
X76720D02*
Y305568D01*
X78688D01*
X79344Y304912D01*
Y303600D01*
X78688Y302944D01*
X76720D01*
X83280Y301632D02*
X80656D01*
X83280Y304256D01*
Y304912D01*
X82624Y305568D01*
X81312D01*
X80656Y304912D01*
X84592D02*
X85248Y305568D01*
X86560D01*
X87216Y304912D01*
Y304256D01*
X86560Y303600D01*
X85904D01*
X86560D01*
X87216Y302944D01*
Y302288D01*
X86560Y301632D01*
X85248D01*
X84592Y302288D01*
X108784Y309968D02*
X111408D01*
X110096D01*
Y306032D01*
X112720D02*
Y309968D01*
X114688D01*
X115344Y309312D01*
Y308000D01*
X114688Y307344D01*
X112720D01*
X119280Y306032D02*
X116656D01*
X119280Y308656D01*
Y309312D01*
X118624Y309968D01*
X117312D01*
X116656Y309312D01*
X123215Y306032D02*
X120592D01*
X123215Y308656D01*
Y309312D01*
X122560Y309968D01*
X121248D01*
X120592Y309312D01*
X129468Y379064D02*
X125532D01*
Y381032D01*
X126188Y381688D01*
X127500D01*
X128156Y381032D01*
Y379064D01*
Y380376D02*
X129468Y381688D01*
Y385624D02*
Y383000D01*
X126844Y385624D01*
X126188D01*
X125532Y384968D01*
Y383656D01*
X126188Y383000D01*
X129468Y386936D02*
Y388248D01*
Y387592D01*
X125532D01*
X126188Y386936D01*
X99468Y378408D02*
X95532D01*
Y380376D01*
X96188Y381032D01*
X97500D01*
X98156Y380376D01*
Y378408D01*
Y379720D02*
X99468Y381032D01*
Y382344D02*
Y383656D01*
Y383000D01*
X95532D01*
X96188Y382344D01*
Y385624D02*
X95532Y386280D01*
Y387592D01*
X96188Y388248D01*
X96844D01*
X97500Y387592D01*
Y386936D01*
Y387592D01*
X98156Y388248D01*
X98812D01*
X99468Y387592D01*
Y386280D01*
X98812Y385624D01*
X139468Y377752D02*
X135532D01*
Y379720D01*
X136188Y380376D01*
X137500D01*
X138156Y379720D01*
Y377752D01*
Y379064D02*
X139468Y380376D01*
Y384312D02*
Y381688D01*
X136844Y384312D01*
X136188D01*
X135532Y383656D01*
Y382344D01*
X136188Y381688D01*
Y385624D02*
X135532Y386280D01*
Y387592D01*
X136188Y388248D01*
X136844D01*
X137500Y387592D01*
Y386936D01*
Y387592D01*
X138156Y388248D01*
X138812D01*
X139468Y387592D01*
Y386280D01*
X138812Y385624D01*
X159468Y378408D02*
X155532D01*
Y380376D01*
X156188Y381032D01*
X157500D01*
X158156Y380376D01*
Y378408D01*
Y379720D02*
X159468Y381032D01*
Y382344D02*
Y383656D01*
Y383000D01*
X155532D01*
X156188Y382344D01*
X159468Y387592D02*
X155532D01*
X157500Y385624D01*
Y388248D01*
X199468Y377752D02*
X195532D01*
Y379720D01*
X196188Y380376D01*
X197500D01*
X198156Y379720D01*
Y377752D01*
Y379064D02*
X199468Y380376D01*
Y384312D02*
Y381688D01*
X196844Y384312D01*
X196188D01*
X195532Y383656D01*
Y382344D01*
X196188Y381688D01*
X199468Y387592D02*
X195532D01*
X197500Y385624D01*
Y388248D01*
X119468Y378408D02*
X115532D01*
Y380376D01*
X116188Y381032D01*
X117500D01*
X118156Y380376D01*
Y378408D01*
Y379720D02*
X119468Y381032D01*
Y382344D02*
Y383656D01*
Y383000D01*
X115532D01*
X116188Y382344D01*
X118812Y385624D02*
X119468Y386280D01*
Y387592D01*
X118812Y388248D01*
X116188D01*
X115532Y387592D01*
Y386280D01*
X116188Y385624D01*
X116844D01*
X117500Y386280D01*
Y388248D01*
X87968Y378720D02*
X84032D01*
Y380688D01*
X84688Y381344D01*
X86000D01*
X86656Y380688D01*
Y378720D01*
Y380032D02*
X87968Y381344D01*
X84688Y382656D02*
X84032Y383312D01*
Y384624D01*
X84688Y385280D01*
X85344D01*
X86000Y384624D01*
X86656Y385280D01*
X87312D01*
X87968Y384624D01*
Y383312D01*
X87312Y382656D01*
X86656D01*
X86000Y383312D01*
X85344Y382656D01*
X84688D01*
X86000Y383312D02*
Y384624D01*
X179468Y377752D02*
X175532D01*
Y379720D01*
X176188Y380376D01*
X177500D01*
X178156Y379720D01*
Y377752D01*
Y379064D02*
X179468Y380376D01*
Y384312D02*
Y381688D01*
X176844Y384312D01*
X176188D01*
X175532Y383656D01*
Y382344D01*
X176188Y381688D01*
Y385624D02*
X175532Y386280D01*
Y387592D01*
X176188Y388248D01*
X178812D01*
X179468Y387592D01*
Y386280D01*
X178812Y385624D01*
X176188D01*
X149468Y381688D02*
X145532D01*
Y383656D01*
X146188Y384312D01*
X147500D01*
X148156Y383656D01*
Y381688D01*
Y383000D02*
X149468Y384312D01*
X148812Y385624D02*
X149468Y386280D01*
Y387592D01*
X148812Y388248D01*
X146188D01*
X145532Y387592D01*
Y386280D01*
X146188Y385624D01*
X146844D01*
X147500Y386280D01*
Y388248D01*
X189468Y377752D02*
X185532D01*
Y379720D01*
X186188Y380376D01*
X187500D01*
X188156Y379720D01*
Y377752D01*
Y379064D02*
X189468Y380376D01*
Y384312D02*
Y381688D01*
X186844Y384312D01*
X186188D01*
X185532Y383656D01*
Y382344D01*
X186188Y381688D01*
X189468Y388248D02*
Y385624D01*
X186844Y388248D01*
X186188D01*
X185532Y387592D01*
Y386280D01*
X186188Y385624D01*
X109468Y378408D02*
X105532D01*
Y380376D01*
X106188Y381032D01*
X107500D01*
X108156Y380376D01*
Y378408D01*
Y379720D02*
X109468Y381032D01*
Y382344D02*
Y383656D01*
Y383000D01*
X105532D01*
X106188Y382344D01*
X105532Y385624D02*
Y388248D01*
X106188D01*
X108812Y385624D01*
X109468D01*
X169468Y378408D02*
X165532D01*
Y380376D01*
X166188Y381032D01*
X167500D01*
X168156Y380376D01*
Y378408D01*
Y379720D02*
X169468Y381032D01*
Y382344D02*
Y383656D01*
Y383000D01*
X165532D01*
X166188Y382344D01*
Y385624D02*
X165532Y386280D01*
Y387592D01*
X166188Y388248D01*
X166844D01*
X167500Y387592D01*
X168156Y388248D01*
X168812D01*
X169468Y387592D01*
Y386280D01*
X168812Y385624D01*
X168156D01*
X167500Y386280D01*
X166844Y385624D01*
X166188D01*
X167500Y386280D02*
Y387592D01*
X167752Y349968D02*
Y346032D01*
X169720D01*
X170376Y346688D01*
Y349312D01*
X169720Y349968D01*
X167752D01*
X171688Y349312D02*
X172344Y349968D01*
X173656D01*
X174312Y349312D01*
Y348656D01*
X173656Y348000D01*
X174312Y347344D01*
Y346688D01*
X173656Y346032D01*
X172344D01*
X171688Y346688D01*
Y347344D01*
X172344Y348000D01*
X171688Y348656D01*
Y349312D01*
X172344Y348000D02*
X173656D01*
X175624Y346688D02*
X176280Y346032D01*
X177592D01*
X178248Y346688D01*
Y349312D01*
X177592Y349968D01*
X176280D01*
X175624Y349312D01*
Y348656D01*
X176280Y348000D01*
X178248D01*
X146752Y349968D02*
Y346032D01*
X148720D01*
X149376Y346688D01*
Y349312D01*
X148720Y349968D01*
X146752D01*
X150688Y349312D02*
X151344Y349968D01*
X152656D01*
X153312Y349312D01*
Y348656D01*
X152656Y348000D01*
X153312Y347344D01*
Y346688D01*
X152656Y346032D01*
X151344D01*
X150688Y346688D01*
Y347344D01*
X151344Y348000D01*
X150688Y348656D01*
Y349312D01*
X151344Y348000D02*
X152656D01*
X154624Y349312D02*
X155280Y349968D01*
X156592D01*
X157248Y349312D01*
Y348656D01*
X156592Y348000D01*
X155936D01*
X156592D01*
X157248Y347344D01*
Y346688D01*
X156592Y346032D01*
X155280D01*
X154624Y346688D01*
X126752Y349968D02*
Y346032D01*
X128720D01*
X129376Y346688D01*
Y349312D01*
X128720Y349968D01*
X126752D01*
X130688Y346688D02*
X131344Y346032D01*
X132656D01*
X133312Y346688D01*
Y349312D01*
X132656Y349968D01*
X131344D01*
X130688Y349312D01*
Y348656D01*
X131344Y348000D01*
X133312D01*
X137248Y346032D02*
X134624D01*
X137248Y348656D01*
Y349312D01*
X136592Y349968D01*
X135280D01*
X134624Y349312D01*
X87752Y349968D02*
Y346032D01*
X89720D01*
X90376Y346688D01*
Y349312D01*
X89720Y349968D01*
X87752D01*
X91688Y349312D02*
X92344Y349968D01*
X93656D01*
X94312Y349312D01*
Y348656D01*
X93656Y348000D01*
X94312Y347344D01*
Y346688D01*
X93656Y346032D01*
X92344D01*
X91688Y346688D01*
Y347344D01*
X92344Y348000D01*
X91688Y348656D01*
Y349312D01*
X92344Y348000D02*
X93656D01*
X98248Y346032D02*
X95624D01*
X98248Y348656D01*
Y349312D01*
X97592Y349968D01*
X96280D01*
X95624Y349312D01*
X107752Y349968D02*
Y346032D01*
X109720D01*
X110376Y346688D01*
Y349312D01*
X109720Y349968D01*
X107752D01*
X111688Y349312D02*
X112344Y349968D01*
X113656D01*
X114312Y349312D01*
Y348656D01*
X113656Y348000D01*
X114312Y347344D01*
Y346688D01*
X113656Y346032D01*
X112344D01*
X111688Y346688D01*
Y347344D01*
X112344Y348000D01*
X111688Y348656D01*
Y349312D01*
X112344Y348000D02*
X113656D01*
X115624Y349312D02*
X116280Y349968D01*
X117592D01*
X118248Y349312D01*
Y348656D01*
X117592Y348000D01*
X118248Y347344D01*
Y346688D01*
X117592Y346032D01*
X116280D01*
X115624Y346688D01*
Y347344D01*
X116280Y348000D01*
X115624Y348656D01*
Y349312D01*
X116280Y348000D02*
X117592D01*
D15*
X151951Y366835D02*
X155449D01*
Y368584D01*
X154866Y369167D01*
X152534D01*
X151951Y368584D01*
Y366835D01*
X152534Y370334D02*
X151951Y370917D01*
Y372083D01*
X152534Y372666D01*
X153117D01*
X153700Y372083D01*
X154283Y372666D01*
X154866D01*
X155449Y372083D01*
Y370917D01*
X154866Y370334D01*
X154283D01*
X153700Y370917D01*
X153117Y370334D01*
X152534D01*
X153700Y370917D02*
Y372083D01*
X151951Y376165D02*
Y373833D01*
X153700D01*
X153117Y374999D01*
Y375582D01*
X153700Y376165D01*
X154866D01*
X155449Y375582D01*
Y374416D01*
X154866Y373833D01*
X90751Y366835D02*
X94249D01*
Y368584D01*
X93666Y369167D01*
X91334D01*
X90751Y368584D01*
Y366835D01*
X91334Y370334D02*
X90751Y370917D01*
Y372083D01*
X91334Y372666D01*
X91917D01*
X92500Y372083D01*
X93083Y372666D01*
X93666D01*
X94249Y372083D01*
Y370917D01*
X93666Y370334D01*
X93083D01*
X92500Y370917D01*
X91917Y370334D01*
X91334D01*
X92500Y370917D02*
Y372083D01*
X94249Y375582D02*
X90751D01*
X92500Y373833D01*
Y376165D01*
X171751Y366762D02*
X175249D01*
Y368512D01*
X174666Y369095D01*
X172334D01*
X171751Y368512D01*
Y366762D01*
X174666Y370261D02*
X175249Y370844D01*
Y372010D01*
X174666Y372593D01*
X172334D01*
X171751Y372010D01*
Y370844D01*
X172334Y370261D01*
X172917D01*
X173500Y370844D01*
Y372593D01*
X175249Y373760D02*
Y374926D01*
Y374343D01*
X171751D01*
X172334Y373760D01*
X131751Y366835D02*
X135249D01*
Y368584D01*
X134666Y369167D01*
X132334D01*
X131751Y368584D01*
Y366835D01*
X134666Y370334D02*
X135249Y370917D01*
Y372083D01*
X134666Y372666D01*
X132334D01*
X131751Y372083D01*
Y370917D01*
X132334Y370334D01*
X132917D01*
X133500Y370917D01*
Y372666D01*
X135249Y375582D02*
X131751D01*
X133500Y373833D01*
Y376165D01*
X111951Y366052D02*
X115449D01*
Y367802D01*
X114866Y368385D01*
X112534D01*
X111951Y367802D01*
Y366052D01*
X114866Y369551D02*
X115449Y370134D01*
Y371301D01*
X114866Y371884D01*
X112534D01*
X111951Y371301D01*
Y370134D01*
X112534Y369551D01*
X113117D01*
X113700Y370134D01*
Y371884D01*
X112534Y373050D02*
X111951Y373633D01*
Y374799D01*
X112534Y375383D01*
X114866D01*
X115449Y374799D01*
Y373633D01*
X114866Y373050D01*
X112534D01*
X191951Y366835D02*
X195449D01*
Y368584D01*
X194866Y369167D01*
X192534D01*
X191951Y368584D01*
Y366835D01*
X194866Y370334D02*
X195449Y370917D01*
Y372083D01*
X194866Y372666D01*
X192534D01*
X191951Y372083D01*
Y370917D01*
X192534Y370334D01*
X193117D01*
X193700Y370917D01*
Y372666D01*
X191951Y376165D02*
Y373833D01*
X193700D01*
X193117Y374999D01*
Y375582D01*
X193700Y376165D01*
X194866D01*
X195449Y375582D01*
Y374416D01*
X194866Y373833D01*
M02*
