G04*
G04 #@! TF.GenerationSoftware,Altium Limited,Altium Designer,23.3.1 (30)*
G04*
G04 Layer_Color=8388736*
%FSLAX25Y25*%
%MOIN*%
G70*
G04*
G04 #@! TF.SameCoordinates,65CDCF12-2861-4885-BE21-4D3676ECD45B*
G04*
G04*
G04 #@! TF.FilePolarity,Negative*
G04*
G01*
G75*
%ADD23R,0.02756X0.04724*%
%ADD24R,0.02992X0.04724*%
%ADD25R,0.03150X0.04724*%
%ADD26R,0.21260X0.21260*%
G04:AMPARAMS|DCode=27|XSize=11.81mil|YSize=39.37mil|CornerRadius=5.91mil|HoleSize=0mil|Usage=FLASHONLY|Rotation=0.000|XOffset=0mil|YOffset=0mil|HoleType=Round|Shape=RoundedRectangle|*
%AMROUNDEDRECTD27*
21,1,0.01181,0.02756,0,0,0.0*
21,1,0.00000,0.03937,0,0,0.0*
1,1,0.01181,0.00000,-0.01378*
1,1,0.01181,0.00000,-0.01378*
1,1,0.01181,0.00000,0.01378*
1,1,0.01181,0.00000,0.01378*
%
%ADD27ROUNDEDRECTD27*%
G04:AMPARAMS|DCode=28|XSize=39.37mil|YSize=11.81mil|CornerRadius=5.91mil|HoleSize=0mil|Usage=FLASHONLY|Rotation=0.000|XOffset=0mil|YOffset=0mil|HoleType=Round|Shape=RoundedRectangle|*
%AMROUNDEDRECTD28*
21,1,0.03937,0.00000,0,0,0.0*
21,1,0.02756,0.01181,0,0,0.0*
1,1,0.01181,0.01378,0.00000*
1,1,0.01181,-0.01378,0.00000*
1,1,0.01181,-0.01378,0.00000*
1,1,0.01181,0.01378,0.00000*
%
%ADD28ROUNDEDRECTD28*%
%ADD30R,0.06127X0.05727*%
%ADD31R,0.05118X0.02756*%
%ADD32R,0.02254X0.02423*%
%ADD33R,0.03858X0.13386*%
%ADD38R,0.02756X0.02756*%
%ADD39R,0.01968X0.02362*%
%ADD40R,0.10236X0.07480*%
%ADD41R,0.02047X0.02047*%
%ADD42R,0.01575X0.01968*%
%ADD43R,0.01968X0.02756*%
%ADD45R,0.02047X0.02047*%
%ADD46R,0.01968X0.01575*%
%ADD49R,0.02362X0.01968*%
G04:AMPARAMS|DCode=50|XSize=39.37mil|YSize=11.81mil|CornerRadius=5.91mil|HoleSize=0mil|Usage=FLASHONLY|Rotation=270.000|XOffset=0mil|YOffset=0mil|HoleType=Round|Shape=RoundedRectangle|*
%AMROUNDEDRECTD50*
21,1,0.03937,0.00000,0,0,270.0*
21,1,0.02756,0.01181,0,0,270.0*
1,1,0.01181,0.00000,-0.01378*
1,1,0.01181,0.00000,0.01378*
1,1,0.01181,0.00000,0.01378*
1,1,0.01181,0.00000,-0.01378*
%
%ADD50ROUNDEDRECTD50*%
G04:AMPARAMS|DCode=51|XSize=11.81mil|YSize=39.37mil|CornerRadius=5.91mil|HoleSize=0mil|Usage=FLASHONLY|Rotation=270.000|XOffset=0mil|YOffset=0mil|HoleType=Round|Shape=RoundedRectangle|*
%AMROUNDEDRECTD51*
21,1,0.01181,0.02756,0,0,270.0*
21,1,0.00000,0.03937,0,0,270.0*
1,1,0.01181,-0.01378,0.00000*
1,1,0.01181,-0.01378,0.00000*
1,1,0.01181,0.01378,0.00000*
1,1,0.01181,0.01378,0.00000*
%
%ADD51ROUNDEDRECTD51*%
%ADD52R,0.21260X0.21260*%
%ADD53R,0.02756X0.01968*%
%ADD54R,0.07480X0.10236*%
%ADD55R,0.03950X0.04343*%
%ADD56R,0.04737X0.10642*%
%ADD57R,0.14967X0.14967*%
%ADD58O,0.03943X0.01502*%
%ADD59O,0.01502X0.03943*%
G04:AMPARAMS|DCode=60|XSize=401.7mil|YSize=401.7mil|CornerRadius=13.84mil|HoleSize=0mil|Usage=FLASHONLY|Rotation=0.000|XOffset=0mil|YOffset=0mil|HoleType=Round|Shape=RoundedRectangle|*
%AMROUNDEDRECTD60*
21,1,0.40170,0.37402,0,0,0.0*
21,1,0.37402,0.40170,0,0,0.0*
1,1,0.02769,0.18701,-0.18701*
1,1,0.02769,-0.18701,-0.18701*
1,1,0.02769,-0.18701,0.18701*
1,1,0.02769,0.18701,0.18701*
%
%ADD60ROUNDEDRECTD60*%
G04:AMPARAMS|DCode=61|XSize=401.7mil|YSize=322.96mil|CornerRadius=11.87mil|HoleSize=0mil|Usage=FLASHONLY|Rotation=0.000|XOffset=0mil|YOffset=0mil|HoleType=Round|Shape=RoundedRectangle|*
%AMROUNDEDRECTD61*
21,1,0.40170,0.29921,0,0,0.0*
21,1,0.37795,0.32296,0,0,0.0*
1,1,0.02375,0.18898,-0.14961*
1,1,0.02375,-0.18898,-0.14961*
1,1,0.02375,-0.18898,0.14961*
1,1,0.02375,0.18898,0.14961*
%
%ADD61ROUNDEDRECTD61*%
%ADD62R,0.04500X0.06706*%
%ADD63R,0.02572X0.02572*%
%ADD64C,0.06706*%
%ADD65R,0.09461X0.04737*%
%ADD66R,0.09461X0.13792*%
%ADD67C,0.10642*%
%ADD68C,0.04737*%
%ADD69R,0.02565X0.02762*%
%ADD70R,0.02762X0.02565*%
%ADD71R,0.02572X0.02572*%
%ADD72R,0.06706X0.04600*%
%ADD73R,0.06706X0.04400*%
%ADD74C,0.06693*%
G04:AMPARAMS|DCode=75|XSize=43.31mil|YSize=66.93mil|CornerRadius=21.65mil|HoleSize=0mil|Usage=FLASHONLY|Rotation=180.000|XOffset=0mil|YOffset=0mil|HoleType=Round|Shape=RoundedRectangle|*
%AMROUNDEDRECTD75*
21,1,0.04331,0.02362,0,0,180.0*
21,1,0.00000,0.06693,0,0,180.0*
1,1,0.04331,0.00000,0.01181*
1,1,0.04331,0.00000,0.01181*
1,1,0.04331,0.00000,-0.01181*
1,1,0.04331,0.00000,-0.01181*
%
%ADD75ROUNDEDRECTD75*%
%ADD76R,0.11725X0.11725*%
%ADD77C,0.11725*%
%ADD78C,0.11417*%
%ADD79C,0.10236*%
%ADD80C,0.12992*%
%ADD81C,0.03200*%
G36*
X656608Y366651D02*
X656663Y366596D01*
X656693Y366523D01*
X656693Y366484D01*
X656693Y365894D01*
X656693Y365855D01*
X656663Y365782D01*
X656608Y365727D01*
X656535Y365697D01*
X656496Y365697D01*
X655315D01*
Y364713D01*
X656496Y364713D01*
Y364713D01*
X656535D01*
X656607Y364683D01*
X656663Y364627D01*
X656693Y364555D01*
Y364516D01*
X656693Y363925D01*
Y363925D01*
X656693Y363886D01*
X656663Y363814D01*
X656608Y363758D01*
X656535Y363728D01*
X656496Y363728D01*
X654528Y363728D01*
X654528D01*
X654488Y363728D01*
X654416Y363758D01*
X654361Y363814D01*
X654331Y363886D01*
X654331Y363925D01*
X654331Y366484D01*
X654331Y366523D01*
X654361Y366596D01*
X654416Y366651D01*
X654488Y366681D01*
X654528Y366681D01*
X656496Y366681D01*
Y366681D01*
X656535Y366681D01*
X656608Y366651D01*
D02*
G37*
G36*
X645472Y366681D02*
X645512D01*
X645584Y366651D01*
X645639Y366596D01*
X645669Y366523D01*
Y366484D01*
X645669Y366484D01*
X645669Y363925D01*
X645669Y363886D01*
X645639Y363814D01*
X645584Y363758D01*
X645512Y363728D01*
X645472Y363728D01*
X643504Y363728D01*
X643465Y363728D01*
X643392Y363758D01*
X643337Y363814D01*
X643307Y363886D01*
X643307Y363925D01*
X643307D01*
Y364516D01*
Y364555D01*
X643337Y364627D01*
X643392Y364683D01*
X643465Y364713D01*
X643504D01*
X643504Y364713D01*
X644685D01*
Y365697D01*
X643504D01*
X643465Y365697D01*
X643392Y365727D01*
X643337Y365782D01*
X643307Y365855D01*
X643307Y365894D01*
X643307D01*
Y366484D01*
Y366523D01*
X643337Y366596D01*
X643392Y366651D01*
X643465Y366681D01*
X643504D01*
X643504Y366681D01*
X645472Y366681D01*
D02*
G37*
G36*
X652375Y368816D02*
X652431Y368761D01*
X652461Y368689D01*
Y368650D01*
Y363728D01*
Y363689D01*
X652431Y363617D01*
X652375Y363562D01*
X652303Y363531D01*
X651634D01*
X651562Y363562D01*
X651506Y363617D01*
X651476Y363689D01*
Y363728D01*
Y368650D01*
Y368689D01*
X651506Y368761D01*
X651562Y368816D01*
X651634Y368847D01*
X652303D01*
X652375Y368816D01*
D02*
G37*
G36*
X648438D02*
X648494Y368761D01*
X648524Y368689D01*
Y368650D01*
Y363728D01*
Y363689D01*
X648494Y363617D01*
X648438Y363562D01*
X648366Y363531D01*
X647697D01*
X647625Y363562D01*
X647569Y363617D01*
X647539Y363689D01*
Y363728D01*
Y368650D01*
Y368689D01*
X647569Y368761D01*
X647625Y368816D01*
X647697Y368847D01*
X648366D01*
X648438Y368816D01*
D02*
G37*
G36*
X650407D02*
X650462Y368761D01*
X650492Y368689D01*
Y368650D01*
Y362350D01*
Y362311D01*
X650462Y362239D01*
X650407Y362183D01*
X650334Y362154D01*
X649666D01*
X649593Y362183D01*
X649538Y362239D01*
X649508Y362311D01*
Y362350D01*
X649508Y368650D01*
Y368689D01*
X649538Y368761D01*
X649593Y368816D01*
X649666Y368847D01*
X649705D01*
X649705Y368847D01*
X650334D01*
X650407Y368816D01*
D02*
G37*
G36*
X656719Y362881D02*
X656830Y362770D01*
X656890Y362626D01*
Y362547D01*
Y361957D01*
Y361878D01*
X656830Y361734D01*
X656719Y361623D01*
X656574Y361563D01*
X654449D01*
X654305Y361623D01*
X654194Y361734D01*
X654134Y361878D01*
Y361957D01*
Y362547D01*
Y362626D01*
X654194Y362770D01*
X654305Y362881D01*
X654449Y362941D01*
X656574D01*
X656719Y362881D01*
D02*
G37*
G36*
X645695D02*
X645806Y362770D01*
X645866Y362626D01*
Y362547D01*
Y361957D01*
Y361878D01*
X645806Y361734D01*
X645695Y361623D01*
X645551Y361563D01*
X643426D01*
X643281Y361623D01*
X643170Y361734D01*
X643110Y361878D01*
Y361957D01*
Y362547D01*
Y362626D01*
X643170Y362770D01*
X643281Y362881D01*
X643426Y362941D01*
X645551D01*
X645695Y362881D01*
D02*
G37*
G36*
X656496Y360972D02*
X656574D01*
X656719Y360912D01*
X656830Y360802D01*
X656890Y360657D01*
Y360579D01*
Y359988D01*
Y359910D01*
X656830Y359765D01*
X656719Y359654D01*
X656574Y359594D01*
X654449D01*
X654305Y359654D01*
X654194Y359765D01*
X654134Y359910D01*
Y359988D01*
Y360579D01*
Y360657D01*
X654194Y360802D01*
X654305Y360912D01*
X654449Y360972D01*
X654528D01*
Y360972D01*
X656496Y360972D01*
D02*
G37*
G36*
X645472D02*
X645551D01*
X645695Y360912D01*
X645806Y360802D01*
X645866Y360657D01*
Y360579D01*
Y359988D01*
Y359910D01*
X645806Y359765D01*
X645695Y359654D01*
X645551Y359594D01*
X643426D01*
X643281Y359654D01*
X643170Y359765D01*
X643110Y359910D01*
Y359988D01*
Y360579D01*
Y360657D01*
X643170Y360802D01*
X643281Y360912D01*
X643426Y360972D01*
X643504D01*
Y360972D01*
X645472Y360972D01*
D02*
G37*
G36*
X653471Y359928D02*
X653582Y359818D01*
X653642Y359673D01*
Y359594D01*
Y357626D01*
Y357548D01*
X653582Y357403D01*
X653471Y357292D01*
X653326Y357232D01*
X652579D01*
X652434Y357292D01*
X652324Y357403D01*
X652264Y357548D01*
Y357626D01*
Y359594D01*
Y359673D01*
X652324Y359818D01*
X652434Y359928D01*
X652579Y359988D01*
X653326D01*
X653471Y359928D01*
D02*
G37*
G36*
X651503D02*
X651613Y359818D01*
X651673Y359673D01*
Y359594D01*
Y357626D01*
Y357548D01*
X651613Y357403D01*
X651503Y357292D01*
X651358Y357232D01*
X650611D01*
X650466Y357292D01*
X650355Y357403D01*
X650295Y357548D01*
Y357626D01*
Y359594D01*
Y359673D01*
X650355Y359818D01*
X650466Y359928D01*
X650611Y359988D01*
X651358D01*
X651503Y359928D01*
D02*
G37*
G36*
X649534D02*
X649645Y359818D01*
X649705Y359673D01*
Y359594D01*
Y357626D01*
Y357548D01*
X649645Y357403D01*
X649534Y357292D01*
X649389Y357232D01*
X648642D01*
X648497Y357292D01*
X648387Y357403D01*
X648327Y357548D01*
Y357626D01*
Y359594D01*
Y359673D01*
X648387Y359818D01*
X648497Y359928D01*
X648642Y359988D01*
X649389D01*
X649534Y359928D01*
D02*
G37*
G36*
X647566D02*
X647676Y359818D01*
X647736Y359673D01*
Y359594D01*
Y357626D01*
Y357548D01*
X647676Y357403D01*
X647566Y357292D01*
X647421Y357232D01*
X646674D01*
X646529Y357292D01*
X646418Y357403D01*
X646358Y357548D01*
Y357626D01*
Y359594D01*
Y359673D01*
X646418Y359818D01*
X646529Y359928D01*
X646674Y359988D01*
X647421D01*
X647566Y359928D01*
D02*
G37*
D23*
X682731Y418189D02*
D03*
X686668D02*
D03*
D24*
X678716D02*
D03*
X690684D02*
D03*
D25*
X673873D02*
D03*
X695527D02*
D03*
D26*
X140000Y315000D02*
D03*
D27*
X130157Y328583D02*
D03*
X132126D02*
D03*
X134095D02*
D03*
X136063D02*
D03*
X138031D02*
D03*
X140000D02*
D03*
X141969D02*
D03*
X143937D02*
D03*
X145905D02*
D03*
X147874D02*
D03*
X149843D02*
D03*
Y301417D02*
D03*
X147874D02*
D03*
X145905D02*
D03*
X143937D02*
D03*
X141969D02*
D03*
X140000D02*
D03*
X138031D02*
D03*
X136063D02*
D03*
X134095D02*
D03*
X132126D02*
D03*
X130157D02*
D03*
D28*
X153583Y324843D02*
D03*
Y322874D02*
D03*
Y320905D02*
D03*
Y318937D02*
D03*
Y316968D02*
D03*
Y315000D02*
D03*
Y313032D02*
D03*
Y311063D02*
D03*
Y309095D02*
D03*
Y307126D02*
D03*
Y305157D02*
D03*
X126417D02*
D03*
Y307126D02*
D03*
Y309095D02*
D03*
Y311063D02*
D03*
Y313032D02*
D03*
Y315000D02*
D03*
Y316968D02*
D03*
Y318937D02*
D03*
Y320905D02*
D03*
Y322874D02*
D03*
Y324843D02*
D03*
D30*
X622500Y359355D02*
D03*
Y366645D02*
D03*
X612500D02*
D03*
Y359355D02*
D03*
D31*
X687500Y359260D02*
D03*
Y366740D02*
D03*
X672500D02*
D03*
Y359260D02*
D03*
X680000Y366740D02*
D03*
Y359260D02*
D03*
D32*
X652500Y348813D02*
D03*
Y352187D02*
D03*
D33*
X654665Y385500D02*
D03*
X645335D02*
D03*
D38*
X655500Y313256D02*
D03*
Y307744D02*
D03*
X660500Y366000D02*
D03*
Y371512D02*
D03*
X639500Y365488D02*
D03*
Y371000D02*
D03*
X655500Y323256D02*
D03*
Y317744D02*
D03*
D39*
X185500Y210886D02*
D03*
Y215216D02*
D03*
D40*
X173500Y217965D02*
D03*
Y201035D02*
D03*
X252500Y322465D02*
D03*
Y305535D02*
D03*
D41*
X133402Y177087D02*
D03*
Y180236D02*
D03*
X150000Y334925D02*
D03*
Y338075D02*
D03*
X280242Y292459D02*
D03*
Y289310D02*
D03*
X162500Y306075D02*
D03*
Y302925D02*
D03*
X264500Y315925D02*
D03*
Y319075D02*
D03*
X288000Y342925D02*
D03*
Y346075D02*
D03*
X264500Y312075D02*
D03*
Y308925D02*
D03*
X185500Y204476D02*
D03*
Y207626D02*
D03*
D42*
X156976Y225161D02*
D03*
X153827D02*
D03*
X309769Y325530D02*
D03*
X312919D02*
D03*
Y320530D02*
D03*
X309769D02*
D03*
X112477Y210161D02*
D03*
X109327D02*
D03*
X156976Y216161D02*
D03*
X153827D02*
D03*
X112477Y205161D02*
D03*
X109327D02*
D03*
X156976Y195161D02*
D03*
X153827D02*
D03*
D43*
X684500Y286228D02*
D03*
Y289772D02*
D03*
X278000Y342728D02*
D03*
Y346272D02*
D03*
X308000Y336122D02*
D03*
Y339665D02*
D03*
X150402Y180433D02*
D03*
Y176890D02*
D03*
X684000Y335728D02*
D03*
Y339272D02*
D03*
X124500Y334228D02*
D03*
Y337772D02*
D03*
D45*
X132500Y267500D02*
D03*
X135650D02*
D03*
X115977Y224661D02*
D03*
X112827D02*
D03*
D46*
X269000Y322075D02*
D03*
Y318925D02*
D03*
X303769Y292105D02*
D03*
Y288955D02*
D03*
X130000Y335000D02*
D03*
Y338150D02*
D03*
X118500Y318075D02*
D03*
Y314925D02*
D03*
X133500Y296075D02*
D03*
Y292925D02*
D03*
X133400Y338150D02*
D03*
Y335000D02*
D03*
X663000Y322075D02*
D03*
Y318925D02*
D03*
Y312075D02*
D03*
Y308925D02*
D03*
D49*
X144000Y267500D02*
D03*
X139669D02*
D03*
D50*
X299612Y326613D02*
D03*
X297643D02*
D03*
X295675D02*
D03*
X293706D02*
D03*
X291738D02*
D03*
X289769D02*
D03*
X287801D02*
D03*
X285832D02*
D03*
X283864D02*
D03*
X281895D02*
D03*
X279927D02*
D03*
Y299447D02*
D03*
X281895D02*
D03*
X283864D02*
D03*
X285832D02*
D03*
X287801D02*
D03*
X289769D02*
D03*
X291738D02*
D03*
X293706D02*
D03*
X295675D02*
D03*
X297643D02*
D03*
X299612D02*
D03*
D51*
X276186Y322873D02*
D03*
Y320904D02*
D03*
Y318936D02*
D03*
Y316967D02*
D03*
Y314999D02*
D03*
Y313030D02*
D03*
Y311062D02*
D03*
Y309093D02*
D03*
Y307124D02*
D03*
Y305156D02*
D03*
Y303187D02*
D03*
X303352D02*
D03*
Y305156D02*
D03*
Y307124D02*
D03*
Y309093D02*
D03*
Y311062D02*
D03*
Y313030D02*
D03*
Y314999D02*
D03*
Y316967D02*
D03*
Y318936D02*
D03*
Y320904D02*
D03*
Y322873D02*
D03*
D52*
X289769Y313030D02*
D03*
D53*
X193043Y300228D02*
D03*
X189500D02*
D03*
D54*
X130535Y277500D02*
D03*
X147465D02*
D03*
D55*
X188760Y353563D02*
D03*
X196240D02*
D03*
X192500Y361437D02*
D03*
X162500Y366063D02*
D03*
X158760Y373937D02*
D03*
X166240D02*
D03*
X182500Y366063D02*
D03*
X178760Y373937D02*
D03*
X186240D02*
D03*
X202500Y366063D02*
D03*
X198760Y373937D02*
D03*
X206240D02*
D03*
X102500Y366063D02*
D03*
X98760Y373937D02*
D03*
X106240D02*
D03*
X142500Y366063D02*
D03*
X138760Y373937D02*
D03*
X146240D02*
D03*
X92500Y361437D02*
D03*
X96240Y353563D02*
D03*
X88760D02*
D03*
X122500Y366063D02*
D03*
X118760Y373937D02*
D03*
X126240D02*
D03*
X112500Y361437D02*
D03*
X116240Y353563D02*
D03*
X108760D02*
D03*
X132500Y361437D02*
D03*
X136240Y353563D02*
D03*
X128760D02*
D03*
X172500Y361437D02*
D03*
X176240Y353563D02*
D03*
X168760D02*
D03*
X152500Y361437D02*
D03*
X156240Y353563D02*
D03*
X148760D02*
D03*
D56*
X202500Y395433D02*
D03*
Y410000D02*
D03*
X192500Y395433D02*
D03*
Y410000D02*
D03*
X182500Y395433D02*
D03*
Y410000D02*
D03*
X172500Y395433D02*
D03*
Y410000D02*
D03*
X162500Y395433D02*
D03*
Y410000D02*
D03*
X152500Y395433D02*
D03*
Y410000D02*
D03*
X142500Y395433D02*
D03*
Y410000D02*
D03*
X132500Y395433D02*
D03*
Y410000D02*
D03*
X122500Y395433D02*
D03*
Y410000D02*
D03*
X112500Y395433D02*
D03*
Y410000D02*
D03*
X102500Y395433D02*
D03*
Y410000D02*
D03*
X92500Y395433D02*
D03*
Y410000D02*
D03*
D57*
X132902Y208661D02*
D03*
D58*
X143728Y216535D02*
D03*
Y214567D02*
D03*
Y212598D02*
D03*
Y210630D02*
D03*
Y208661D02*
D03*
Y206693D02*
D03*
Y204724D02*
D03*
Y202756D02*
D03*
Y200787D02*
D03*
X122075D02*
D03*
Y202756D02*
D03*
Y204724D02*
D03*
Y206693D02*
D03*
Y208661D02*
D03*
Y210630D02*
D03*
Y212598D02*
D03*
Y214567D02*
D03*
Y216535D02*
D03*
D59*
X140776Y197835D02*
D03*
X138807D02*
D03*
X136839D02*
D03*
X134870D02*
D03*
X132902D02*
D03*
X130933D02*
D03*
X128965D02*
D03*
X126996D02*
D03*
X125028D02*
D03*
Y219488D02*
D03*
X126996D02*
D03*
X128965D02*
D03*
X130933D02*
D03*
X132902D02*
D03*
X134870D02*
D03*
X136839D02*
D03*
X138807D02*
D03*
X140776D02*
D03*
D60*
X740000Y421000D02*
D03*
X52500D02*
D03*
D61*
X740000Y16000D02*
D03*
X52500D02*
D03*
D62*
X188665Y309500D02*
D03*
X184335D02*
D03*
D63*
X159425Y325000D02*
D03*
X162575D02*
D03*
X105650Y330000D02*
D03*
X102500D02*
D03*
X105650Y335000D02*
D03*
X102500D02*
D03*
D64*
X632500Y350500D02*
D03*
X95000Y305000D02*
D03*
X105000Y307500D02*
D03*
X289769Y363030D02*
D03*
X299769D02*
D03*
X105000Y297500D02*
D03*
X257500Y333500D02*
D03*
X95000Y295000D02*
D03*
Y315000D02*
D03*
X95500Y338000D02*
D03*
X157000Y277500D02*
D03*
X175000D02*
D03*
X165000D02*
D03*
X95000Y326500D02*
D03*
X105000Y322500D02*
D03*
X175000Y287500D02*
D03*
X165000D02*
D03*
X224000Y287000D02*
D03*
X637178Y302500D02*
D03*
X15748Y105421D02*
D03*
Y161417D02*
D03*
D65*
X671189Y324555D02*
D03*
Y315500D02*
D03*
Y306445D02*
D03*
D66*
X694811Y315500D02*
D03*
D67*
X94091Y248161D02*
D03*
X119091D02*
D03*
X678000Y391000D02*
D03*
Y376000D02*
D03*
X169402Y188661D02*
D03*
X81591Y248161D02*
D03*
X169402Y174161D02*
D03*
X106591Y248161D02*
D03*
D68*
X116902Y175161D02*
D03*
X100402Y183661D02*
D03*
Y191161D02*
D03*
Y217661D02*
D03*
Y198661D02*
D03*
Y223661D02*
D03*
X108402Y175661D02*
D03*
X100402Y176161D02*
D03*
X169000Y325000D02*
D03*
Y332000D02*
D03*
X197500Y427520D02*
D03*
X97500D02*
D03*
D69*
X679000Y289673D02*
D03*
Y286327D02*
D03*
X172500Y384173D02*
D03*
Y380827D02*
D03*
X112500D02*
D03*
Y384173D02*
D03*
X192500D02*
D03*
Y380827D02*
D03*
X152500D02*
D03*
Y384173D02*
D03*
X182500D02*
D03*
Y380827D02*
D03*
X92500D02*
D03*
Y384173D02*
D03*
X122500D02*
D03*
Y380827D02*
D03*
X202500D02*
D03*
Y384173D02*
D03*
X162500D02*
D03*
Y380827D02*
D03*
X142500D02*
D03*
Y384173D02*
D03*
X102500D02*
D03*
Y380827D02*
D03*
X132500D02*
D03*
Y384173D02*
D03*
X687500Y408173D02*
D03*
Y404827D02*
D03*
X682500D02*
D03*
Y408173D02*
D03*
X303000Y336221D02*
D03*
Y339567D02*
D03*
X282500Y346000D02*
D03*
Y342653D02*
D03*
X120000Y334327D02*
D03*
Y337673D02*
D03*
X184000Y300327D02*
D03*
Y303673D02*
D03*
X633500Y364173D02*
D03*
Y360827D02*
D03*
X630000D02*
D03*
Y364173D02*
D03*
X665000Y357173D02*
D03*
Y353827D02*
D03*
X666000Y361327D02*
D03*
Y364673D02*
D03*
X647500Y348965D02*
D03*
Y352311D02*
D03*
X678500Y339173D02*
D03*
Y335827D02*
D03*
X145402Y176988D02*
D03*
Y180335D02*
D03*
X128902D02*
D03*
Y176988D02*
D03*
X155402D02*
D03*
Y180335D02*
D03*
X150402Y172335D02*
D03*
Y168988D02*
D03*
X138402Y176988D02*
D03*
Y180335D02*
D03*
X141902D02*
D03*
Y176988D02*
D03*
D70*
X157575Y220661D02*
D03*
X154228D02*
D03*
D71*
X299769Y288955D02*
D03*
Y292105D02*
D03*
X296383Y337932D02*
D03*
Y341081D02*
D03*
X292769Y337955D02*
D03*
Y341105D02*
D03*
D72*
X269769Y353030D02*
D03*
D73*
Y357361D02*
D03*
D74*
X799433Y9685D02*
D03*
X475232Y300500D02*
D03*
D75*
X667692Y433150D02*
D03*
X701708D02*
D03*
X667692Y418189D02*
D03*
X701708D02*
D03*
D76*
X586496Y393740D02*
D03*
D77*
X605000D02*
D03*
X623504D02*
D03*
X578996Y431260D02*
D03*
X631004D02*
D03*
D78*
X654700Y422100D02*
D03*
X43100Y295900D02*
D03*
X80500Y419000D02*
D03*
X224400Y420000D02*
D03*
X656000Y194550D02*
D03*
X181500Y130000D02*
D03*
X181600Y248400D02*
D03*
X706600Y51600D02*
D03*
X655100Y51700D02*
D03*
D79*
X475531Y344700D02*
D03*
X705700Y399900D02*
D03*
X80800Y50300D02*
D03*
D80*
X535873Y406613D02*
D03*
X307527D02*
D03*
X535873Y213700D02*
D03*
X307527D02*
D03*
D81*
X128571Y204331D02*
D03*
Y208661D02*
D03*
Y212992D02*
D03*
X132902Y204331D02*
D03*
Y208661D02*
D03*
Y212992D02*
D03*
X137232Y204331D02*
D03*
Y208661D02*
D03*
Y212992D02*
D03*
X289676Y368617D02*
D03*
X299769Y368683D02*
D03*
X232407Y345093D02*
D03*
X231907Y319593D02*
D03*
X235407Y230093D02*
D03*
X245407Y375593D02*
D03*
M02*
