G04*
G04 #@! TF.GenerationSoftware,Altium Limited,Altium Designer,23.3.1 (30)*
G04*
G04 Layer_Color=16711935*
%FSLAX25Y25*%
%MOIN*%
G70*
G04*
G04 #@! TF.SameCoordinates,65CDCF12-2861-4885-BE21-4D3676ECD45B*
G04*
G04*
G04 #@! TF.FilePolarity,Negative*
G04*
G01*
G75*
%ADD12C,0.01968*%
%ADD64C,0.06706*%
%ADD68C,0.04737*%
%ADD74C,0.06693*%
G04:AMPARAMS|DCode=75|XSize=43.31mil|YSize=66.93mil|CornerRadius=21.65mil|HoleSize=0mil|Usage=FLASHONLY|Rotation=180.000|XOffset=0mil|YOffset=0mil|HoleType=Round|Shape=RoundedRectangle|*
%AMROUNDEDRECTD75*
21,1,0.04331,0.02362,0,0,180.0*
21,1,0.00000,0.06693,0,0,180.0*
1,1,0.04331,0.00000,0.01181*
1,1,0.04331,0.00000,0.01181*
1,1,0.04331,0.00000,-0.01181*
1,1,0.04331,0.00000,-0.01181*
%
%ADD75ROUNDEDRECTD75*%
%ADD76R,0.11725X0.11725*%
%ADD77C,0.11725*%
%ADD78C,0.11417*%
%ADD79C,0.10236*%
%ADD80C,0.12992*%
%ADD81C,0.03200*%
%ADD108C,0.07874*%
G04:AMPARAMS|DCode=109|XSize=94.61mil|YSize=27.69mil|CornerRadius=13.84mil|HoleSize=0mil|Usage=FLASHONLY|Rotation=0.000|XOffset=0mil|YOffset=0mil|HoleType=Round|Shape=RoundedRectangle|*
%AMROUNDEDRECTD109*
21,1,0.09461,0.00000,0,0,0.0*
21,1,0.06693,0.02769,0,0,0.0*
1,1,0.02769,0.03347,0.00000*
1,1,0.02769,-0.03347,0.00000*
1,1,0.02769,-0.03347,0.00000*
1,1,0.02769,0.03347,0.00000*
%
%ADD109ROUNDEDRECTD109*%
%ADD110C,0.02769*%
G04:AMPARAMS|DCode=111|XSize=94.61mil|YSize=27.69mil|CornerRadius=13.84mil|HoleSize=0mil|Usage=FLASHONLY|Rotation=270.000|XOffset=0mil|YOffset=0mil|HoleType=Round|Shape=RoundedRectangle|*
%AMROUNDEDRECTD111*
21,1,0.09461,0.00000,0,0,270.0*
21,1,0.06693,0.02769,0,0,270.0*
1,1,0.02769,0.00000,-0.03347*
1,1,0.02769,0.00000,0.03347*
1,1,0.02769,0.00000,0.03347*
1,1,0.02769,0.00000,-0.03347*
%
%ADD111ROUNDEDRECTD111*%
G36*
X208709Y402309D02*
X210205Y401908D01*
X211635Y401316D01*
X212976Y400542D01*
X214204Y399599D01*
X215299Y398504D01*
X216242Y397276D01*
X217016Y395935D01*
X217608Y394505D01*
X218009Y393009D01*
X218211Y391474D01*
Y390700D01*
Y389926D01*
X218009Y388391D01*
X217608Y386895D01*
X217016Y385465D01*
X216242Y384124D01*
X215299Y382896D01*
X214204Y381801D01*
X212976Y380858D01*
X211635Y380084D01*
X210205Y379492D01*
X208709Y379091D01*
X207174Y378889D01*
X205626D01*
X204091Y379091D01*
X202595Y379492D01*
X201165Y380084D01*
X199824Y380858D01*
X198596Y381801D01*
X197501Y382896D01*
X196558Y384124D01*
X195784Y385465D01*
X195192Y386895D01*
X194791Y388391D01*
X194589Y389926D01*
Y390700D01*
Y391474D01*
X194791Y393009D01*
X195192Y394505D01*
X195784Y395935D01*
X196558Y397276D01*
X197501Y398504D01*
X198596Y399599D01*
X199824Y400542D01*
X201165Y401316D01*
X202595Y401908D01*
X204091Y402309D01*
X205626Y402511D01*
X207174D01*
X208709Y402309D01*
D02*
G37*
G36*
X153009D02*
X154505Y401908D01*
X155935Y401316D01*
X157276Y400542D01*
X158504Y399599D01*
X159599Y398504D01*
X160541Y397276D01*
X161316Y395935D01*
X161908Y394505D01*
X162309Y393009D01*
X162511Y391474D01*
Y390700D01*
Y389926D01*
X162309Y388391D01*
X161908Y386895D01*
X161316Y385465D01*
X160541Y384124D01*
X159599Y382896D01*
X158504Y381801D01*
X157276Y380858D01*
X155935Y380084D01*
X154505Y379492D01*
X153009Y379091D01*
X151474Y378889D01*
X149926D01*
X148391Y379091D01*
X146895Y379492D01*
X145465Y380084D01*
X144124Y380858D01*
X142896Y381801D01*
X141801Y382896D01*
X140858Y384124D01*
X140084Y385465D01*
X139492Y386895D01*
X139091Y388391D01*
X138889Y389926D01*
Y390700D01*
Y391474D01*
X139091Y393009D01*
X139492Y394505D01*
X140084Y395935D01*
X140858Y397276D01*
X141801Y398504D01*
X142896Y399599D01*
X144124Y400542D01*
X145465Y401316D01*
X146895Y401908D01*
X148391Y402309D01*
X149926Y402511D01*
X151474D01*
X153009Y402309D01*
D02*
G37*
G36*
X682609Y396709D02*
X684105Y396308D01*
X685535Y395716D01*
X686876Y394942D01*
X688104Y393999D01*
X689199Y392904D01*
X690141Y391676D01*
X690916Y390335D01*
X691508Y388905D01*
X691909Y387409D01*
X692111Y385874D01*
Y385100D01*
Y384326D01*
X691909Y382791D01*
X691508Y381295D01*
X690916Y379865D01*
X690141Y378524D01*
X689199Y377296D01*
X688104Y376201D01*
X686876Y375258D01*
X685535Y374484D01*
X684105Y373892D01*
X682609Y373491D01*
X681074Y373289D01*
X679526D01*
X677991Y373491D01*
X676495Y373892D01*
X675065Y374484D01*
X673724Y375258D01*
X672496Y376201D01*
X671401Y377296D01*
X670458Y378524D01*
X669684Y379865D01*
X669092Y381295D01*
X668691Y382791D01*
X668489Y384326D01*
Y385100D01*
Y385874D01*
X668691Y387409D01*
X669092Y388905D01*
X669684Y390335D01*
X670458Y391676D01*
X671401Y392904D01*
X672496Y393999D01*
X673724Y394942D01*
X675065Y395716D01*
X676495Y396308D01*
X677991Y396709D01*
X679526Y396911D01*
X681074D01*
X682609Y396709D01*
D02*
G37*
G36*
X208709Y360509D02*
X210205Y360108D01*
X211635Y359516D01*
X212976Y358742D01*
X214204Y357799D01*
X215299Y356704D01*
X216242Y355476D01*
X217016Y354135D01*
X217608Y352705D01*
X218009Y351209D01*
X218211Y349674D01*
Y348900D01*
Y348126D01*
X218009Y346591D01*
X217608Y345095D01*
X217016Y343665D01*
X216242Y342324D01*
X215299Y341096D01*
X214204Y340001D01*
X212976Y339058D01*
X211635Y338284D01*
X210205Y337692D01*
X208709Y337291D01*
X207174Y337089D01*
X205626D01*
X204091Y337291D01*
X202595Y337692D01*
X201165Y338284D01*
X199824Y339058D01*
X198596Y340001D01*
X197501Y341096D01*
X196558Y342324D01*
X195784Y343665D01*
X195192Y345095D01*
X194791Y346591D01*
X194589Y348126D01*
Y348900D01*
Y349674D01*
X194791Y351209D01*
X195192Y352705D01*
X195784Y354135D01*
X196558Y355476D01*
X197501Y356704D01*
X198596Y357799D01*
X199824Y358742D01*
X201165Y359516D01*
X202595Y360108D01*
X204091Y360509D01*
X205626Y360711D01*
X207174D01*
X208709Y360509D01*
D02*
G37*
G36*
X164509D02*
X166005Y360108D01*
X167435Y359516D01*
X168776Y358742D01*
X170004Y357799D01*
X171099Y356704D01*
X172041Y355476D01*
X172816Y354135D01*
X173408Y352705D01*
X173809Y351209D01*
X174011Y349674D01*
Y348900D01*
Y348126D01*
X173809Y346591D01*
X173408Y345095D01*
X172816Y343665D01*
X172041Y342324D01*
X171099Y341096D01*
X170004Y340001D01*
X168776Y339058D01*
X167435Y338284D01*
X166005Y337692D01*
X164509Y337291D01*
X162974Y337089D01*
X161426D01*
X159891Y337291D01*
X158395Y337692D01*
X156965Y338284D01*
X155624Y339058D01*
X154396Y340001D01*
X153301Y341096D01*
X152358Y342324D01*
X151584Y343665D01*
X150992Y345095D01*
X150591Y346591D01*
X150389Y348126D01*
Y348900D01*
Y349674D01*
X150591Y351209D01*
X150992Y352705D01*
X151584Y354135D01*
X152358Y355476D01*
X153301Y356704D01*
X154396Y357799D01*
X155624Y358742D01*
X156965Y359516D01*
X158395Y360108D01*
X159891Y360509D01*
X161426Y360711D01*
X162974D01*
X164509Y360509D01*
D02*
G37*
G36*
X734109Y347909D02*
X735605Y347508D01*
X737035Y346916D01*
X738376Y346142D01*
X739604Y345199D01*
X740699Y344104D01*
X741642Y342876D01*
X742416Y341535D01*
X743008Y340105D01*
X743409Y338609D01*
X743611Y337074D01*
Y336300D01*
Y335526D01*
X743409Y333991D01*
X743008Y332495D01*
X742416Y331065D01*
X741642Y329724D01*
X740699Y328496D01*
X739604Y327401D01*
X738376Y326458D01*
X737035Y325684D01*
X735605Y325092D01*
X734109Y324691D01*
X732574Y324489D01*
X731026D01*
X729491Y324691D01*
X727995Y325092D01*
X726565Y325684D01*
X725224Y326458D01*
X723996Y327401D01*
X722901Y328496D01*
X721958Y329724D01*
X721184Y331065D01*
X720592Y332495D01*
X720191Y333991D01*
X719989Y335526D01*
Y336300D01*
Y337074D01*
X720191Y338609D01*
X720592Y340105D01*
X721184Y341535D01*
X721958Y342876D01*
X722901Y344104D01*
X723996Y345199D01*
X725224Y346142D01*
X726565Y346916D01*
X727995Y347508D01*
X729491Y347909D01*
X731026Y348111D01*
X732574D01*
X734109Y347909D01*
D02*
G37*
G36*
X682609D02*
X684105Y347508D01*
X685535Y346916D01*
X686876Y346142D01*
X688104Y345199D01*
X689199Y344104D01*
X690141Y342876D01*
X690916Y341535D01*
X691508Y340105D01*
X691909Y338609D01*
X692111Y337074D01*
Y336300D01*
Y335526D01*
X691909Y333991D01*
X691508Y332495D01*
X690916Y331065D01*
X690141Y329724D01*
X689199Y328496D01*
X688104Y327401D01*
X686876Y326458D01*
X685535Y325684D01*
X684105Y325092D01*
X682609Y324691D01*
X681074Y324489D01*
X679526D01*
X677991Y324691D01*
X676495Y325092D01*
X675065Y325684D01*
X673724Y326458D01*
X672496Y327401D01*
X671401Y328496D01*
X670458Y329724D01*
X669684Y331065D01*
X669092Y332495D01*
X668691Y333991D01*
X668489Y335526D01*
Y336300D01*
Y337074D01*
X668691Y338609D01*
X669092Y340105D01*
X669684Y341535D01*
X670458Y342876D01*
X671401Y344104D01*
X672496Y345199D01*
X673724Y346142D01*
X675065Y346916D01*
X676495Y347508D01*
X677991Y347909D01*
X679526Y348111D01*
X681074D01*
X682609Y347909D01*
D02*
G37*
G36*
X208709Y318309D02*
X210205Y317908D01*
X211635Y317316D01*
X212976Y316542D01*
X214204Y315599D01*
X215299Y314504D01*
X216242Y313276D01*
X217016Y311935D01*
X217608Y310505D01*
X218009Y309009D01*
X218211Y307474D01*
Y306700D01*
Y305926D01*
X218009Y304391D01*
X217608Y302895D01*
X217016Y301465D01*
X216242Y300124D01*
X215299Y298896D01*
X214204Y297801D01*
X212976Y296858D01*
X211635Y296084D01*
X210205Y295492D01*
X208709Y295091D01*
X207174Y294889D01*
X205626D01*
X204091Y295091D01*
X202595Y295492D01*
X201165Y296084D01*
X199824Y296858D01*
X198596Y297801D01*
X197501Y298896D01*
X196558Y300124D01*
X195784Y301465D01*
X195192Y302895D01*
X194791Y304391D01*
X194589Y305926D01*
Y306700D01*
Y307474D01*
X194791Y309009D01*
X195192Y310505D01*
X195784Y311935D01*
X196558Y313276D01*
X197501Y314504D01*
X198596Y315599D01*
X199824Y316542D01*
X201165Y317316D01*
X202595Y317908D01*
X204091Y318309D01*
X205626Y318511D01*
X207174D01*
X208709Y318309D01*
D02*
G37*
G36*
X158809D02*
X160305Y317908D01*
X161735Y317316D01*
X163076Y316542D01*
X164304Y315599D01*
X165399Y314504D01*
X166341Y313276D01*
X167116Y311935D01*
X167708Y310505D01*
X168109Y309009D01*
X168311Y307474D01*
Y306700D01*
Y305926D01*
X168109Y304391D01*
X167708Y302895D01*
X167116Y301465D01*
X166341Y300124D01*
X165399Y298896D01*
X164304Y297801D01*
X163076Y296858D01*
X161735Y296084D01*
X160305Y295492D01*
X158809Y295091D01*
X157274Y294889D01*
X155726D01*
X154191Y295091D01*
X152695Y295492D01*
X151265Y296084D01*
X149924Y296858D01*
X148696Y297801D01*
X147601Y298896D01*
X146658Y300124D01*
X145884Y301465D01*
X145292Y302895D01*
X144891Y304391D01*
X144689Y305926D01*
Y306700D01*
Y307474D01*
X144891Y309009D01*
X145292Y310505D01*
X145884Y311935D01*
X146658Y313276D01*
X147601Y314504D01*
X148696Y315599D01*
X149924Y316542D01*
X151265Y317316D01*
X152695Y317908D01*
X154191Y318309D01*
X155726Y318511D01*
X157274D01*
X158809Y318309D01*
D02*
G37*
G36*
X734109Y306109D02*
X735605Y305708D01*
X737035Y305116D01*
X738376Y304342D01*
X739604Y303399D01*
X740699Y302304D01*
X741642Y301076D01*
X742416Y299735D01*
X743008Y298305D01*
X743409Y296809D01*
X743611Y295274D01*
Y294500D01*
Y293726D01*
X743409Y292191D01*
X743008Y290695D01*
X742416Y289265D01*
X741642Y287924D01*
X740699Y286696D01*
X739604Y285601D01*
X738376Y284658D01*
X737035Y283884D01*
X735605Y283292D01*
X734109Y282891D01*
X732574Y282689D01*
X731026D01*
X729491Y282891D01*
X727995Y283292D01*
X726565Y283884D01*
X725224Y284658D01*
X723996Y285601D01*
X722901Y286696D01*
X721958Y287924D01*
X721184Y289265D01*
X720592Y290695D01*
X720191Y292191D01*
X719989Y293726D01*
Y294500D01*
Y295274D01*
X720191Y296809D01*
X720592Y298305D01*
X721184Y299735D01*
X721958Y301076D01*
X722901Y302304D01*
X723996Y303399D01*
X725224Y304342D01*
X726565Y305116D01*
X727995Y305708D01*
X729491Y306109D01*
X731026Y306311D01*
X732574D01*
X734109Y306109D01*
D02*
G37*
G36*
X682609D02*
X684105Y305708D01*
X685535Y305116D01*
X686876Y304342D01*
X688104Y303399D01*
X689199Y302304D01*
X690141Y301076D01*
X690916Y299735D01*
X691508Y298305D01*
X691909Y296809D01*
X692111Y295274D01*
Y294500D01*
Y293726D01*
X691909Y292191D01*
X691508Y290695D01*
X690916Y289265D01*
X690141Y287924D01*
X689199Y286696D01*
X688104Y285601D01*
X686876Y284658D01*
X685535Y283884D01*
X684105Y283292D01*
X682609Y282891D01*
X681074Y282689D01*
X679526D01*
X677991Y282891D01*
X676495Y283292D01*
X675065Y283884D01*
X673724Y284658D01*
X672496Y285601D01*
X671401Y286696D01*
X670458Y287924D01*
X669684Y289265D01*
X669092Y290695D01*
X668691Y292191D01*
X668489Y293726D01*
Y294500D01*
Y295274D01*
X668691Y296809D01*
X669092Y298305D01*
X669684Y299735D01*
X670458Y301076D01*
X671401Y302304D01*
X672496Y303399D01*
X673724Y304342D01*
X675065Y305116D01*
X676495Y305708D01*
X677991Y306109D01*
X679526Y306311D01*
X681074D01*
X682609Y306109D01*
D02*
G37*
G36*
X208709Y278809D02*
X210205Y278408D01*
X211635Y277816D01*
X212976Y277042D01*
X214204Y276099D01*
X215299Y275004D01*
X216242Y273776D01*
X217016Y272435D01*
X217608Y271005D01*
X218009Y269509D01*
X218211Y267974D01*
Y267200D01*
Y266426D01*
X218009Y264891D01*
X217608Y263395D01*
X217016Y261965D01*
X216242Y260624D01*
X215299Y259396D01*
X214204Y258301D01*
X212976Y257358D01*
X211635Y256584D01*
X210205Y255992D01*
X208709Y255591D01*
X207174Y255389D01*
X205626D01*
X204091Y255591D01*
X202595Y255992D01*
X201165Y256584D01*
X199824Y257358D01*
X198596Y258301D01*
X197501Y259396D01*
X196558Y260624D01*
X195784Y261965D01*
X195192Y263395D01*
X194791Y264891D01*
X194589Y266426D01*
Y267200D01*
Y267974D01*
X194791Y269509D01*
X195192Y271005D01*
X195784Y272435D01*
X196558Y273776D01*
X197501Y275004D01*
X198596Y276099D01*
X199824Y277042D01*
X201165Y277816D01*
X202595Y278408D01*
X204091Y278809D01*
X205626Y279011D01*
X207174D01*
X208709Y278809D01*
D02*
G37*
G36*
X158809D02*
X160305Y278408D01*
X161735Y277816D01*
X163076Y277042D01*
X164304Y276099D01*
X165399Y275004D01*
X166341Y273776D01*
X167116Y272435D01*
X167708Y271005D01*
X168109Y269509D01*
X168311Y267974D01*
Y267200D01*
Y266426D01*
X168109Y264891D01*
X167708Y263395D01*
X167116Y261965D01*
X166341Y260624D01*
X165399Y259396D01*
X164304Y258301D01*
X163076Y257358D01*
X161735Y256584D01*
X160305Y255992D01*
X158809Y255591D01*
X157274Y255389D01*
X155726D01*
X154191Y255591D01*
X152695Y255992D01*
X151265Y256584D01*
X149924Y257358D01*
X148696Y258301D01*
X147601Y259396D01*
X146658Y260624D01*
X145884Y261965D01*
X145292Y263395D01*
X144891Y264891D01*
X144689Y266426D01*
Y267200D01*
Y267974D01*
X144891Y269509D01*
X145292Y271005D01*
X145884Y272435D01*
X146658Y273776D01*
X147601Y275004D01*
X148696Y276099D01*
X149924Y277042D01*
X151265Y277816D01*
X152695Y278408D01*
X154191Y278809D01*
X155726Y279011D01*
X157274D01*
X158809Y278809D01*
D02*
G37*
G36*
X109909D02*
X111405Y278408D01*
X112835Y277816D01*
X114176Y277042D01*
X115404Y276099D01*
X116499Y275004D01*
X117441Y273776D01*
X118216Y272435D01*
X118808Y271005D01*
X119209Y269509D01*
X119411Y267974D01*
Y267200D01*
Y266426D01*
X119209Y264891D01*
X118808Y263395D01*
X118216Y261965D01*
X117441Y260624D01*
X116499Y259396D01*
X115404Y258301D01*
X114176Y257358D01*
X112835Y256584D01*
X111405Y255992D01*
X109909Y255591D01*
X108374Y255389D01*
X106826D01*
X105291Y255591D01*
X103795Y255992D01*
X102365Y256584D01*
X101024Y257358D01*
X99796Y258301D01*
X98701Y259396D01*
X97758Y260624D01*
X96984Y261965D01*
X96392Y263395D01*
X95991Y264891D01*
X95789Y266426D01*
Y267200D01*
Y267974D01*
X95991Y269509D01*
X96392Y271005D01*
X96984Y272435D01*
X97758Y273776D01*
X98701Y275004D01*
X99796Y276099D01*
X101024Y277042D01*
X102365Y277816D01*
X103795Y278408D01*
X105291Y278809D01*
X106826Y279011D01*
X108374D01*
X109909Y278809D01*
D02*
G37*
G36*
X60609D02*
X62105Y278408D01*
X63535Y277816D01*
X64876Y277042D01*
X66104Y276099D01*
X67199Y275004D01*
X68142Y273776D01*
X68916Y272435D01*
X69508Y271005D01*
X69909Y269509D01*
X70111Y267974D01*
Y267200D01*
Y266426D01*
X69909Y264891D01*
X69508Y263395D01*
X68916Y261965D01*
X68142Y260624D01*
X67199Y259396D01*
X66104Y258301D01*
X64876Y257358D01*
X63535Y256584D01*
X62105Y255992D01*
X60609Y255591D01*
X59074Y255389D01*
X57526D01*
X55991Y255591D01*
X54495Y255992D01*
X53065Y256584D01*
X51724Y257358D01*
X50496Y258301D01*
X49401Y259396D01*
X48458Y260624D01*
X47684Y261965D01*
X47092Y263395D01*
X46691Y264891D01*
X46489Y266426D01*
Y267200D01*
Y267974D01*
X46691Y269509D01*
X47092Y271005D01*
X47684Y272435D01*
X48458Y273776D01*
X49401Y275004D01*
X50496Y276099D01*
X51724Y277042D01*
X53065Y277816D01*
X54495Y278408D01*
X55991Y278809D01*
X57526Y279011D01*
X59074D01*
X60609Y278809D01*
D02*
G37*
G36*
X734109Y266109D02*
X735605Y265708D01*
X737035Y265116D01*
X738376Y264342D01*
X739604Y263399D01*
X740699Y262304D01*
X741642Y261076D01*
X742416Y259735D01*
X743008Y258305D01*
X743409Y256809D01*
X743611Y255274D01*
Y254500D01*
Y253726D01*
X743409Y252191D01*
X743008Y250695D01*
X742416Y249265D01*
X741642Y247924D01*
X740699Y246696D01*
X739604Y245601D01*
X738376Y244658D01*
X737035Y243884D01*
X735605Y243292D01*
X734109Y242891D01*
X732574Y242689D01*
X731026D01*
X729491Y242891D01*
X727995Y243292D01*
X726565Y243884D01*
X725224Y244658D01*
X723996Y245601D01*
X722901Y246696D01*
X721958Y247924D01*
X721184Y249265D01*
X720592Y250695D01*
X720191Y252191D01*
X719989Y253726D01*
Y254500D01*
Y255274D01*
X720191Y256809D01*
X720592Y258305D01*
X721184Y259735D01*
X721958Y261076D01*
X722901Y262304D01*
X723996Y263399D01*
X725224Y264342D01*
X726565Y265116D01*
X727995Y265708D01*
X729491Y266109D01*
X731026Y266311D01*
X732574D01*
X734109Y266109D01*
D02*
G37*
G36*
X682609D02*
X684105Y265708D01*
X685535Y265116D01*
X686876Y264342D01*
X688104Y263399D01*
X689199Y262304D01*
X690141Y261076D01*
X690916Y259735D01*
X691508Y258305D01*
X691909Y256809D01*
X692111Y255274D01*
Y254500D01*
Y253726D01*
X691909Y252191D01*
X691508Y250695D01*
X690916Y249265D01*
X690141Y247924D01*
X689199Y246696D01*
X688104Y245601D01*
X686876Y244658D01*
X685535Y243884D01*
X684105Y243292D01*
X682609Y242891D01*
X681074Y242689D01*
X679526D01*
X677991Y242891D01*
X676495Y243292D01*
X675065Y243884D01*
X673724Y244658D01*
X672496Y245601D01*
X671401Y246696D01*
X670458Y247924D01*
X669684Y249265D01*
X669092Y250695D01*
X668691Y252191D01*
X668489Y253726D01*
Y254500D01*
Y255274D01*
X668691Y256809D01*
X669092Y258305D01*
X669684Y259735D01*
X670458Y261076D01*
X671401Y262304D01*
X672496Y263399D01*
X673724Y264342D01*
X675065Y265116D01*
X676495Y265708D01*
X677991Y266109D01*
X679526Y266311D01*
X681074D01*
X682609Y266109D01*
D02*
G37*
G36*
X158809Y240209D02*
X160305Y239808D01*
X161735Y239216D01*
X163076Y238442D01*
X164304Y237499D01*
X165399Y236404D01*
X166341Y235176D01*
X167116Y233835D01*
X167708Y232405D01*
X168109Y230909D01*
X168311Y229374D01*
Y228600D01*
Y227826D01*
X168109Y226291D01*
X167708Y224795D01*
X167116Y223365D01*
X166341Y222024D01*
X165399Y220796D01*
X164304Y219701D01*
X163076Y218758D01*
X161735Y217984D01*
X160305Y217392D01*
X158809Y216991D01*
X157274Y216789D01*
X155726D01*
X154191Y216991D01*
X152695Y217392D01*
X151265Y217984D01*
X149924Y218758D01*
X148696Y219701D01*
X147601Y220796D01*
X146658Y222024D01*
X145884Y223365D01*
X145292Y224795D01*
X144891Y226291D01*
X144689Y227826D01*
Y228600D01*
Y229374D01*
X144891Y230909D01*
X145292Y232405D01*
X145884Y233835D01*
X146658Y235176D01*
X147601Y236404D01*
X148696Y237499D01*
X149924Y238442D01*
X151265Y239216D01*
X152695Y239808D01*
X154191Y240209D01*
X155726Y240411D01*
X157274D01*
X158809Y240209D01*
D02*
G37*
G36*
X109909D02*
X111405Y239808D01*
X112835Y239216D01*
X114176Y238442D01*
X115404Y237499D01*
X116499Y236404D01*
X117441Y235176D01*
X118216Y233835D01*
X118808Y232405D01*
X119209Y230909D01*
X119411Y229374D01*
Y228600D01*
Y227826D01*
X119209Y226291D01*
X118808Y224795D01*
X118216Y223365D01*
X117441Y222024D01*
X116499Y220796D01*
X115404Y219701D01*
X114176Y218758D01*
X112835Y217984D01*
X111405Y217392D01*
X109909Y216991D01*
X108374Y216789D01*
X106826D01*
X105291Y216991D01*
X103795Y217392D01*
X102365Y217984D01*
X101024Y218758D01*
X99796Y219701D01*
X98701Y220796D01*
X97758Y222024D01*
X96984Y223365D01*
X96392Y224795D01*
X95991Y226291D01*
X95789Y227826D01*
Y228600D01*
Y229374D01*
X95991Y230909D01*
X96392Y232405D01*
X96984Y233835D01*
X97758Y235176D01*
X98701Y236404D01*
X99796Y237499D01*
X101024Y238442D01*
X102365Y239216D01*
X103795Y239808D01*
X105291Y240209D01*
X106826Y240411D01*
X108374D01*
X109909Y240209D01*
D02*
G37*
G36*
X60609D02*
X62105Y239808D01*
X63535Y239216D01*
X64876Y238442D01*
X66104Y237499D01*
X67199Y236404D01*
X68142Y235176D01*
X68916Y233835D01*
X69508Y232405D01*
X69909Y230909D01*
X70111Y229374D01*
Y228600D01*
Y227826D01*
X69909Y226291D01*
X69508Y224795D01*
X68916Y223365D01*
X68142Y222024D01*
X67199Y220796D01*
X66104Y219701D01*
X64876Y218758D01*
X63535Y217984D01*
X62105Y217392D01*
X60609Y216991D01*
X59074Y216789D01*
X57526D01*
X55991Y216991D01*
X54495Y217392D01*
X53065Y217984D01*
X51724Y218758D01*
X50496Y219701D01*
X49401Y220796D01*
X48458Y222024D01*
X47684Y223365D01*
X47092Y224795D01*
X46691Y226291D01*
X46489Y227826D01*
Y228600D01*
Y229374D01*
X46691Y230909D01*
X47092Y232405D01*
X47684Y233835D01*
X48458Y235176D01*
X49401Y236404D01*
X50496Y237499D01*
X51724Y238442D01*
X53065Y239216D01*
X54495Y239808D01*
X55991Y240209D01*
X57526Y240411D01*
X59074D01*
X60609Y240209D01*
D02*
G37*
G36*
X208709Y239455D02*
X210205Y239054D01*
X211635Y238461D01*
X212976Y237687D01*
X214204Y236745D01*
X215299Y235650D01*
X216242Y234422D01*
X217016Y233081D01*
X217608Y231650D01*
X218009Y230155D01*
X218211Y228620D01*
Y227846D01*
Y227072D01*
X218009Y225536D01*
X217608Y224041D01*
X217016Y222611D01*
X216242Y221270D01*
X215299Y220041D01*
X214204Y218947D01*
X212976Y218004D01*
X211635Y217230D01*
X210205Y216637D01*
X208709Y216237D01*
X207174Y216035D01*
X205626D01*
X204091Y216237D01*
X202595Y216637D01*
X201165Y217230D01*
X199824Y218004D01*
X198596Y218947D01*
X197501Y220041D01*
X196558Y221270D01*
X195784Y222611D01*
X195192Y224041D01*
X194791Y225536D01*
X194589Y227072D01*
Y227846D01*
Y228620D01*
X194791Y230155D01*
X195192Y231650D01*
X195784Y233081D01*
X196558Y234422D01*
X197501Y235650D01*
X198596Y236745D01*
X199824Y237687D01*
X201165Y238461D01*
X202595Y239054D01*
X204091Y239455D01*
X205626Y239657D01*
X207174D01*
X208709Y239455D01*
D02*
G37*
G36*
X734109Y224609D02*
X735605Y224208D01*
X737035Y223616D01*
X738376Y222842D01*
X739604Y221899D01*
X740699Y220804D01*
X741642Y219576D01*
X742416Y218235D01*
X743008Y216805D01*
X743409Y215309D01*
X743611Y213774D01*
Y213000D01*
Y212226D01*
X743409Y210691D01*
X743008Y209195D01*
X742416Y207765D01*
X741642Y206424D01*
X740699Y205196D01*
X739604Y204101D01*
X738376Y203158D01*
X737035Y202384D01*
X735605Y201792D01*
X734109Y201391D01*
X732574Y201189D01*
X731026D01*
X729491Y201391D01*
X727995Y201792D01*
X726565Y202384D01*
X725224Y203158D01*
X723996Y204101D01*
X722901Y205196D01*
X721958Y206424D01*
X721184Y207765D01*
X720592Y209195D01*
X720191Y210691D01*
X719989Y212226D01*
Y213000D01*
Y213774D01*
X720191Y215309D01*
X720592Y216805D01*
X721184Y218235D01*
X721958Y219576D01*
X722901Y220804D01*
X723996Y221899D01*
X725224Y222842D01*
X726565Y223616D01*
X727995Y224208D01*
X729491Y224609D01*
X731026Y224811D01*
X732574D01*
X734109Y224609D01*
D02*
G37*
G36*
X682609D02*
X684105Y224208D01*
X685535Y223616D01*
X686876Y222842D01*
X688104Y221899D01*
X689199Y220804D01*
X690141Y219576D01*
X690916Y218235D01*
X691508Y216805D01*
X691909Y215309D01*
X692111Y213774D01*
Y213000D01*
Y212226D01*
X691909Y210691D01*
X691508Y209195D01*
X690916Y207765D01*
X690141Y206424D01*
X689199Y205196D01*
X688104Y204101D01*
X686876Y203158D01*
X685535Y202384D01*
X684105Y201792D01*
X682609Y201391D01*
X681074Y201189D01*
X679526D01*
X677991Y201391D01*
X676495Y201792D01*
X675065Y202384D01*
X673724Y203158D01*
X672496Y204101D01*
X671401Y205196D01*
X670458Y206424D01*
X669684Y207765D01*
X669092Y209195D01*
X668691Y210691D01*
X668489Y212226D01*
Y213000D01*
Y213774D01*
X668691Y215309D01*
X669092Y216805D01*
X669684Y218235D01*
X670458Y219576D01*
X671401Y220804D01*
X672496Y221899D01*
X673724Y222842D01*
X675065Y223616D01*
X676495Y224208D01*
X677991Y224609D01*
X679526Y224811D01*
X681074D01*
X682609Y224609D01*
D02*
G37*
G36*
X208709Y200509D02*
X210205Y200108D01*
X211635Y199516D01*
X212976Y198742D01*
X214204Y197799D01*
X215299Y196704D01*
X216242Y195476D01*
X217016Y194135D01*
X217608Y192705D01*
X218009Y191209D01*
X218211Y189674D01*
Y188900D01*
Y188126D01*
X218009Y186591D01*
X217608Y185095D01*
X217016Y183665D01*
X216242Y182324D01*
X215299Y181096D01*
X214204Y180001D01*
X212976Y179058D01*
X211635Y178284D01*
X210205Y177692D01*
X208709Y177291D01*
X207174Y177089D01*
X205626D01*
X204091Y177291D01*
X202595Y177692D01*
X201165Y178284D01*
X199824Y179058D01*
X198596Y180001D01*
X197501Y181096D01*
X196558Y182324D01*
X195784Y183665D01*
X195192Y185095D01*
X194791Y186591D01*
X194589Y188126D01*
Y188900D01*
Y189674D01*
X194791Y191209D01*
X195192Y192705D01*
X195784Y194135D01*
X196558Y195476D01*
X197501Y196704D01*
X198596Y197799D01*
X199824Y198742D01*
X201165Y199516D01*
X202595Y200108D01*
X204091Y200509D01*
X205626Y200711D01*
X207174D01*
X208709Y200509D01*
D02*
G37*
G36*
X158809D02*
X160305Y200108D01*
X161735Y199516D01*
X163076Y198742D01*
X164304Y197799D01*
X165399Y196704D01*
X166341Y195476D01*
X167116Y194135D01*
X167708Y192705D01*
X168109Y191209D01*
X168311Y189674D01*
Y188900D01*
Y188126D01*
X168109Y186591D01*
X167708Y185095D01*
X167116Y183665D01*
X166341Y182324D01*
X165399Y181096D01*
X164304Y180001D01*
X163076Y179058D01*
X161735Y178284D01*
X160305Y177692D01*
X158809Y177291D01*
X157274Y177089D01*
X155726D01*
X154191Y177291D01*
X152695Y177692D01*
X151265Y178284D01*
X149924Y179058D01*
X148696Y180001D01*
X147601Y181096D01*
X146658Y182324D01*
X145884Y183665D01*
X145292Y185095D01*
X144891Y186591D01*
X144689Y188126D01*
Y188900D01*
Y189674D01*
X144891Y191209D01*
X145292Y192705D01*
X145884Y194135D01*
X146658Y195476D01*
X147601Y196704D01*
X148696Y197799D01*
X149924Y198742D01*
X151265Y199516D01*
X152695Y200108D01*
X154191Y200509D01*
X155726Y200711D01*
X157274D01*
X158809Y200509D01*
D02*
G37*
G36*
X109909D02*
X111405Y200108D01*
X112835Y199516D01*
X114176Y198742D01*
X115404Y197799D01*
X116499Y196704D01*
X117441Y195476D01*
X118216Y194135D01*
X118808Y192705D01*
X119209Y191209D01*
X119411Y189674D01*
Y188900D01*
Y188126D01*
X119209Y186591D01*
X118808Y185095D01*
X118216Y183665D01*
X117441Y182324D01*
X116499Y181096D01*
X115404Y180001D01*
X114176Y179058D01*
X112835Y178284D01*
X111405Y177692D01*
X109909Y177291D01*
X108374Y177089D01*
X106826D01*
X105291Y177291D01*
X103795Y177692D01*
X102365Y178284D01*
X101024Y179058D01*
X99796Y180001D01*
X98701Y181096D01*
X97758Y182324D01*
X96984Y183665D01*
X96392Y185095D01*
X95991Y186591D01*
X95789Y188126D01*
Y188900D01*
Y189674D01*
X95991Y191209D01*
X96392Y192705D01*
X96984Y194135D01*
X97758Y195476D01*
X98701Y196704D01*
X99796Y197799D01*
X101024Y198742D01*
X102365Y199516D01*
X103795Y200108D01*
X105291Y200509D01*
X106826Y200711D01*
X108374D01*
X109909Y200509D01*
D02*
G37*
G36*
X60609D02*
X62105Y200108D01*
X63535Y199516D01*
X64876Y198742D01*
X66104Y197799D01*
X67199Y196704D01*
X68142Y195476D01*
X68916Y194135D01*
X69508Y192705D01*
X69909Y191209D01*
X70111Y189674D01*
Y188900D01*
Y188126D01*
X69909Y186591D01*
X69508Y185095D01*
X68916Y183665D01*
X68142Y182324D01*
X67199Y181096D01*
X66104Y180001D01*
X64876Y179058D01*
X63535Y178284D01*
X62105Y177692D01*
X60609Y177291D01*
X59074Y177089D01*
X57526D01*
X55991Y177291D01*
X54495Y177692D01*
X53065Y178284D01*
X51724Y179058D01*
X50496Y180001D01*
X49401Y181096D01*
X48458Y182324D01*
X47684Y183665D01*
X47092Y185095D01*
X46691Y186591D01*
X46489Y188126D01*
Y188900D01*
Y189674D01*
X46691Y191209D01*
X47092Y192705D01*
X47684Y194135D01*
X48458Y195476D01*
X49401Y196704D01*
X50496Y197799D01*
X51724Y198742D01*
X53065Y199516D01*
X54495Y200108D01*
X55991Y200509D01*
X57526Y200711D01*
X59074D01*
X60609Y200509D01*
D02*
G37*
G36*
X682309Y161609D02*
X683805Y161208D01*
X685235Y160616D01*
X686576Y159842D01*
X687804Y158899D01*
X688899Y157804D01*
X689842Y156576D01*
X690616Y155235D01*
X691208Y153805D01*
X691609Y152309D01*
X691811Y150774D01*
Y150000D01*
Y149226D01*
X691609Y147691D01*
X691208Y146195D01*
X690616Y144765D01*
X689842Y143424D01*
X688899Y142196D01*
X687804Y141101D01*
X686576Y140158D01*
X685235Y139384D01*
X683805Y138792D01*
X682309Y138391D01*
X680774Y138189D01*
X679226D01*
X677691Y138391D01*
X676195Y138792D01*
X674765Y139384D01*
X673424Y140158D01*
X672196Y141101D01*
X671101Y142196D01*
X670158Y143424D01*
X669384Y144765D01*
X668792Y146195D01*
X668391Y147691D01*
X668189Y149226D01*
Y150000D01*
Y150774D01*
X668391Y152309D01*
X668792Y153805D01*
X669384Y155235D01*
X670158Y156576D01*
X671101Y157804D01*
X672196Y158899D01*
X673424Y159842D01*
X674765Y160616D01*
X676195Y161208D01*
X677691Y161609D01*
X679226Y161811D01*
X680774D01*
X682309Y161609D01*
D02*
G37*
G36*
X734109Y161309D02*
X735605Y160908D01*
X737035Y160316D01*
X738376Y159542D01*
X739604Y158599D01*
X740699Y157504D01*
X741642Y156276D01*
X742416Y154935D01*
X743008Y153505D01*
X743409Y152009D01*
X743611Y150474D01*
Y149700D01*
Y148926D01*
X743409Y147391D01*
X743008Y145895D01*
X742416Y144465D01*
X741642Y143124D01*
X740699Y141896D01*
X739604Y140801D01*
X738376Y139858D01*
X737035Y139084D01*
X735605Y138492D01*
X734109Y138091D01*
X732574Y137889D01*
X731026D01*
X729491Y138091D01*
X727995Y138492D01*
X726565Y139084D01*
X725224Y139858D01*
X723996Y140801D01*
X722901Y141896D01*
X721958Y143124D01*
X721184Y144465D01*
X720592Y145895D01*
X720191Y147391D01*
X719989Y148926D01*
Y149700D01*
Y150474D01*
X720191Y152009D01*
X720592Y153505D01*
X721184Y154935D01*
X721958Y156276D01*
X722901Y157504D01*
X723996Y158599D01*
X725224Y159542D01*
X726565Y160316D01*
X727995Y160908D01*
X729491Y161309D01*
X731026Y161511D01*
X732574D01*
X734109Y161309D01*
D02*
G37*
G36*
X631309D02*
X632805Y160908D01*
X634235Y160316D01*
X635576Y159542D01*
X636804Y158599D01*
X637899Y157504D01*
X638841Y156276D01*
X639616Y154935D01*
X640208Y153505D01*
X640609Y152009D01*
X640811Y150474D01*
Y149700D01*
Y148926D01*
X640609Y147391D01*
X640208Y145895D01*
X639616Y144465D01*
X638841Y143124D01*
X637899Y141896D01*
X636804Y140801D01*
X635576Y139858D01*
X634235Y139084D01*
X632805Y138492D01*
X631309Y138091D01*
X629774Y137889D01*
X628226D01*
X626691Y138091D01*
X625195Y138492D01*
X623765Y139084D01*
X622424Y139858D01*
X621196Y140801D01*
X620101Y141896D01*
X619158Y143124D01*
X618384Y144465D01*
X617792Y145895D01*
X617391Y147391D01*
X617189Y148926D01*
Y149700D01*
Y150474D01*
X617391Y152009D01*
X617792Y153505D01*
X618384Y154935D01*
X619158Y156276D01*
X620101Y157504D01*
X621196Y158599D01*
X622424Y159542D01*
X623765Y160316D01*
X625195Y160908D01*
X626691Y161309D01*
X628226Y161511D01*
X629774D01*
X631309Y161309D01*
D02*
G37*
G36*
X583009D02*
X584505Y160908D01*
X585935Y160316D01*
X587276Y159542D01*
X588504Y158599D01*
X589599Y157504D01*
X590542Y156276D01*
X591316Y154935D01*
X591908Y153505D01*
X592309Y152009D01*
X592511Y150474D01*
Y149700D01*
Y148926D01*
X592309Y147391D01*
X591908Y145895D01*
X591316Y144465D01*
X590542Y143124D01*
X589599Y141896D01*
X588504Y140801D01*
X587276Y139858D01*
X585935Y139084D01*
X584505Y138492D01*
X583009Y138091D01*
X581474Y137889D01*
X579926D01*
X578391Y138091D01*
X576895Y138492D01*
X575465Y139084D01*
X574124Y139858D01*
X572896Y140801D01*
X571801Y141896D01*
X570858Y143124D01*
X570084Y144465D01*
X569492Y145895D01*
X569091Y147391D01*
X568889Y148926D01*
Y149700D01*
Y150474D01*
X569091Y152009D01*
X569492Y153505D01*
X570084Y154935D01*
X570858Y156276D01*
X571801Y157504D01*
X572896Y158599D01*
X574124Y159542D01*
X575465Y160316D01*
X576895Y160908D01*
X578391Y161309D01*
X579926Y161511D01*
X581474D01*
X583009Y161309D01*
D02*
G37*
G36*
X530509D02*
X532005Y160908D01*
X533435Y160316D01*
X534776Y159542D01*
X536004Y158599D01*
X537099Y157504D01*
X538041Y156276D01*
X538816Y154935D01*
X539408Y153505D01*
X539809Y152009D01*
X540011Y150474D01*
Y149700D01*
Y148926D01*
X539809Y147391D01*
X539408Y145895D01*
X538816Y144465D01*
X538041Y143124D01*
X537099Y141896D01*
X536004Y140801D01*
X534776Y139858D01*
X533435Y139084D01*
X532005Y138492D01*
X530509Y138091D01*
X528974Y137889D01*
X527426D01*
X525891Y138091D01*
X524395Y138492D01*
X522965Y139084D01*
X521624Y139858D01*
X520396Y140801D01*
X519301Y141896D01*
X518358Y143124D01*
X517584Y144465D01*
X516992Y145895D01*
X516591Y147391D01*
X516389Y148926D01*
Y149700D01*
Y150474D01*
X516591Y152009D01*
X516992Y153505D01*
X517584Y154935D01*
X518358Y156276D01*
X519301Y157504D01*
X520396Y158599D01*
X521624Y159542D01*
X522965Y160316D01*
X524395Y160908D01*
X525891Y161309D01*
X527426Y161511D01*
X528974D01*
X530509Y161309D01*
D02*
G37*
G36*
X479409D02*
X480905Y160908D01*
X482335Y160316D01*
X483676Y159542D01*
X484904Y158599D01*
X485999Y157504D01*
X486941Y156276D01*
X487716Y154935D01*
X488308Y153505D01*
X488709Y152009D01*
X488911Y150474D01*
Y149700D01*
Y148926D01*
X488709Y147391D01*
X488308Y145895D01*
X487716Y144465D01*
X486941Y143124D01*
X485999Y141896D01*
X484904Y140801D01*
X483676Y139858D01*
X482335Y139084D01*
X480905Y138492D01*
X479409Y138091D01*
X477874Y137889D01*
X476326D01*
X474791Y138091D01*
X473295Y138492D01*
X471865Y139084D01*
X470524Y139858D01*
X469296Y140801D01*
X468201Y141896D01*
X467258Y143124D01*
X466484Y144465D01*
X465892Y145895D01*
X465491Y147391D01*
X465289Y148926D01*
Y149700D01*
Y150474D01*
X465491Y152009D01*
X465892Y153505D01*
X466484Y154935D01*
X467258Y156276D01*
X468201Y157504D01*
X469296Y158599D01*
X470524Y159542D01*
X471865Y160316D01*
X473295Y160908D01*
X474791Y161309D01*
X476326Y161511D01*
X477874D01*
X479409Y161309D01*
D02*
G37*
G36*
X428409D02*
X429905Y160908D01*
X431335Y160316D01*
X432676Y159542D01*
X433904Y158599D01*
X434999Y157504D01*
X435942Y156276D01*
X436716Y154935D01*
X437308Y153505D01*
X437709Y152009D01*
X437911Y150474D01*
Y149700D01*
Y148926D01*
X437709Y147391D01*
X437308Y145895D01*
X436716Y144465D01*
X435942Y143124D01*
X434999Y141896D01*
X433904Y140801D01*
X432676Y139858D01*
X431335Y139084D01*
X429905Y138492D01*
X428409Y138091D01*
X426874Y137889D01*
X425326D01*
X423791Y138091D01*
X422295Y138492D01*
X420865Y139084D01*
X419524Y139858D01*
X418296Y140801D01*
X417201Y141896D01*
X416258Y143124D01*
X415484Y144465D01*
X414892Y145895D01*
X414491Y147391D01*
X414289Y148926D01*
Y149700D01*
Y150474D01*
X414491Y152009D01*
X414892Y153505D01*
X415484Y154935D01*
X416258Y156276D01*
X417201Y157504D01*
X418296Y158599D01*
X419524Y159542D01*
X420865Y160316D01*
X422295Y160908D01*
X423791Y161309D01*
X425326Y161511D01*
X426874D01*
X428409Y161309D01*
D02*
G37*
G36*
X376809D02*
X378305Y160908D01*
X379735Y160316D01*
X381076Y159542D01*
X382304Y158599D01*
X383399Y157504D01*
X384342Y156276D01*
X385116Y154935D01*
X385708Y153505D01*
X386109Y152009D01*
X386311Y150474D01*
Y149700D01*
Y148926D01*
X386109Y147391D01*
X385708Y145895D01*
X385116Y144465D01*
X384342Y143124D01*
X383399Y141896D01*
X382304Y140801D01*
X381076Y139858D01*
X379735Y139084D01*
X378305Y138492D01*
X376809Y138091D01*
X375274Y137889D01*
X373726D01*
X372191Y138091D01*
X370695Y138492D01*
X369265Y139084D01*
X367924Y139858D01*
X366696Y140801D01*
X365601Y141896D01*
X364658Y143124D01*
X363884Y144465D01*
X363292Y145895D01*
X362891Y147391D01*
X362689Y148926D01*
Y149700D01*
Y150474D01*
X362891Y152009D01*
X363292Y153505D01*
X363884Y154935D01*
X364658Y156276D01*
X365601Y157504D01*
X366696Y158599D01*
X367924Y159542D01*
X369265Y160316D01*
X370695Y160908D01*
X372191Y161309D01*
X373726Y161511D01*
X375274D01*
X376809Y161309D01*
D02*
G37*
G36*
X325709D02*
X327205Y160908D01*
X328635Y160316D01*
X329976Y159542D01*
X331204Y158599D01*
X332299Y157504D01*
X333242Y156276D01*
X334016Y154935D01*
X334608Y153505D01*
X335009Y152009D01*
X335211Y150474D01*
Y149700D01*
Y148926D01*
X335009Y147391D01*
X334608Y145895D01*
X334016Y144465D01*
X333242Y143124D01*
X332299Y141896D01*
X331204Y140801D01*
X329976Y139858D01*
X328635Y139084D01*
X327205Y138492D01*
X325709Y138091D01*
X324174Y137889D01*
X322626D01*
X321091Y138091D01*
X319595Y138492D01*
X318165Y139084D01*
X316824Y139858D01*
X315596Y140801D01*
X314501Y141896D01*
X313558Y143124D01*
X312784Y144465D01*
X312192Y145895D01*
X311791Y147391D01*
X311589Y148926D01*
Y149700D01*
Y150474D01*
X311791Y152009D01*
X312192Y153505D01*
X312784Y154935D01*
X313558Y156276D01*
X314501Y157504D01*
X315596Y158599D01*
X316824Y159542D01*
X318165Y160316D01*
X319595Y160908D01*
X321091Y161309D01*
X322626Y161511D01*
X324174D01*
X325709Y161309D01*
D02*
G37*
G36*
X274509D02*
X276005Y160908D01*
X277435Y160316D01*
X278776Y159542D01*
X280004Y158599D01*
X281099Y157504D01*
X282042Y156276D01*
X282816Y154935D01*
X283408Y153505D01*
X283809Y152009D01*
X284011Y150474D01*
Y149700D01*
Y148926D01*
X283809Y147391D01*
X283408Y145895D01*
X282816Y144465D01*
X282042Y143124D01*
X281099Y141896D01*
X280004Y140801D01*
X278776Y139858D01*
X277435Y139084D01*
X276005Y138492D01*
X274509Y138091D01*
X272974Y137889D01*
X271426D01*
X269891Y138091D01*
X268395Y138492D01*
X266965Y139084D01*
X265624Y139858D01*
X264396Y140801D01*
X263301Y141896D01*
X262358Y143124D01*
X261584Y144465D01*
X260992Y145895D01*
X260591Y147391D01*
X260389Y148926D01*
Y149700D01*
Y150474D01*
X260591Y152009D01*
X260992Y153505D01*
X261584Y154935D01*
X262358Y156276D01*
X263301Y157504D01*
X264396Y158599D01*
X265624Y159542D01*
X266965Y160316D01*
X268395Y160908D01*
X269891Y161309D01*
X271426Y161511D01*
X272974D01*
X274509Y161309D01*
D02*
G37*
G36*
X208709D02*
X210205Y160908D01*
X211635Y160316D01*
X212976Y159542D01*
X214204Y158599D01*
X215299Y157504D01*
X216242Y156276D01*
X217016Y154935D01*
X217608Y153505D01*
X218009Y152009D01*
X218211Y150474D01*
Y149700D01*
Y148926D01*
X218009Y147391D01*
X217608Y145895D01*
X217016Y144465D01*
X216242Y143124D01*
X215299Y141896D01*
X214204Y140801D01*
X212976Y139858D01*
X211635Y139084D01*
X210205Y138492D01*
X208709Y138091D01*
X207174Y137889D01*
X205626D01*
X204091Y138091D01*
X202595Y138492D01*
X201165Y139084D01*
X199824Y139858D01*
X198596Y140801D01*
X197501Y141896D01*
X196558Y143124D01*
X195784Y144465D01*
X195192Y145895D01*
X194791Y147391D01*
X194589Y148926D01*
Y149700D01*
Y150474D01*
X194791Y152009D01*
X195192Y153505D01*
X195784Y154935D01*
X196558Y156276D01*
X197501Y157504D01*
X198596Y158599D01*
X199824Y159542D01*
X201165Y160316D01*
X202595Y160908D01*
X204091Y161309D01*
X205626Y161511D01*
X207174D01*
X208709Y161309D01*
D02*
G37*
G36*
X158809D02*
X160305Y160908D01*
X161735Y160316D01*
X163076Y159542D01*
X164304Y158599D01*
X165399Y157504D01*
X166341Y156276D01*
X167116Y154935D01*
X167708Y153505D01*
X168109Y152009D01*
X168311Y150474D01*
Y149700D01*
Y148926D01*
X168109Y147391D01*
X167708Y145895D01*
X167116Y144465D01*
X166341Y143124D01*
X165399Y141896D01*
X164304Y140801D01*
X163076Y139858D01*
X161735Y139084D01*
X160305Y138492D01*
X158809Y138091D01*
X157274Y137889D01*
X155726D01*
X154191Y138091D01*
X152695Y138492D01*
X151265Y139084D01*
X149924Y139858D01*
X148696Y140801D01*
X147601Y141896D01*
X146658Y143124D01*
X145884Y144465D01*
X145292Y145895D01*
X144891Y147391D01*
X144689Y148926D01*
Y149700D01*
Y150474D01*
X144891Y152009D01*
X145292Y153505D01*
X145884Y154935D01*
X146658Y156276D01*
X147601Y157504D01*
X148696Y158599D01*
X149924Y159542D01*
X151265Y160316D01*
X152695Y160908D01*
X154191Y161309D01*
X155726Y161511D01*
X157274D01*
X158809Y161309D01*
D02*
G37*
G36*
X109909D02*
X111405Y160908D01*
X112835Y160316D01*
X114176Y159542D01*
X115404Y158599D01*
X116499Y157504D01*
X117441Y156276D01*
X118216Y154935D01*
X118808Y153505D01*
X119209Y152009D01*
X119411Y150474D01*
Y149700D01*
Y148926D01*
X119209Y147391D01*
X118808Y145895D01*
X118216Y144465D01*
X117441Y143124D01*
X116499Y141896D01*
X115404Y140801D01*
X114176Y139858D01*
X112835Y139084D01*
X111405Y138492D01*
X109909Y138091D01*
X108374Y137889D01*
X106826D01*
X105291Y138091D01*
X103795Y138492D01*
X102365Y139084D01*
X101024Y139858D01*
X99796Y140801D01*
X98701Y141896D01*
X97758Y143124D01*
X96984Y144465D01*
X96392Y145895D01*
X95991Y147391D01*
X95789Y148926D01*
Y149700D01*
Y150474D01*
X95991Y152009D01*
X96392Y153505D01*
X96984Y154935D01*
X97758Y156276D01*
X98701Y157504D01*
X99796Y158599D01*
X101024Y159542D01*
X102365Y160316D01*
X103795Y160908D01*
X105291Y161309D01*
X106826Y161511D01*
X108374D01*
X109909Y161309D01*
D02*
G37*
G36*
X60609D02*
X62105Y160908D01*
X63535Y160316D01*
X64876Y159542D01*
X66104Y158599D01*
X67199Y157504D01*
X68142Y156276D01*
X68916Y154935D01*
X69508Y153505D01*
X69909Y152009D01*
X70111Y150474D01*
Y149700D01*
Y148926D01*
X69909Y147391D01*
X69508Y145895D01*
X68916Y144465D01*
X68142Y143124D01*
X67199Y141896D01*
X66104Y140801D01*
X64876Y139858D01*
X63535Y139084D01*
X62105Y138492D01*
X60609Y138091D01*
X59074Y137889D01*
X57526D01*
X55991Y138091D01*
X54495Y138492D01*
X53065Y139084D01*
X51724Y139858D01*
X50496Y140801D01*
X49401Y141896D01*
X48458Y143124D01*
X47684Y144465D01*
X47092Y145895D01*
X46691Y147391D01*
X46489Y148926D01*
Y149700D01*
Y150474D01*
X46691Y152009D01*
X47092Y153505D01*
X47684Y154935D01*
X48458Y156276D01*
X49401Y157504D01*
X50496Y158599D01*
X51724Y159542D01*
X53065Y160316D01*
X54495Y160908D01*
X55991Y161309D01*
X57526Y161511D01*
X59074D01*
X60609Y161309D01*
D02*
G37*
G36*
X708309Y121909D02*
X709805Y121508D01*
X711235Y120916D01*
X712576Y120142D01*
X713804Y119199D01*
X714899Y118104D01*
X715841Y116876D01*
X716616Y115535D01*
X717208Y114105D01*
X717609Y112609D01*
X717811Y111074D01*
Y110300D01*
Y109526D01*
X717609Y107991D01*
X717208Y106495D01*
X716616Y105065D01*
X715841Y103724D01*
X714899Y102496D01*
X713804Y101401D01*
X712576Y100459D01*
X711235Y99684D01*
X709805Y99092D01*
X708309Y98691D01*
X706774Y98489D01*
X705226D01*
X703691Y98691D01*
X702195Y99092D01*
X700765Y99684D01*
X699424Y100459D01*
X698196Y101401D01*
X697101Y102496D01*
X696158Y103724D01*
X695384Y105065D01*
X694792Y106495D01*
X694391Y107991D01*
X694189Y109526D01*
Y110300D01*
Y111074D01*
X694391Y112609D01*
X694792Y114105D01*
X695384Y115535D01*
X696158Y116876D01*
X697101Y118104D01*
X698196Y119199D01*
X699424Y120142D01*
X700765Y120916D01*
X702195Y121508D01*
X703691Y121909D01*
X705226Y122111D01*
X706774D01*
X708309Y121909D01*
D02*
G37*
G36*
X657509D02*
X659005Y121508D01*
X660435Y120916D01*
X661776Y120142D01*
X663004Y119199D01*
X664099Y118104D01*
X665041Y116876D01*
X665816Y115535D01*
X666408Y114105D01*
X666809Y112609D01*
X667011Y111074D01*
Y110300D01*
Y109526D01*
X666809Y107991D01*
X666408Y106495D01*
X665816Y105065D01*
X665041Y103724D01*
X664099Y102496D01*
X663004Y101401D01*
X661776Y100459D01*
X660435Y99684D01*
X659005Y99092D01*
X657509Y98691D01*
X655974Y98489D01*
X654426D01*
X652891Y98691D01*
X651395Y99092D01*
X649965Y99684D01*
X648624Y100459D01*
X647396Y101401D01*
X646301Y102496D01*
X645358Y103724D01*
X644584Y105065D01*
X643992Y106495D01*
X643591Y107991D01*
X643389Y109526D01*
Y110300D01*
Y111074D01*
X643591Y112609D01*
X643992Y114105D01*
X644584Y115535D01*
X645358Y116876D01*
X646301Y118104D01*
X647396Y119199D01*
X648624Y120142D01*
X649965Y120916D01*
X651395Y121508D01*
X652891Y121909D01*
X654426Y122111D01*
X655974D01*
X657509Y121909D01*
D02*
G37*
G36*
X607909D02*
X609405Y121508D01*
X610835Y120916D01*
X612176Y120142D01*
X613404Y119199D01*
X614499Y118104D01*
X615442Y116876D01*
X616216Y115535D01*
X616808Y114105D01*
X617209Y112609D01*
X617411Y111074D01*
Y110300D01*
Y109526D01*
X617209Y107991D01*
X616808Y106495D01*
X616216Y105065D01*
X615442Y103724D01*
X614499Y102496D01*
X613404Y101401D01*
X612176Y100459D01*
X610835Y99684D01*
X609405Y99092D01*
X607909Y98691D01*
X606374Y98489D01*
X604826D01*
X603291Y98691D01*
X601795Y99092D01*
X600365Y99684D01*
X599024Y100459D01*
X597796Y101401D01*
X596701Y102496D01*
X595758Y103724D01*
X594984Y105065D01*
X594392Y106495D01*
X593991Y107991D01*
X593789Y109526D01*
Y110300D01*
Y111074D01*
X593991Y112609D01*
X594392Y114105D01*
X594984Y115535D01*
X595758Y116876D01*
X596701Y118104D01*
X597796Y119199D01*
X599024Y120142D01*
X600365Y120916D01*
X601795Y121508D01*
X603291Y121909D01*
X604826Y122111D01*
X606374D01*
X607909Y121909D01*
D02*
G37*
G36*
X557109D02*
X558605Y121508D01*
X560035Y120916D01*
X561376Y120142D01*
X562604Y119199D01*
X563699Y118104D01*
X564642Y116876D01*
X565416Y115535D01*
X566008Y114105D01*
X566409Y112609D01*
X566611Y111074D01*
Y110300D01*
Y109526D01*
X566409Y107991D01*
X566008Y106495D01*
X565416Y105065D01*
X564642Y103724D01*
X563699Y102496D01*
X562604Y101401D01*
X561376Y100459D01*
X560035Y99684D01*
X558605Y99092D01*
X557109Y98691D01*
X555574Y98489D01*
X554026D01*
X552491Y98691D01*
X550995Y99092D01*
X549565Y99684D01*
X548224Y100459D01*
X546996Y101401D01*
X545901Y102496D01*
X544958Y103724D01*
X544184Y105065D01*
X543592Y106495D01*
X543191Y107991D01*
X542989Y109526D01*
Y110300D01*
Y111074D01*
X543191Y112609D01*
X543592Y114105D01*
X544184Y115535D01*
X544958Y116876D01*
X545901Y118104D01*
X546996Y119199D01*
X548224Y120142D01*
X549565Y120916D01*
X550995Y121508D01*
X552491Y121909D01*
X554026Y122111D01*
X555574D01*
X557109Y121909D01*
D02*
G37*
G36*
X505709D02*
X507205Y121508D01*
X508635Y120916D01*
X509976Y120142D01*
X511204Y119199D01*
X512299Y118104D01*
X513241Y116876D01*
X514016Y115535D01*
X514608Y114105D01*
X515009Y112609D01*
X515211Y111074D01*
Y110300D01*
Y109526D01*
X515009Y107991D01*
X514608Y106495D01*
X514016Y105065D01*
X513241Y103724D01*
X512299Y102496D01*
X511204Y101401D01*
X509976Y100459D01*
X508635Y99684D01*
X507205Y99092D01*
X505709Y98691D01*
X504174Y98489D01*
X502626D01*
X501091Y98691D01*
X499595Y99092D01*
X498165Y99684D01*
X496824Y100459D01*
X495596Y101401D01*
X494501Y102496D01*
X493558Y103724D01*
X492784Y105065D01*
X492192Y106495D01*
X491791Y107991D01*
X491589Y109526D01*
Y110300D01*
Y111074D01*
X491791Y112609D01*
X492192Y114105D01*
X492784Y115535D01*
X493558Y116876D01*
X494501Y118104D01*
X495596Y119199D01*
X496824Y120142D01*
X498165Y120916D01*
X499595Y121508D01*
X501091Y121909D01*
X502626Y122111D01*
X504174D01*
X505709Y121909D01*
D02*
G37*
G36*
X453409D02*
X454905Y121508D01*
X456335Y120916D01*
X457676Y120142D01*
X458904Y119199D01*
X459999Y118104D01*
X460942Y116876D01*
X461716Y115535D01*
X462308Y114105D01*
X462709Y112609D01*
X462911Y111074D01*
Y110300D01*
Y109526D01*
X462709Y107991D01*
X462308Y106495D01*
X461716Y105065D01*
X460942Y103724D01*
X459999Y102496D01*
X458904Y101401D01*
X457676Y100459D01*
X456335Y99684D01*
X454905Y99092D01*
X453409Y98691D01*
X451874Y98489D01*
X450326D01*
X448791Y98691D01*
X447295Y99092D01*
X445865Y99684D01*
X444524Y100459D01*
X443296Y101401D01*
X442201Y102496D01*
X441258Y103724D01*
X440484Y105065D01*
X439892Y106495D01*
X439491Y107991D01*
X439289Y109526D01*
Y110300D01*
Y111074D01*
X439491Y112609D01*
X439892Y114105D01*
X440484Y115535D01*
X441258Y116876D01*
X442201Y118104D01*
X443296Y119199D01*
X444524Y120142D01*
X445865Y120916D01*
X447295Y121508D01*
X448791Y121909D01*
X450326Y122111D01*
X451874D01*
X453409Y121909D01*
D02*
G37*
G36*
X403209D02*
X404705Y121508D01*
X406135Y120916D01*
X407476Y120142D01*
X408704Y119199D01*
X409799Y118104D01*
X410742Y116876D01*
X411516Y115535D01*
X412108Y114105D01*
X412509Y112609D01*
X412711Y111074D01*
Y110300D01*
Y109526D01*
X412509Y107991D01*
X412108Y106495D01*
X411516Y105065D01*
X410742Y103724D01*
X409799Y102496D01*
X408704Y101401D01*
X407476Y100459D01*
X406135Y99684D01*
X404705Y99092D01*
X403209Y98691D01*
X401674Y98489D01*
X400126D01*
X398591Y98691D01*
X397095Y99092D01*
X395665Y99684D01*
X394324Y100459D01*
X393096Y101401D01*
X392001Y102496D01*
X391058Y103724D01*
X390284Y105065D01*
X389692Y106495D01*
X389291Y107991D01*
X389089Y109526D01*
Y110300D01*
Y111074D01*
X389291Y112609D01*
X389692Y114105D01*
X390284Y115535D01*
X391058Y116876D01*
X392001Y118104D01*
X393096Y119199D01*
X394324Y120142D01*
X395665Y120916D01*
X397095Y121508D01*
X398591Y121909D01*
X400126Y122111D01*
X401674D01*
X403209Y121909D01*
D02*
G37*
G36*
X352109D02*
X353605Y121508D01*
X355035Y120916D01*
X356376Y120142D01*
X357604Y119199D01*
X358699Y118104D01*
X359642Y116876D01*
X360416Y115535D01*
X361008Y114105D01*
X361409Y112609D01*
X361611Y111074D01*
Y110300D01*
Y109526D01*
X361409Y107991D01*
X361008Y106495D01*
X360416Y105065D01*
X359642Y103724D01*
X358699Y102496D01*
X357604Y101401D01*
X356376Y100459D01*
X355035Y99684D01*
X353605Y99092D01*
X352109Y98691D01*
X350574Y98489D01*
X349026D01*
X347491Y98691D01*
X345995Y99092D01*
X344565Y99684D01*
X343224Y100459D01*
X341996Y101401D01*
X340901Y102496D01*
X339958Y103724D01*
X339184Y105065D01*
X338592Y106495D01*
X338191Y107991D01*
X337989Y109526D01*
Y110300D01*
Y111074D01*
X338191Y112609D01*
X338592Y114105D01*
X339184Y115535D01*
X339958Y116876D01*
X340901Y118104D01*
X341996Y119199D01*
X343224Y120142D01*
X344565Y120916D01*
X345995Y121508D01*
X347491Y121909D01*
X349026Y122111D01*
X350574D01*
X352109Y121909D01*
D02*
G37*
G36*
X299809D02*
X301305Y121508D01*
X302735Y120916D01*
X304076Y120142D01*
X305304Y119199D01*
X306399Y118104D01*
X307342Y116876D01*
X308116Y115535D01*
X308708Y114105D01*
X309109Y112609D01*
X309311Y111074D01*
Y110300D01*
Y109526D01*
X309109Y107991D01*
X308708Y106495D01*
X308116Y105065D01*
X307342Y103724D01*
X306399Y102496D01*
X305304Y101401D01*
X304076Y100459D01*
X302735Y99684D01*
X301305Y99092D01*
X299809Y98691D01*
X298274Y98489D01*
X296726D01*
X295191Y98691D01*
X293695Y99092D01*
X292265Y99684D01*
X290924Y100459D01*
X289696Y101401D01*
X288601Y102496D01*
X287658Y103724D01*
X286884Y105065D01*
X286292Y106495D01*
X285891Y107991D01*
X285689Y109526D01*
Y110300D01*
Y111074D01*
X285891Y112609D01*
X286292Y114105D01*
X286884Y115535D01*
X287658Y116876D01*
X288601Y118104D01*
X289696Y119199D01*
X290924Y120142D01*
X292265Y120916D01*
X293695Y121508D01*
X295191Y121909D01*
X296726Y122111D01*
X298274D01*
X299809Y121909D01*
D02*
G37*
G36*
X208709D02*
X210205Y121508D01*
X211635Y120916D01*
X212976Y120142D01*
X214204Y119199D01*
X215299Y118104D01*
X216242Y116876D01*
X217016Y115535D01*
X217608Y114105D01*
X218009Y112609D01*
X218211Y111074D01*
Y110300D01*
Y109526D01*
X218009Y107991D01*
X217608Y106495D01*
X217016Y105065D01*
X216242Y103724D01*
X215299Y102496D01*
X214204Y101401D01*
X212976Y100459D01*
X211635Y99684D01*
X210205Y99092D01*
X208709Y98691D01*
X207174Y98489D01*
X205626D01*
X204091Y98691D01*
X202595Y99092D01*
X201165Y99684D01*
X199824Y100459D01*
X198596Y101401D01*
X197501Y102496D01*
X196558Y103724D01*
X195784Y105065D01*
X195192Y106495D01*
X194791Y107991D01*
X194589Y109526D01*
Y110300D01*
Y111074D01*
X194791Y112609D01*
X195192Y114105D01*
X195784Y115535D01*
X196558Y116876D01*
X197501Y118104D01*
X198596Y119199D01*
X199824Y120142D01*
X201165Y120916D01*
X202595Y121508D01*
X204091Y121909D01*
X205626Y122111D01*
X207174D01*
X208709Y121909D01*
D02*
G37*
G36*
X158809D02*
X160305Y121508D01*
X161735Y120916D01*
X163076Y120142D01*
X164304Y119199D01*
X165399Y118104D01*
X166341Y116876D01*
X167116Y115535D01*
X167708Y114105D01*
X168109Y112609D01*
X168311Y111074D01*
Y110300D01*
Y109526D01*
X168109Y107991D01*
X167708Y106495D01*
X167116Y105065D01*
X166341Y103724D01*
X165399Y102496D01*
X164304Y101401D01*
X163076Y100459D01*
X161735Y99684D01*
X160305Y99092D01*
X158809Y98691D01*
X157274Y98489D01*
X155726D01*
X154191Y98691D01*
X152695Y99092D01*
X151265Y99684D01*
X149924Y100459D01*
X148696Y101401D01*
X147601Y102496D01*
X146658Y103724D01*
X145884Y105065D01*
X145292Y106495D01*
X144891Y107991D01*
X144689Y109526D01*
Y110300D01*
Y111074D01*
X144891Y112609D01*
X145292Y114105D01*
X145884Y115535D01*
X146658Y116876D01*
X147601Y118104D01*
X148696Y119199D01*
X149924Y120142D01*
X151265Y120916D01*
X152695Y121508D01*
X154191Y121909D01*
X155726Y122111D01*
X157274D01*
X158809Y121909D01*
D02*
G37*
G36*
X109909D02*
X111405Y121508D01*
X112835Y120916D01*
X114176Y120142D01*
X115404Y119199D01*
X116499Y118104D01*
X117441Y116876D01*
X118216Y115535D01*
X118808Y114105D01*
X119209Y112609D01*
X119411Y111074D01*
Y110300D01*
Y109526D01*
X119209Y107991D01*
X118808Y106495D01*
X118216Y105065D01*
X117441Y103724D01*
X116499Y102496D01*
X115404Y101401D01*
X114176Y100459D01*
X112835Y99684D01*
X111405Y99092D01*
X109909Y98691D01*
X108374Y98489D01*
X106826D01*
X105291Y98691D01*
X103795Y99092D01*
X102365Y99684D01*
X101024Y100459D01*
X99796Y101401D01*
X98701Y102496D01*
X97758Y103724D01*
X96984Y105065D01*
X96392Y106495D01*
X95991Y107991D01*
X95789Y109526D01*
Y110300D01*
Y111074D01*
X95991Y112609D01*
X96392Y114105D01*
X96984Y115535D01*
X97758Y116876D01*
X98701Y118104D01*
X99796Y119199D01*
X101024Y120142D01*
X102365Y120916D01*
X103795Y121508D01*
X105291Y121909D01*
X106826Y122111D01*
X108374D01*
X109909Y121909D01*
D02*
G37*
G36*
X60609D02*
X62105Y121508D01*
X63535Y120916D01*
X64876Y120142D01*
X66104Y119199D01*
X67199Y118104D01*
X68142Y116876D01*
X68916Y115535D01*
X69508Y114105D01*
X69909Y112609D01*
X70111Y111074D01*
Y110300D01*
Y109526D01*
X69909Y107991D01*
X69508Y106495D01*
X68916Y105065D01*
X68142Y103724D01*
X67199Y102496D01*
X66104Y101401D01*
X64876Y100459D01*
X63535Y99684D01*
X62105Y99092D01*
X60609Y98691D01*
X59074Y98489D01*
X57526D01*
X55991Y98691D01*
X54495Y99092D01*
X53065Y99684D01*
X51724Y100459D01*
X50496Y101401D01*
X49401Y102496D01*
X48458Y103724D01*
X47684Y105065D01*
X47092Y106495D01*
X46691Y107991D01*
X46489Y109526D01*
Y110300D01*
Y111074D01*
X46691Y112609D01*
X47092Y114105D01*
X47684Y115535D01*
X48458Y116876D01*
X49401Y118104D01*
X50496Y119199D01*
X51724Y120142D01*
X53065Y120916D01*
X54495Y121508D01*
X55991Y121909D01*
X57526Y122111D01*
X59074D01*
X60609Y121909D01*
D02*
G37*
G36*
X734109Y82509D02*
X735605Y82108D01*
X737035Y81516D01*
X738376Y80742D01*
X739604Y79799D01*
X740699Y78704D01*
X741642Y77476D01*
X742416Y76135D01*
X743008Y74705D01*
X743409Y73209D01*
X743611Y71674D01*
Y70900D01*
Y70126D01*
X743409Y68591D01*
X743008Y67095D01*
X742416Y65665D01*
X741642Y64324D01*
X740699Y63096D01*
X739604Y62001D01*
X738376Y61058D01*
X737035Y60284D01*
X735605Y59692D01*
X734109Y59291D01*
X732574Y59089D01*
X731026D01*
X729491Y59291D01*
X727995Y59692D01*
X726565Y60284D01*
X725224Y61058D01*
X723996Y62001D01*
X722901Y63096D01*
X721958Y64324D01*
X721184Y65665D01*
X720592Y67095D01*
X720191Y68591D01*
X719989Y70126D01*
Y70900D01*
Y71674D01*
X720191Y73209D01*
X720592Y74705D01*
X721184Y76135D01*
X721958Y77476D01*
X722901Y78704D01*
X723996Y79799D01*
X725224Y80742D01*
X726565Y81516D01*
X727995Y82108D01*
X729491Y82509D01*
X731026Y82711D01*
X732574D01*
X734109Y82509D01*
D02*
G37*
G36*
X683527D02*
X685022Y82108D01*
X686453Y81516D01*
X687794Y80742D01*
X689022Y79799D01*
X690117Y78704D01*
X691059Y77476D01*
X691833Y76135D01*
X692426Y74705D01*
X692827Y73209D01*
X693029Y71674D01*
Y70900D01*
Y70126D01*
X692827Y68591D01*
X692426Y67095D01*
X691833Y65665D01*
X691059Y64324D01*
X690117Y63096D01*
X689022Y62001D01*
X687794Y61058D01*
X686453Y60284D01*
X685022Y59692D01*
X683527Y59291D01*
X681992Y59089D01*
X680444D01*
X678909Y59291D01*
X677413Y59692D01*
X675983Y60284D01*
X674642Y61058D01*
X673414Y62001D01*
X672319Y63096D01*
X671376Y64324D01*
X670602Y65665D01*
X670010Y67095D01*
X669609Y68591D01*
X669407Y70126D01*
Y70900D01*
Y71674D01*
X669609Y73209D01*
X670010Y74705D01*
X670602Y76135D01*
X671376Y77476D01*
X672319Y78704D01*
X673414Y79799D01*
X674642Y80742D01*
X675983Y81516D01*
X677413Y82108D01*
X678909Y82509D01*
X680444Y82711D01*
X681992D01*
X683527Y82509D01*
D02*
G37*
G36*
X631309D02*
X632805Y82108D01*
X634235Y81516D01*
X635576Y80742D01*
X636804Y79799D01*
X637899Y78704D01*
X638841Y77476D01*
X639616Y76135D01*
X640208Y74705D01*
X640609Y73209D01*
X640811Y71674D01*
Y70900D01*
Y70126D01*
X640609Y68591D01*
X640208Y67095D01*
X639616Y65665D01*
X638841Y64324D01*
X637899Y63096D01*
X636804Y62001D01*
X635576Y61058D01*
X634235Y60284D01*
X632805Y59692D01*
X631309Y59291D01*
X629774Y59089D01*
X628226D01*
X626691Y59291D01*
X625195Y59692D01*
X623765Y60284D01*
X622424Y61058D01*
X621196Y62001D01*
X620101Y63096D01*
X619158Y64324D01*
X618384Y65665D01*
X617792Y67095D01*
X617391Y68591D01*
X617189Y70126D01*
Y70900D01*
Y71674D01*
X617391Y73209D01*
X617792Y74705D01*
X618384Y76135D01*
X619158Y77476D01*
X620101Y78704D01*
X621196Y79799D01*
X622424Y80742D01*
X623765Y81516D01*
X625195Y82108D01*
X626691Y82509D01*
X628226Y82711D01*
X629774D01*
X631309Y82509D01*
D02*
G37*
G36*
X583009D02*
X584505Y82108D01*
X585935Y81516D01*
X587276Y80742D01*
X588504Y79799D01*
X589599Y78704D01*
X590542Y77476D01*
X591316Y76135D01*
X591908Y74705D01*
X592309Y73209D01*
X592511Y71674D01*
Y70900D01*
Y70126D01*
X592309Y68591D01*
X591908Y67095D01*
X591316Y65665D01*
X590542Y64324D01*
X589599Y63096D01*
X588504Y62001D01*
X587276Y61058D01*
X585935Y60284D01*
X584505Y59692D01*
X583009Y59291D01*
X581474Y59089D01*
X579926D01*
X578391Y59291D01*
X576895Y59692D01*
X575465Y60284D01*
X574124Y61058D01*
X572896Y62001D01*
X571801Y63096D01*
X570858Y64324D01*
X570084Y65665D01*
X569492Y67095D01*
X569091Y68591D01*
X568889Y70126D01*
Y70900D01*
Y71674D01*
X569091Y73209D01*
X569492Y74705D01*
X570084Y76135D01*
X570858Y77476D01*
X571801Y78704D01*
X572896Y79799D01*
X574124Y80742D01*
X575465Y81516D01*
X576895Y82108D01*
X578391Y82509D01*
X579926Y82711D01*
X581474D01*
X583009Y82509D01*
D02*
G37*
G36*
X530509D02*
X532005Y82108D01*
X533435Y81516D01*
X534776Y80742D01*
X536004Y79799D01*
X537099Y78704D01*
X538041Y77476D01*
X538816Y76135D01*
X539408Y74705D01*
X539809Y73209D01*
X540011Y71674D01*
Y70900D01*
Y70126D01*
X539809Y68591D01*
X539408Y67095D01*
X538816Y65665D01*
X538041Y64324D01*
X537099Y63096D01*
X536004Y62001D01*
X534776Y61058D01*
X533435Y60284D01*
X532005Y59692D01*
X530509Y59291D01*
X528974Y59089D01*
X527426D01*
X525891Y59291D01*
X524395Y59692D01*
X522965Y60284D01*
X521624Y61058D01*
X520396Y62001D01*
X519301Y63096D01*
X518358Y64324D01*
X517584Y65665D01*
X516992Y67095D01*
X516591Y68591D01*
X516389Y70126D01*
Y70900D01*
Y71674D01*
X516591Y73209D01*
X516992Y74705D01*
X517584Y76135D01*
X518358Y77476D01*
X519301Y78704D01*
X520396Y79799D01*
X521624Y80742D01*
X522965Y81516D01*
X524395Y82108D01*
X525891Y82509D01*
X527426Y82711D01*
X528974D01*
X530509Y82509D01*
D02*
G37*
G36*
X479409D02*
X480905Y82108D01*
X482335Y81516D01*
X483676Y80742D01*
X484904Y79799D01*
X485999Y78704D01*
X486941Y77476D01*
X487716Y76135D01*
X488308Y74705D01*
X488709Y73209D01*
X488911Y71674D01*
Y70900D01*
Y70126D01*
X488709Y68591D01*
X488308Y67095D01*
X487716Y65665D01*
X486941Y64324D01*
X485999Y63096D01*
X484904Y62001D01*
X483676Y61058D01*
X482335Y60284D01*
X480905Y59692D01*
X479409Y59291D01*
X477874Y59089D01*
X476326D01*
X474791Y59291D01*
X473295Y59692D01*
X471865Y60284D01*
X470524Y61058D01*
X469296Y62001D01*
X468201Y63096D01*
X467258Y64324D01*
X466484Y65665D01*
X465892Y67095D01*
X465491Y68591D01*
X465289Y70126D01*
Y70900D01*
Y71674D01*
X465491Y73209D01*
X465892Y74705D01*
X466484Y76135D01*
X467258Y77476D01*
X468201Y78704D01*
X469296Y79799D01*
X470524Y80742D01*
X471865Y81516D01*
X473295Y82108D01*
X474791Y82509D01*
X476326Y82711D01*
X477874D01*
X479409Y82509D01*
D02*
G37*
G36*
X428409D02*
X429905Y82108D01*
X431335Y81516D01*
X432676Y80742D01*
X433904Y79799D01*
X434999Y78704D01*
X435942Y77476D01*
X436716Y76135D01*
X437308Y74705D01*
X437709Y73209D01*
X437911Y71674D01*
Y70900D01*
Y70126D01*
X437709Y68591D01*
X437308Y67095D01*
X436716Y65665D01*
X435942Y64324D01*
X434999Y63096D01*
X433904Y62001D01*
X432676Y61058D01*
X431335Y60284D01*
X429905Y59692D01*
X428409Y59291D01*
X426874Y59089D01*
X425326D01*
X423791Y59291D01*
X422295Y59692D01*
X420865Y60284D01*
X419524Y61058D01*
X418296Y62001D01*
X417201Y63096D01*
X416258Y64324D01*
X415484Y65665D01*
X414892Y67095D01*
X414491Y68591D01*
X414289Y70126D01*
Y70900D01*
Y71674D01*
X414491Y73209D01*
X414892Y74705D01*
X415484Y76135D01*
X416258Y77476D01*
X417201Y78704D01*
X418296Y79799D01*
X419524Y80742D01*
X420865Y81516D01*
X422295Y82108D01*
X423791Y82509D01*
X425326Y82711D01*
X426874D01*
X428409Y82509D01*
D02*
G37*
G36*
X376809D02*
X378305Y82108D01*
X379735Y81516D01*
X381076Y80742D01*
X382304Y79799D01*
X383399Y78704D01*
X384342Y77476D01*
X385116Y76135D01*
X385708Y74705D01*
X386109Y73209D01*
X386311Y71674D01*
Y70900D01*
Y70126D01*
X386109Y68591D01*
X385708Y67095D01*
X385116Y65665D01*
X384342Y64324D01*
X383399Y63096D01*
X382304Y62001D01*
X381076Y61058D01*
X379735Y60284D01*
X378305Y59692D01*
X376809Y59291D01*
X375274Y59089D01*
X373726D01*
X372191Y59291D01*
X370695Y59692D01*
X369265Y60284D01*
X367924Y61058D01*
X366696Y62001D01*
X365601Y63096D01*
X364658Y64324D01*
X363884Y65665D01*
X363292Y67095D01*
X362891Y68591D01*
X362689Y70126D01*
Y70900D01*
Y71674D01*
X362891Y73209D01*
X363292Y74705D01*
X363884Y76135D01*
X364658Y77476D01*
X365601Y78704D01*
X366696Y79799D01*
X367924Y80742D01*
X369265Y81516D01*
X370695Y82108D01*
X372191Y82509D01*
X373726Y82711D01*
X375274D01*
X376809Y82509D01*
D02*
G37*
G36*
X325709D02*
X327205Y82108D01*
X328635Y81516D01*
X329976Y80742D01*
X331204Y79799D01*
X332299Y78704D01*
X333242Y77476D01*
X334016Y76135D01*
X334608Y74705D01*
X335009Y73209D01*
X335211Y71674D01*
Y70900D01*
Y70126D01*
X335009Y68591D01*
X334608Y67095D01*
X334016Y65665D01*
X333242Y64324D01*
X332299Y63096D01*
X331204Y62001D01*
X329976Y61058D01*
X328635Y60284D01*
X327205Y59692D01*
X325709Y59291D01*
X324174Y59089D01*
X322626D01*
X321091Y59291D01*
X319595Y59692D01*
X318165Y60284D01*
X316824Y61058D01*
X315596Y62001D01*
X314501Y63096D01*
X313558Y64324D01*
X312784Y65665D01*
X312192Y67095D01*
X311791Y68591D01*
X311589Y70126D01*
Y70900D01*
Y71674D01*
X311791Y73209D01*
X312192Y74705D01*
X312784Y76135D01*
X313558Y77476D01*
X314501Y78704D01*
X315596Y79799D01*
X316824Y80742D01*
X318165Y81516D01*
X319595Y82108D01*
X321091Y82509D01*
X322626Y82711D01*
X324174D01*
X325709Y82509D01*
D02*
G37*
G36*
X274509D02*
X276005Y82108D01*
X277435Y81516D01*
X278776Y80742D01*
X280004Y79799D01*
X281099Y78704D01*
X282042Y77476D01*
X282816Y76135D01*
X283408Y74705D01*
X283809Y73209D01*
X284011Y71674D01*
Y70900D01*
Y70126D01*
X283809Y68591D01*
X283408Y67095D01*
X282816Y65665D01*
X282042Y64324D01*
X281099Y63096D01*
X280004Y62001D01*
X278776Y61058D01*
X277435Y60284D01*
X276005Y59692D01*
X274509Y59291D01*
X272974Y59089D01*
X271426D01*
X269891Y59291D01*
X268395Y59692D01*
X266965Y60284D01*
X265624Y61058D01*
X264396Y62001D01*
X263301Y63096D01*
X262358Y64324D01*
X261584Y65665D01*
X260992Y67095D01*
X260591Y68591D01*
X260389Y70126D01*
Y70900D01*
Y71674D01*
X260591Y73209D01*
X260992Y74705D01*
X261584Y76135D01*
X262358Y77476D01*
X263301Y78704D01*
X264396Y79799D01*
X265624Y80742D01*
X266965Y81516D01*
X268395Y82108D01*
X269891Y82509D01*
X271426Y82711D01*
X272974D01*
X274509Y82509D01*
D02*
G37*
G36*
X208709D02*
X210205Y82108D01*
X211635Y81516D01*
X212976Y80742D01*
X214204Y79799D01*
X215299Y78704D01*
X216242Y77476D01*
X217016Y76135D01*
X217608Y74705D01*
X218009Y73209D01*
X218211Y71674D01*
Y70900D01*
Y70126D01*
X218009Y68591D01*
X217608Y67095D01*
X217016Y65665D01*
X216242Y64324D01*
X215299Y63096D01*
X214204Y62001D01*
X212976Y61058D01*
X211635Y60284D01*
X210205Y59692D01*
X208709Y59291D01*
X207174Y59089D01*
X205626D01*
X204091Y59291D01*
X202595Y59692D01*
X201165Y60284D01*
X199824Y61058D01*
X198596Y62001D01*
X197501Y63096D01*
X196558Y64324D01*
X195784Y65665D01*
X195192Y67095D01*
X194791Y68591D01*
X194589Y70126D01*
Y70900D01*
Y71674D01*
X194791Y73209D01*
X195192Y74705D01*
X195784Y76135D01*
X196558Y77476D01*
X197501Y78704D01*
X198596Y79799D01*
X199824Y80742D01*
X201165Y81516D01*
X202595Y82108D01*
X204091Y82509D01*
X205626Y82711D01*
X207174D01*
X208709Y82509D01*
D02*
G37*
G36*
X158809D02*
X160305Y82108D01*
X161735Y81516D01*
X163076Y80742D01*
X164304Y79799D01*
X165399Y78704D01*
X166341Y77476D01*
X167116Y76135D01*
X167708Y74705D01*
X168109Y73209D01*
X168311Y71674D01*
Y70900D01*
Y70126D01*
X168109Y68591D01*
X167708Y67095D01*
X167116Y65665D01*
X166341Y64324D01*
X165399Y63096D01*
X164304Y62001D01*
X163076Y61058D01*
X161735Y60284D01*
X160305Y59692D01*
X158809Y59291D01*
X157274Y59089D01*
X155726D01*
X154191Y59291D01*
X152695Y59692D01*
X151265Y60284D01*
X149924Y61058D01*
X148696Y62001D01*
X147601Y63096D01*
X146658Y64324D01*
X145884Y65665D01*
X145292Y67095D01*
X144891Y68591D01*
X144689Y70126D01*
Y70900D01*
Y71674D01*
X144891Y73209D01*
X145292Y74705D01*
X145884Y76135D01*
X146658Y77476D01*
X147601Y78704D01*
X148696Y79799D01*
X149924Y80742D01*
X151265Y81516D01*
X152695Y82108D01*
X154191Y82509D01*
X155726Y82711D01*
X157274D01*
X158809Y82509D01*
D02*
G37*
G36*
X109909D02*
X111405Y82108D01*
X112835Y81516D01*
X114176Y80742D01*
X115404Y79799D01*
X116499Y78704D01*
X117441Y77476D01*
X118216Y76135D01*
X118808Y74705D01*
X119209Y73209D01*
X119411Y71674D01*
Y70900D01*
Y70126D01*
X119209Y68591D01*
X118808Y67095D01*
X118216Y65665D01*
X117441Y64324D01*
X116499Y63096D01*
X115404Y62001D01*
X114176Y61058D01*
X112835Y60284D01*
X111405Y59692D01*
X109909Y59291D01*
X108374Y59089D01*
X106826D01*
X105291Y59291D01*
X103795Y59692D01*
X102365Y60284D01*
X101024Y61058D01*
X99796Y62001D01*
X98701Y63096D01*
X97758Y64324D01*
X96984Y65665D01*
X96392Y67095D01*
X95991Y68591D01*
X95789Y70126D01*
Y70900D01*
Y71674D01*
X95991Y73209D01*
X96392Y74705D01*
X96984Y76135D01*
X97758Y77476D01*
X98701Y78704D01*
X99796Y79799D01*
X101024Y80742D01*
X102365Y81516D01*
X103795Y82108D01*
X105291Y82509D01*
X106826Y82711D01*
X108374D01*
X109909Y82509D01*
D02*
G37*
G36*
X60609D02*
X62105Y82108D01*
X63535Y81516D01*
X64876Y80742D01*
X66104Y79799D01*
X67199Y78704D01*
X68142Y77476D01*
X68916Y76135D01*
X69508Y74705D01*
X69909Y73209D01*
X70111Y71674D01*
Y70900D01*
Y70126D01*
X69909Y68591D01*
X69508Y67095D01*
X68916Y65665D01*
X68142Y64324D01*
X67199Y63096D01*
X66104Y62001D01*
X64876Y61058D01*
X63535Y60284D01*
X62105Y59692D01*
X60609Y59291D01*
X59074Y59089D01*
X57526D01*
X55991Y59291D01*
X54495Y59692D01*
X53065Y60284D01*
X51724Y61058D01*
X50496Y62001D01*
X49401Y63096D01*
X48458Y64324D01*
X47684Y65665D01*
X47092Y67095D01*
X46691Y68591D01*
X46489Y70126D01*
Y70900D01*
Y71674D01*
X46691Y73209D01*
X47092Y74705D01*
X47684Y76135D01*
X48458Y77476D01*
X49401Y78704D01*
X50496Y79799D01*
X51724Y80742D01*
X53065Y81516D01*
X54495Y82108D01*
X55991Y82509D01*
X57526Y82711D01*
X59074D01*
X60609Y82509D01*
D02*
G37*
G36*
X682609Y39409D02*
X684105Y39008D01*
X685535Y38416D01*
X686876Y37642D01*
X688104Y36699D01*
X689199Y35604D01*
X690141Y34376D01*
X690916Y33035D01*
X691508Y31605D01*
X691909Y30109D01*
X692111Y28574D01*
Y27800D01*
Y27026D01*
X691909Y25491D01*
X691508Y23995D01*
X690916Y22565D01*
X690141Y21224D01*
X689199Y19996D01*
X688104Y18901D01*
X686876Y17958D01*
X685535Y17184D01*
X684105Y16592D01*
X682609Y16191D01*
X681074Y15989D01*
X679526D01*
X677991Y16191D01*
X676495Y16592D01*
X675065Y17184D01*
X673724Y17958D01*
X672496Y18901D01*
X671401Y19996D01*
X670458Y21224D01*
X669684Y22565D01*
X669092Y23995D01*
X668691Y25491D01*
X668489Y27026D01*
Y27800D01*
Y28574D01*
X668691Y30109D01*
X669092Y31605D01*
X669684Y33035D01*
X670458Y34376D01*
X671401Y35604D01*
X672496Y36699D01*
X673724Y37642D01*
X675065Y38416D01*
X676495Y39008D01*
X677991Y39409D01*
X679526Y39611D01*
X681074D01*
X682609Y39409D01*
D02*
G37*
G36*
X631309D02*
X632805Y39008D01*
X634235Y38416D01*
X635576Y37642D01*
X636804Y36699D01*
X637899Y35604D01*
X638841Y34376D01*
X639616Y33035D01*
X640208Y31605D01*
X640609Y30109D01*
X640811Y28574D01*
Y27800D01*
Y27026D01*
X640609Y25491D01*
X640208Y23995D01*
X639616Y22565D01*
X638841Y21224D01*
X637899Y19996D01*
X636804Y18901D01*
X635576Y17958D01*
X634235Y17184D01*
X632805Y16592D01*
X631309Y16191D01*
X629774Y15989D01*
X628226D01*
X626691Y16191D01*
X625195Y16592D01*
X623765Y17184D01*
X622424Y17958D01*
X621196Y18901D01*
X620101Y19996D01*
X619158Y21224D01*
X618384Y22565D01*
X617792Y23995D01*
X617391Y25491D01*
X617189Y27026D01*
Y27800D01*
Y28574D01*
X617391Y30109D01*
X617792Y31605D01*
X618384Y33035D01*
X619158Y34376D01*
X620101Y35604D01*
X621196Y36699D01*
X622424Y37642D01*
X623765Y38416D01*
X625195Y39008D01*
X626691Y39409D01*
X628226Y39611D01*
X629774D01*
X631309Y39409D01*
D02*
G37*
G36*
X583009D02*
X584505Y39008D01*
X585935Y38416D01*
X587276Y37642D01*
X588504Y36699D01*
X589599Y35604D01*
X590542Y34376D01*
X591316Y33035D01*
X591908Y31605D01*
X592309Y30109D01*
X592511Y28574D01*
Y27800D01*
Y27026D01*
X592309Y25491D01*
X591908Y23995D01*
X591316Y22565D01*
X590542Y21224D01*
X589599Y19996D01*
X588504Y18901D01*
X587276Y17958D01*
X585935Y17184D01*
X584505Y16592D01*
X583009Y16191D01*
X581474Y15989D01*
X579926D01*
X578391Y16191D01*
X576895Y16592D01*
X575465Y17184D01*
X574124Y17958D01*
X572896Y18901D01*
X571801Y19996D01*
X570858Y21224D01*
X570084Y22565D01*
X569492Y23995D01*
X569091Y25491D01*
X568889Y27026D01*
Y27800D01*
Y28574D01*
X569091Y30109D01*
X569492Y31605D01*
X570084Y33035D01*
X570858Y34376D01*
X571801Y35604D01*
X572896Y36699D01*
X574124Y37642D01*
X575465Y38416D01*
X576895Y39008D01*
X578391Y39409D01*
X579926Y39611D01*
X581474D01*
X583009Y39409D01*
D02*
G37*
G36*
X518509D02*
X520005Y39008D01*
X521435Y38416D01*
X522776Y37642D01*
X524004Y36699D01*
X525099Y35604D01*
X526042Y34376D01*
X526816Y33035D01*
X527408Y31605D01*
X527809Y30109D01*
X528011Y28574D01*
Y27800D01*
Y27026D01*
X527809Y25491D01*
X527408Y23995D01*
X526816Y22565D01*
X526042Y21224D01*
X525099Y19996D01*
X524004Y18901D01*
X522776Y17958D01*
X521435Y17184D01*
X520005Y16592D01*
X518509Y16191D01*
X516974Y15989D01*
X515426D01*
X513891Y16191D01*
X512395Y16592D01*
X510965Y17184D01*
X509624Y17958D01*
X508396Y18901D01*
X507301Y19996D01*
X506358Y21224D01*
X505584Y22565D01*
X504992Y23995D01*
X504591Y25491D01*
X504389Y27026D01*
Y27800D01*
Y28574D01*
X504591Y30109D01*
X504992Y31605D01*
X505584Y33035D01*
X506358Y34376D01*
X507301Y35604D01*
X508396Y36699D01*
X509624Y37642D01*
X510965Y38416D01*
X512395Y39008D01*
X513891Y39409D01*
X515426Y39611D01*
X516974D01*
X518509Y39409D01*
D02*
G37*
G36*
X440309D02*
X441805Y39008D01*
X443235Y38416D01*
X444576Y37642D01*
X445804Y36699D01*
X446899Y35604D01*
X447842Y34376D01*
X448616Y33035D01*
X449208Y31605D01*
X449609Y30109D01*
X449811Y28574D01*
Y27800D01*
Y27026D01*
X449609Y25491D01*
X449208Y23995D01*
X448616Y22565D01*
X447842Y21224D01*
X446899Y19996D01*
X445804Y18901D01*
X444576Y17958D01*
X443235Y17184D01*
X441805Y16592D01*
X440309Y16191D01*
X438774Y15989D01*
X437226D01*
X435691Y16191D01*
X434195Y16592D01*
X432765Y17184D01*
X431424Y17958D01*
X430196Y18901D01*
X429101Y19996D01*
X428158Y21224D01*
X427384Y22565D01*
X426792Y23995D01*
X426391Y25491D01*
X426189Y27026D01*
Y27800D01*
Y28574D01*
X426391Y30109D01*
X426792Y31605D01*
X427384Y33035D01*
X428158Y34376D01*
X429101Y35604D01*
X430196Y36699D01*
X431424Y37642D01*
X432765Y38416D01*
X434195Y39008D01*
X435691Y39409D01*
X437226Y39611D01*
X438774D01*
X440309Y39409D01*
D02*
G37*
G36*
X376809D02*
X378305Y39008D01*
X379735Y38416D01*
X381076Y37642D01*
X382304Y36699D01*
X383399Y35604D01*
X384342Y34376D01*
X385116Y33035D01*
X385708Y31605D01*
X386109Y30109D01*
X386311Y28574D01*
Y27800D01*
Y27026D01*
X386109Y25491D01*
X385708Y23995D01*
X385116Y22565D01*
X384342Y21224D01*
X383399Y19996D01*
X382304Y18901D01*
X381076Y17958D01*
X379735Y17184D01*
X378305Y16592D01*
X376809Y16191D01*
X375274Y15989D01*
X373726D01*
X372191Y16191D01*
X370695Y16592D01*
X369265Y17184D01*
X367924Y17958D01*
X366696Y18901D01*
X365601Y19996D01*
X364658Y21224D01*
X363884Y22565D01*
X363292Y23995D01*
X362891Y25491D01*
X362689Y27026D01*
Y27800D01*
Y28574D01*
X362891Y30109D01*
X363292Y31605D01*
X363884Y33035D01*
X364658Y34376D01*
X365601Y35604D01*
X366696Y36699D01*
X367924Y37642D01*
X369265Y38416D01*
X370695Y39008D01*
X372191Y39409D01*
X373726Y39611D01*
X375274D01*
X376809Y39409D01*
D02*
G37*
G36*
X325709D02*
X327205Y39008D01*
X328635Y38416D01*
X329976Y37642D01*
X331204Y36699D01*
X332299Y35604D01*
X333242Y34376D01*
X334016Y33035D01*
X334608Y31605D01*
X335009Y30109D01*
X335211Y28574D01*
Y27800D01*
Y27026D01*
X335009Y25491D01*
X334608Y23995D01*
X334016Y22565D01*
X333242Y21224D01*
X332299Y19996D01*
X331204Y18901D01*
X329976Y17958D01*
X328635Y17184D01*
X327205Y16592D01*
X325709Y16191D01*
X324174Y15989D01*
X322626D01*
X321091Y16191D01*
X319595Y16592D01*
X318165Y17184D01*
X316824Y17958D01*
X315596Y18901D01*
X314501Y19996D01*
X313558Y21224D01*
X312784Y22565D01*
X312192Y23995D01*
X311791Y25491D01*
X311589Y27026D01*
Y27800D01*
Y28574D01*
X311791Y30109D01*
X312192Y31605D01*
X312784Y33035D01*
X313558Y34376D01*
X314501Y35604D01*
X315596Y36699D01*
X316824Y37642D01*
X318165Y38416D01*
X319595Y39008D01*
X321091Y39409D01*
X322626Y39611D01*
X324174D01*
X325709Y39409D01*
D02*
G37*
G36*
X274509D02*
X276005Y39008D01*
X277435Y38416D01*
X278776Y37642D01*
X280004Y36699D01*
X281099Y35604D01*
X282042Y34376D01*
X282816Y33035D01*
X283408Y31605D01*
X283809Y30109D01*
X284011Y28574D01*
Y27800D01*
Y27026D01*
X283809Y25491D01*
X283408Y23995D01*
X282816Y22565D01*
X282042Y21224D01*
X281099Y19996D01*
X280004Y18901D01*
X278776Y17958D01*
X277435Y17184D01*
X276005Y16592D01*
X274509Y16191D01*
X272974Y15989D01*
X271426D01*
X269891Y16191D01*
X268395Y16592D01*
X266965Y17184D01*
X265624Y17958D01*
X264396Y18901D01*
X263301Y19996D01*
X262358Y21224D01*
X261584Y22565D01*
X260992Y23995D01*
X260591Y25491D01*
X260389Y27026D01*
Y27800D01*
Y28574D01*
X260591Y30109D01*
X260992Y31605D01*
X261584Y33035D01*
X262358Y34376D01*
X263301Y35604D01*
X264396Y36699D01*
X265624Y37642D01*
X266965Y38416D01*
X268395Y39008D01*
X269891Y39409D01*
X271426Y39611D01*
X272974D01*
X274509Y39409D01*
D02*
G37*
G36*
X208709D02*
X210205Y39008D01*
X211635Y38416D01*
X212976Y37642D01*
X214204Y36699D01*
X215299Y35604D01*
X216242Y34376D01*
X217016Y33035D01*
X217608Y31605D01*
X218009Y30109D01*
X218211Y28574D01*
Y27800D01*
Y27026D01*
X218009Y25491D01*
X217608Y23995D01*
X217016Y22565D01*
X216242Y21224D01*
X215299Y19996D01*
X214204Y18901D01*
X212976Y17958D01*
X211635Y17184D01*
X210205Y16592D01*
X208709Y16191D01*
X207174Y15989D01*
X205626D01*
X204091Y16191D01*
X202595Y16592D01*
X201165Y17184D01*
X199824Y17958D01*
X198596Y18901D01*
X197501Y19996D01*
X196558Y21224D01*
X195784Y22565D01*
X195192Y23995D01*
X194791Y25491D01*
X194589Y27026D01*
Y27800D01*
Y28574D01*
X194791Y30109D01*
X195192Y31605D01*
X195784Y33035D01*
X196558Y34376D01*
X197501Y35604D01*
X198596Y36699D01*
X199824Y37642D01*
X201165Y38416D01*
X202595Y39008D01*
X204091Y39409D01*
X205626Y39611D01*
X207174D01*
X208709Y39409D01*
D02*
G37*
G36*
X157669D02*
X159164Y39008D01*
X160595Y38416D01*
X161935Y37642D01*
X163164Y36699D01*
X164259Y35604D01*
X165201Y34376D01*
X165975Y33035D01*
X166568Y31605D01*
X166969Y30109D01*
X167171Y28574D01*
Y27800D01*
Y27026D01*
X166969Y25491D01*
X166568Y23995D01*
X165975Y22565D01*
X165201Y21224D01*
X164259Y19996D01*
X163164Y18901D01*
X161935Y17958D01*
X160595Y17184D01*
X159164Y16592D01*
X157669Y16191D01*
X156134Y15989D01*
X154586D01*
X153050Y16191D01*
X151555Y16592D01*
X150125Y17184D01*
X148784Y17958D01*
X147555Y18901D01*
X146461Y19996D01*
X145518Y21224D01*
X144744Y22565D01*
X144151Y23995D01*
X143751Y25491D01*
X143549Y27026D01*
Y27800D01*
Y28574D01*
X143751Y30109D01*
X144151Y31605D01*
X144744Y33035D01*
X145518Y34376D01*
X146461Y35604D01*
X147555Y36699D01*
X148784Y37642D01*
X150125Y38416D01*
X151555Y39008D01*
X153050Y39409D01*
X154586Y39611D01*
X156134D01*
X157669Y39409D01*
D02*
G37*
G36*
X109909D02*
X111405Y39008D01*
X112835Y38416D01*
X114176Y37642D01*
X115404Y36699D01*
X116499Y35604D01*
X117441Y34376D01*
X118216Y33035D01*
X118808Y31605D01*
X119209Y30109D01*
X119411Y28574D01*
Y27800D01*
Y27026D01*
X119209Y25491D01*
X118808Y23995D01*
X118216Y22565D01*
X117441Y21224D01*
X116499Y19996D01*
X115404Y18901D01*
X114176Y17958D01*
X112835Y17184D01*
X111405Y16592D01*
X109909Y16191D01*
X108374Y15989D01*
X106826D01*
X105291Y16191D01*
X103795Y16592D01*
X102365Y17184D01*
X101024Y17958D01*
X99796Y18901D01*
X98701Y19996D01*
X97758Y21224D01*
X96984Y22565D01*
X96392Y23995D01*
X95991Y25491D01*
X95789Y27026D01*
Y27800D01*
Y28574D01*
X95991Y30109D01*
X96392Y31605D01*
X96984Y33035D01*
X97758Y34376D01*
X98701Y35604D01*
X99796Y36699D01*
X101024Y37642D01*
X102365Y38416D01*
X103795Y39008D01*
X105291Y39409D01*
X106826Y39611D01*
X108374D01*
X109909Y39409D01*
D02*
G37*
G36*
X60609D02*
X62105Y39008D01*
X63535Y38416D01*
X64876Y37642D01*
X66104Y36699D01*
X67199Y35604D01*
X68142Y34376D01*
X68916Y33035D01*
X69508Y31605D01*
X69909Y30109D01*
X70111Y28574D01*
Y27800D01*
Y27026D01*
X69909Y25491D01*
X69508Y23995D01*
X68916Y22565D01*
X68142Y21224D01*
X67199Y19996D01*
X66104Y18901D01*
X64876Y17958D01*
X63535Y17184D01*
X62105Y16592D01*
X60609Y16191D01*
X59074Y15989D01*
X57526D01*
X55991Y16191D01*
X54495Y16592D01*
X53065Y17184D01*
X51724Y17958D01*
X50496Y18901D01*
X49401Y19996D01*
X48458Y21224D01*
X47684Y22565D01*
X47092Y23995D01*
X46691Y25491D01*
X46489Y27026D01*
Y27800D01*
Y28574D01*
X46691Y30109D01*
X47092Y31605D01*
X47684Y33035D01*
X48458Y34376D01*
X49401Y35604D01*
X50496Y36699D01*
X51724Y37642D01*
X53065Y38416D01*
X54495Y39008D01*
X55991Y39409D01*
X57526Y39611D01*
X59074D01*
X60609Y39409D01*
D02*
G37*
G36*
X734109Y39409D02*
X735605Y39008D01*
X737035Y38416D01*
X738376Y37642D01*
X739604Y36699D01*
X740699Y35604D01*
X741642Y34376D01*
X742416Y33035D01*
X743008Y31605D01*
X743409Y30109D01*
X743611Y28574D01*
Y27800D01*
Y27026D01*
X743409Y25491D01*
X743008Y23995D01*
X742416Y22565D01*
X741642Y21224D01*
X740699Y19996D01*
X739604Y18901D01*
X738376Y17958D01*
X737035Y17184D01*
X735605Y16592D01*
X734109Y16191D01*
X732574Y15989D01*
X731026D01*
X729491Y16191D01*
X727995Y16592D01*
X726565Y17184D01*
X725224Y17958D01*
X723996Y18901D01*
X722901Y19996D01*
X721958Y21224D01*
X721184Y22565D01*
X720592Y23995D01*
X720191Y25491D01*
X719989Y27026D01*
Y27800D01*
Y28574D01*
X720191Y30109D01*
X720592Y31605D01*
X721184Y33035D01*
X721958Y34376D01*
X722901Y35604D01*
X723996Y36699D01*
X725224Y37642D01*
X726565Y38416D01*
X727995Y39008D01*
X729491Y39409D01*
X731026Y39611D01*
X732574D01*
X734109Y39409D01*
D02*
G37*
D12*
X162511Y390700D02*
G03*
X162511Y390700I-11811J0D01*
G01*
X168311Y149700D02*
G03*
X168311Y149700I-11811J0D01*
G01*
X119411Y70900D02*
G03*
X119411Y70900I-11811J0D01*
G01*
X218211Y267200D02*
G03*
X218211Y267200I-11811J0D01*
G01*
X70111Y70900D02*
G03*
X70111Y70900I-11811J0D01*
G01*
X168311Y306700D02*
G03*
X168311Y306700I-11811J0D01*
G01*
X70111Y188900D02*
G03*
X70111Y188900I-11811J0D01*
G01*
X119411Y110300D02*
G03*
X119411Y110300I-11811J0D01*
G01*
X70111Y228600D02*
G03*
X70111Y228600I-11811J0D01*
G01*
X168311D02*
G03*
X168311Y228600I-11811J0D01*
G01*
X218211Y390700D02*
G03*
X218211Y390700I-11811J0D01*
G01*
X119411Y27800D02*
G03*
X119411Y27800I-11811J0D01*
G01*
Y228600D02*
G03*
X119411Y228600I-11811J0D01*
G01*
X70111Y267200D02*
G03*
X70111Y267200I-11811J0D01*
G01*
X168311Y110300D02*
G03*
X168311Y110300I-11811J0D01*
G01*
X218211Y306700D02*
G03*
X218211Y306700I-11811J0D01*
G01*
X168311Y188900D02*
G03*
X168311Y188900I-11811J0D01*
G01*
X70111Y149700D02*
G03*
X70111Y149700I-11811J0D01*
G01*
X119411D02*
G03*
X119411Y149700I-11811J0D01*
G01*
X174011Y348900D02*
G03*
X174011Y348900I-11811J0D01*
G01*
X167171Y27800D02*
G03*
X167171Y27800I-11811J0D01*
G01*
X70111D02*
G03*
X70111Y27800I-11811J0D01*
G01*
Y110300D02*
G03*
X70111Y110300I-11811J0D01*
G01*
X218211Y348900D02*
G03*
X218211Y348900I-11811J0D01*
G01*
X168311Y70900D02*
G03*
X168311Y70900I-11811J0D01*
G01*
X119411Y188900D02*
G03*
X119411Y188900I-11811J0D01*
G01*
X168311Y267200D02*
G03*
X168311Y267200I-11811J0D01*
G01*
X119411D02*
G03*
X119411Y267200I-11811J0D01*
G01*
X449811Y27800D02*
G03*
X449811Y27800I-11811J0D01*
G01*
X743611Y27800D02*
G03*
X743611Y27800I-11811J0D01*
G01*
X284011Y27800D02*
G03*
X284011Y27800I-11811J0D01*
G01*
X335211D02*
G03*
X335211Y27800I-11811J0D01*
G01*
X528011D02*
G03*
X528011Y27800I-11811J0D01*
G01*
X462911Y110300D02*
G03*
X462911Y110300I-11811J0D01*
G01*
X218211D02*
G03*
X218211Y110300I-11811J0D01*
G01*
Y149700D02*
G03*
X218211Y149700I-11811J0D01*
G01*
X335211D02*
G03*
X335211Y149700I-11811J0D01*
G01*
X386311D02*
G03*
X386311Y149700I-11811J0D01*
G01*
X488911Y70900D02*
G03*
X488911Y70900I-11811J0D01*
G01*
X218211D02*
G03*
X218211Y70900I-11811J0D01*
G01*
Y227846D02*
G03*
X218211Y227846I-11811J0D01*
G01*
X284011Y149700D02*
G03*
X284011Y149700I-11811J0D01*
G01*
X488911D02*
G03*
X488911Y149700I-11811J0D01*
G01*
X309311Y110300D02*
G03*
X309311Y110300I-11811J0D01*
G01*
X284011Y70900D02*
G03*
X284011Y70900I-11811J0D01*
G01*
X386311Y27800D02*
G03*
X386311Y27800I-11811J0D01*
G01*
Y70900D02*
G03*
X386311Y70900I-11811J0D01*
G01*
X361611Y110300D02*
G03*
X361611Y110300I-11811J0D01*
G01*
X335211Y70900D02*
G03*
X335211Y70900I-11811J0D01*
G01*
X218211Y188900D02*
G03*
X218211Y188900I-11811J0D01*
G01*
Y27800D02*
G03*
X218211Y27800I-11811J0D01*
G01*
X437911Y149700D02*
G03*
X437911Y149700I-11811J0D01*
G01*
Y70900D02*
G03*
X437911Y70900I-11811J0D01*
G01*
X412711Y110300D02*
G03*
X412711Y110300I-11811J0D01*
G01*
X692111Y336300D02*
G03*
X692111Y336300I-11811J0D01*
G01*
X592511Y27800D02*
G03*
X592511Y27800I-11811J0D01*
G01*
Y149700D02*
G03*
X592511Y149700I-11811J0D01*
G01*
X667011Y110300D02*
G03*
X667011Y110300I-11811J0D01*
G01*
X692111Y254500D02*
G03*
X692111Y254500I-11811J0D01*
G01*
Y213000D02*
G03*
X692111Y213000I-11811J0D01*
G01*
X592511Y70900D02*
G03*
X592511Y70900I-11811J0D01*
G01*
X692111Y27800D02*
G03*
X692111Y27800I-11811J0D01*
G01*
X743611Y70900D02*
G03*
X743611Y70900I-11811J0D01*
G01*
X693029D02*
G03*
X693029Y70900I-11811J0D01*
G01*
X743611Y294500D02*
G03*
X743611Y294500I-11811J0D01*
G01*
X640811Y27800D02*
G03*
X640811Y27800I-11811J0D01*
G01*
X566611Y110300D02*
G03*
X566611Y110300I-11811J0D01*
G01*
X692111Y385100D02*
G03*
X692111Y385100I-11811J0D01*
G01*
X540011Y70900D02*
G03*
X540011Y70900I-11811J0D01*
G01*
X743611Y254500D02*
G03*
X743611Y254500I-11811J0D01*
G01*
X540011Y149700D02*
G03*
X540011Y149700I-11811J0D01*
G01*
X640811D02*
G03*
X640811Y149700I-11811J0D01*
G01*
X717811Y110300D02*
G03*
X717811Y110300I-11811J0D01*
G01*
X743611Y213000D02*
G03*
X743611Y213000I-11811J0D01*
G01*
X692111Y294500D02*
G03*
X692111Y294500I-11811J0D01*
G01*
X691811Y150000D02*
G03*
X691811Y150000I-11811J0D01*
G01*
X617411Y110300D02*
G03*
X617411Y110300I-11811J0D01*
G01*
X743611Y336300D02*
G03*
X743611Y336300I-11811J0D01*
G01*
Y149700D02*
G03*
X743611Y149700I-11811J0D01*
G01*
X640811Y70900D02*
G03*
X640811Y70900I-11811J0D01*
G01*
X515211Y110300D02*
G03*
X515211Y110300I-11811J0D01*
G01*
D64*
X224000Y287000D02*
D03*
X637178Y302500D02*
D03*
X15748Y105421D02*
D03*
Y161417D02*
D03*
D68*
X197500Y427520D02*
D03*
X97500D02*
D03*
D74*
X799433Y9685D02*
D03*
X475232Y300500D02*
D03*
D75*
X667692Y433150D02*
D03*
X701708D02*
D03*
X667692Y418189D02*
D03*
X701708D02*
D03*
D76*
X586496Y393740D02*
D03*
D77*
X605000D02*
D03*
X623504D02*
D03*
X578996Y431260D02*
D03*
X631004D02*
D03*
D78*
X654700Y422100D02*
D03*
X43100Y295900D02*
D03*
X80500Y419000D02*
D03*
X224400Y420000D02*
D03*
X656000Y194550D02*
D03*
X181500Y130000D02*
D03*
X181600Y248400D02*
D03*
X706600Y51600D02*
D03*
X655100Y51700D02*
D03*
D79*
X475531Y344700D02*
D03*
X705700Y399900D02*
D03*
X80800Y50300D02*
D03*
D80*
X535873Y406613D02*
D03*
X307527D02*
D03*
X535873Y213700D02*
D03*
X307527D02*
D03*
D81*
X128571Y204331D02*
D03*
Y208661D02*
D03*
Y212992D02*
D03*
X132902Y204331D02*
D03*
Y208661D02*
D03*
Y212992D02*
D03*
X137232Y204331D02*
D03*
Y208661D02*
D03*
Y212992D02*
D03*
X289676Y368617D02*
D03*
X299769Y368683D02*
D03*
X232407Y345093D02*
D03*
X82500Y327000D02*
D03*
X231907Y319593D02*
D03*
X235407Y230093D02*
D03*
X245407Y375593D02*
D03*
D108*
X44394Y344100D02*
X56205D01*
X85000Y302795D02*
Y314605D01*
X113394Y344100D02*
X125206D01*
X85000Y373394D02*
Y385206D01*
D109*
X50300Y346069D02*
D03*
Y342131D02*
D03*
X119300D02*
D03*
Y346069D02*
D03*
D110*
X150700Y379873D02*
D03*
Y401527D02*
D03*
X156500Y160527D02*
D03*
Y138873D02*
D03*
X107600Y81727D02*
D03*
Y60073D02*
D03*
X206400Y256373D02*
D03*
Y278027D02*
D03*
X58300Y81727D02*
D03*
Y60073D02*
D03*
X156500Y317527D02*
D03*
Y295873D02*
D03*
X58300Y199727D02*
D03*
Y178073D02*
D03*
X107600Y121127D02*
D03*
Y99473D02*
D03*
X58300Y239427D02*
D03*
Y217773D02*
D03*
X156500Y239427D02*
D03*
Y217773D02*
D03*
X206400Y401527D02*
D03*
Y379873D02*
D03*
X107600Y38627D02*
D03*
Y16973D02*
D03*
Y239427D02*
D03*
Y217773D02*
D03*
X58300Y278027D02*
D03*
Y256373D02*
D03*
X156500Y121127D02*
D03*
Y99473D02*
D03*
X206400Y295873D02*
D03*
Y317527D02*
D03*
X156500Y199727D02*
D03*
Y178073D02*
D03*
X58300Y160527D02*
D03*
Y138873D02*
D03*
X107600Y160527D02*
D03*
Y138873D02*
D03*
X162200Y359727D02*
D03*
Y338073D02*
D03*
X155360Y38627D02*
D03*
Y16973D02*
D03*
X58300Y38627D02*
D03*
Y16973D02*
D03*
Y121127D02*
D03*
Y99473D02*
D03*
X206400Y359727D02*
D03*
Y338073D02*
D03*
X156500Y81727D02*
D03*
Y60073D02*
D03*
X107600Y199727D02*
D03*
Y178073D02*
D03*
X156500Y278027D02*
D03*
Y256373D02*
D03*
X107600Y278027D02*
D03*
Y256373D02*
D03*
X438000Y38627D02*
D03*
Y16973D02*
D03*
X731800Y38627D02*
D03*
Y16973D02*
D03*
X272200Y38627D02*
D03*
Y16973D02*
D03*
X323400Y38627D02*
D03*
Y16973D02*
D03*
X516200Y38627D02*
D03*
Y16973D02*
D03*
X451100Y121127D02*
D03*
Y99473D02*
D03*
X206400Y121127D02*
D03*
Y99473D02*
D03*
Y160527D02*
D03*
Y138873D02*
D03*
X323400Y160527D02*
D03*
Y138873D02*
D03*
X374500Y160527D02*
D03*
Y138873D02*
D03*
X477100Y81727D02*
D03*
Y60073D02*
D03*
X206400Y81727D02*
D03*
Y60073D02*
D03*
Y217019D02*
D03*
Y238672D02*
D03*
X272200Y160527D02*
D03*
Y138873D02*
D03*
X477100Y160527D02*
D03*
Y138873D02*
D03*
X297500Y121127D02*
D03*
Y99473D02*
D03*
X272200Y81727D02*
D03*
Y60073D02*
D03*
X374500Y38627D02*
D03*
Y16973D02*
D03*
Y81727D02*
D03*
Y60073D02*
D03*
X349800Y121127D02*
D03*
Y99473D02*
D03*
X323400Y81727D02*
D03*
Y60073D02*
D03*
X206400Y199727D02*
D03*
Y178073D02*
D03*
Y38627D02*
D03*
Y16973D02*
D03*
X426100Y160527D02*
D03*
Y138873D02*
D03*
Y81727D02*
D03*
Y60073D02*
D03*
X400900Y121127D02*
D03*
Y99473D02*
D03*
X680300Y347127D02*
D03*
Y325473D02*
D03*
X580700Y38627D02*
D03*
Y16973D02*
D03*
Y160527D02*
D03*
Y138873D02*
D03*
X655200Y121127D02*
D03*
Y99473D02*
D03*
X680300Y265327D02*
D03*
Y243673D02*
D03*
Y202173D02*
D03*
Y223827D02*
D03*
X580700Y81727D02*
D03*
Y60073D02*
D03*
X680300Y38627D02*
D03*
Y16973D02*
D03*
X731800Y81727D02*
D03*
Y60073D02*
D03*
X681218Y81727D02*
D03*
Y60073D02*
D03*
X731800Y305327D02*
D03*
Y283673D02*
D03*
X629000Y38627D02*
D03*
Y16973D02*
D03*
X554800Y121127D02*
D03*
Y99473D02*
D03*
X680300Y395927D02*
D03*
Y374273D02*
D03*
X528200Y81727D02*
D03*
Y60073D02*
D03*
X731800Y265327D02*
D03*
Y243673D02*
D03*
X528200Y160527D02*
D03*
Y138873D02*
D03*
X629000Y160527D02*
D03*
Y138873D02*
D03*
X706000Y121127D02*
D03*
Y99473D02*
D03*
X731800Y223827D02*
D03*
Y202173D02*
D03*
X680300Y305327D02*
D03*
Y283673D02*
D03*
X680000Y160827D02*
D03*
Y139173D02*
D03*
X605600Y121127D02*
D03*
Y99473D02*
D03*
X731800Y347127D02*
D03*
Y325473D02*
D03*
Y160527D02*
D03*
Y138873D02*
D03*
X629000Y60073D02*
D03*
Y81727D02*
D03*
X503400Y121127D02*
D03*
Y99473D02*
D03*
D111*
X86968Y308700D02*
D03*
X83031D02*
D03*
Y379300D02*
D03*
X86968D02*
D03*
M02*
