M48
;Layer_Color=9474304
;FILE_FORMAT=2:5
INCH,LZ
;TYPE=PLATED
T1F00S00C0.01200
T3F00S00C0.03937
T4F00S00C0.06614
T5F00S00C0.07283
;TYPE=NON_PLATED
T6F00S00C0.05906
T7F00S00C0.09449
T8F00S00C0.10630
T9F00S00C0.12205
%
T01
X0015933Y0015185
Y0035185
Y0055185
Y0075185
X007Y008045
Y011985
Y015925
X01193
Y011985
Y008045
X01682
X0175933Y0075185
Y0095185
Y0115185
X0167917Y011985
X0155933Y0095185
Y0055185
X0175933
Y0035185
Y0155185
X01682Y015925
X02181
X0217817Y011985
X02181Y008045
X0255933Y0075185
Y0095185
Y0115185
Y0135185
X0275933
X02839Y015925
X0255933Y0155185
X03351Y015925
X0308917Y011985
X02839Y008045
X03351
X03862
X04378
X04888
X04628Y011985
X0412317
X0361217
X03862Y015925
X04378
X04888
X0514817Y011985
X0566217
X0617017
X0666617
X06407Y015925
X05924
X05399
Y008045
X05924
X06407
X0692918
X0695933Y0095185
X0715933
X0735933
X0755933
X0775933
Y0115185
Y0135185
Y0155185
X0755933
X07435Y015925
X0735933Y0135185
X0755933
Y0115185
X0735933
X07177Y011985
X0715933Y0135185
Y0155185
X06917Y015955
X0715933Y0075185
X07435Y008045
X0755933Y0075185
X0775933
Y0035185
Y0015185
X0755933Y0035185
Y0055185
X0735933
Y0175185
X0755933
X0775933
Y0195185
X0755933
X07435Y022255
X0735933Y0235185
X0715933
Y0255185
Y0275185
X0735933
X07435Y026405
Y030405
X0715933Y0295185
X0692Y030405
Y026405
Y022255
X0715933Y0215185
X0775933Y0235185
Y0255185
Y0275185
Y0295185
Y0315185
X0635933
Y0295185
Y0275185
Y0255185
Y0235185
Y0215185
X0615933
Y0235185
Y0255185
Y0275185
Y0295185
Y0315185
X0595933
Y0295185
Y0275185
Y0255185
Y0235185
Y0215185
Y0195185
X0575933
Y0215185
Y0235185
Y0255185
Y0275185
Y0295185
Y0315185
X0555933
Y0295185
Y0275185
Y0255185
Y0235185
Y0215185
Y0195185
X0535933
Y0235185
Y0255185
Y0275185
Y0295185
Y0315185
X0515933
Y0295185
Y0275185
Y0255185
Y0235185
X0495933
Y0255185
Y0275185
Y0295185
Y0315185
X0475933
X0455933
Y0295185
Y0275185
X0475933
Y0255185
Y0235185
X0455933
Y0255185
X0435933
Y0275185
Y0295185
Y0315185
X0415933
Y0295185
Y0275185
Y0255185
Y0235185
X0435933
Y0195185
X0455933
X0475933
X0495933
X0515933
X0415933
X0395933
X0375933
Y0235185
X0395933
Y0255185
Y0275185
Y0295185
Y0315185
X0375933
Y0295185
Y0275185
Y0255185
X0355933
Y0275185
Y0295185
Y0315185
X03285Y03155
X0335933Y0295185
Y0275185
Y0255185
Y0235185
X0355933
Y0195185
X0335933
X0315933
X0295933
Y0215185
Y0235185
X0315933
Y0255185
Y0275185
X0303769Y0299743
X0289769Y031303
X0272914Y0318945
X0269Y031
X0280242Y0294983
X0259Y0278
Y0272
Y0266
Y026
X0255Y0263
Y0269
Y0275
X0255933Y0255185
X0254Y0238
X0249
X0254Y0233
X0259Y0234
Y0229
X0264
X0271Y024
X0255933Y0215185
Y0195185
Y0175185
X0275933
X0235933Y0215185
X0235407Y0230093
X021785Y023815
X0215933Y0215185
X02181Y019845
X0232907Y0273093
X0231907Y0319593
X0295933Y0255185
X018Y0263
Y0282
X01795Y0295
X0175Y02945
X017364Y029864
X01775Y0307
X0180697Y0313122
X0197Y0289
X0201Y0285
X01375Y0272
X0136Y0253
X013Y0254
X0128Y0241
X01315Y0234
X0145Y02385
X01682Y023815
X0172Y02265
X01765Y0231
X0181Y02255
X01935Y02125
X01635Y0214
X0156Y0213
X0149104Y0201959
X0137232Y0204331
X0132902
X0128571
Y0208661
Y0212992
X0132902
Y0208661
X0137232
Y0212992
X0118415Y02189
X0114008Y0206693
X0106Y02045
X01062Y02113
X0095933Y0215185
X007Y023815
Y027675
X01193
X0122Y0285
X0121Y0293
X0128Y0289
X0122382Y0315
X0114Y032
X0139016Y0315984
X01415Y0192
X0132921Y0183655
X0138402Y0173598
X0123349Y0165
X0159Y01685
X0179Y0165
X0078
X0015933Y0195185
Y0215185
Y0235185
Y0255185
Y0275185
Y0295185
Y0315185
X0035933
Y0335185
Y0355185
Y0375185
Y0395185
X0015933
Y0415185
Y0375185
Y0355185
Y0335185
X00825Y0327
X00885
X0115Y0336
X0126484Y0334894
X0130123Y0331747
X01265Y0328
X0119Y035
Y0368
X01275Y03685
X0128Y036
X013624Y0358244
X0137Y0368677
X0148Y0368874
X0157Y0368677
X0168Y0368874
X0177Y0368677
X0188Y0368874
X0197Y0368677
X01875Y0394
X0177Y0403
X01675Y0394
X01275Y0395
X012624Y037724
X0117Y0385
X0108Y0379197
X0097Y0379
X01075Y03955
X0075933Y0395185
X0055933
Y0375185
X0148Y0357925
X01455Y0348925
X0154Y0332
X0157039Y0327386
X0164Y03335
X0176Y0344
X02015Y03315
X02075Y03225
X0215Y03225
X02125Y0327
X0215933Y0335185
X0232407Y0345093
X0235933Y0355185
X02265Y0359
X0224Y03615
X0208Y0368874
X0245407Y0375593
X0255933Y0395185
X0275933
X0295933
X0315933
X0335933
X0355933
Y0415185
X0335933
X0315933
X0295933
X0275933
X0255933
X0235933
X0289676Y0368617
X0299769Y0368683
X0315933Y0355185
X0315Y035
Y0344
X0311Y0347
X0287Y0349
X0275Y0346
X028Y0336
X02888Y03311
X0299Y0331
X0306059Y0324201
X0261Y03245
X0355933Y0335185
Y0355185
Y0375185
X0335933
Y0355185
X0375933
X0395933
X0415933
X0435933
X0455933
X0475933
X0495933
X0515933
Y0375185
Y0395185
Y0415185
X0495933
Y0395185
Y0375185
X0475933
Y0395185
Y0415185
X0455933
X0435933
X0415933
X0395933
Y0395185
Y0375185
X0375933
Y0395185
Y0415185
Y0335185
X0395933
X0415933
X0435933
X0455933
X0475933
X0495933
X0515933
X0535933
X0555933
X0575933
X0595933
X0615933
X0635933
X0641Y0359
X0655Y0356
X065Y0389148
X0655933Y0395185
X0635933
Y0375185
X0595933
Y0395185
Y0415185
X0615933
X0575933
Y0395185
Y0375185
Y0355185
X0595933
X0555933
Y0375185
Y0395185
Y0415185
X0535933Y0395185
Y0375185
Y0355185
X07435Y034585
X0775933Y0355185
Y0375185
Y0395185
Y0415185
X0755933Y0395185
Y0375185
X0735933Y0395185
X0715933Y0415185
X0775933Y0335185
T03
X0015748Y0105421
Y0161417
X0637178Y03025
X0224Y0287
T04
X00975Y042752
X01975
T05
X0586496Y039374
X0605
X0623504
X0631004Y043126
X0578996
T06
X0799433Y0009685
X0475232Y03005
T07
X00808Y00503
X0475531Y03447
X07057Y03999
T08
X01815Y013
X06551Y00517
X07066Y00516
X0656Y019455
X01816Y02484
X00431Y02959
X00805Y0419
X02244Y042
X06547Y04221
T09
X0535873Y02137
X0307527
Y0406613
X0535873
M30
